<?xml version="1.0" standalone="no"?>
<!DOCTYPE svg PUBLIC "-//W3C//DTD SVG 20010904//EN"
 "http://www.w3.org/TR/2001/REC-SVG-20010904/DTD/svg10.dtd">
<svg version="1.0" xmlns="http://www.w3.org/2000/svg"
 width="361.000000pt" height="341.000000pt" viewBox="0 0 361.000000 341.000000"
 preserveAspectRatio="xMidYMid meet">

<g transform="translate(0.000000,341.000000) scale(0.100000,-0.100000)"
fill="#000000" stroke="none">
<path d="M0 1705 l0 -1705 1805 0 1805 0 0 1705 0 1705 -1805 0 -1805 0 0
-1705z m1920 1540 c0 -23 -3 -24 -67 -27 l-68 -3 -3 -31 c-2 -18 1 -47 6 -65
8 -32 11 -34 48 -31 21 2 43 10 47 18 13 23 37 17 37 -10 0 -55 -110 -78 -157
-34 -20 18 -23 31 -23 88 0 91 11 103 97 111 37 3 71 7 76 7 4 1 7 -9 7 -23z
m205 -7 c3 -7 -1 -38 -8 -68 -11 -46 -16 -54 -32 -52 -26 5 -25 0 -14 57 14
70 16 75 34 75 9 0 18 -6 20 -12z m-536 -94 c18 -64 21 -86 12 -103 -14 -26
-42 -41 -78 -41 -15 0 -37 -7 -47 -15 -38 -29 -116 -11 -116 26 0 15 29 22 43
11 16 -13 57 -4 57 12 0 6 -9 40 -20 76 -24 80 -25 88 -2 92 14 3 22 -12 43
-77 26 -79 39 -94 69 -75 15 9 10 39 -27 162 -5 16 25 31 38 19 3 -3 16 -43
28 -87z m673 71 c7 -7 -18 -129 -33 -168 -13 -32 -44 -42 -97 -32 -46 8 -72
31 -72 62 0 28 35 32 43 4 6 -24 67 -35 83 -15 6 7 16 45 23 84 10 55 17 70
30 70 10 0 20 -2 23 -5z m-342 -60 c0 -23 -4 -25 -45 -25 -38 0 -45 3 -45 19
0 20 16 28 63 30 22 1 27 -3 27 -24z m-547 -42 c17 -58 12 -81 -15 -70 -15 5
-49 112 -40 122 3 3 13 5 22 5 12 0 22 -17 33 -57z m1146 7 c62 -31 65 -57 20
-156 -37 -83 -33 -77 -58 -69 l-21 6 20 40 20 39 -35 17 c-38 18 -39 21 -26
42 8 12 14 12 39 2 58 -24 73 15 17 42 -20 9 -38 17 -41 17 -3 0 -22 -36 -43
-80 -34 -72 -39 -79 -55 -67 -17 12 -16 17 13 82 51 111 74 124 150 85z
m-1353 -68 c21 -14 74 -109 74 -134 0 -38 -63 -88 -111 -88 -12 0 -31 7 -41
16 -17 16 -17 18 0 30 11 8 21 9 29 3 12 -11 66 11 78 31 6 10 -39 95 -56 105
-9 6 -64 -19 -73 -34 -4 -5 3 -25 14 -45 21 -34 21 -35 2 -45 -17 -9 -23 -6
-41 25 -12 19 -21 45 -21 58 0 51 104 106 146 78z m1647 -114 c26 -25 47 -52
47 -62 0 -10 -13 -31 -30 -48 -16 -16 -30 -34 -30 -39 0 -6 -12 -26 -27 -45
-24 -32 -28 -34 -42 -20 -13 14 -13 19 7 45 22 31 28 51 15 51 -5 0 -28 18
-52 39 l-44 38 39 50 c44 57 45 57 117 -9z m-142 -97 c-18 -33 -39 -45 -56
-31 -12 10 -11 16 7 40 17 24 25 27 40 19 14 -7 16 -14 9 -28z m-1729 -31 c62
-64 62 -86 2 -150 -52 -55 -63 -59 -89 -30 -24 26 -13 54 19 46 19 -5 30 1 51
26 l26 31 -45 46 -46 46 -32 -32 -32 -33 29 -30 c26 -27 27 -32 14 -45 -13
-13 -20 -9 -62 33 l-48 49 50 46 c69 65 98 64 163 -3z m1143 -44 c393 -85 701
-383 793 -767 27 -109 36 -179 24 -179 -11 0 -22 34 -22 71 0 92 -87 316 -168
436 -133 196 -349 346 -588 410 -84 22 -121 26 -246 27 -136 1 -164 6 -113 20
36 9 248 -2 320 -18z m968 -57 c49 -61 48 -91 0 -136 -49 -45 -89 -66 -113
-58 -10 3 -39 30 -64 60 l-46 53 26 21 c15 12 30 21 34 21 11 0 21 -30 14 -41
-7 -12 34 -69 50 -69 15 0 96 61 96 73 0 14 -43 67 -55 67 -7 0 -20 -9 -30
-20 -21 -23 -38 -25 -54 -6 -9 10 0 22 41 54 29 23 56 38 59 34 3 -4 22 -28
42 -53z m-2321 -146 c43 -26 78 -50 78 -54 0 -3 -7 -12 -15 -19 -11 -9 -21 -7
-46 11 l-32 22 -18 -21 c-9 -12 -19 -27 -21 -33 -4 -13 -38 0 -38 15 0 6 7 22
16 35 11 16 13 26 6 33 -16 16 -39 3 -57 -32 l-16 -30 71 -46 c73 -47 75 -50
61 -73 -7 -10 -21 -5 -67 24 -111 70 -121 88 -83 155 20 35 48 58 74 59 5 1
45 -20 87 -46z m2498 -125 c30 -32 45 -90 31 -117 -7 -11 -47 -39 -90 -61 -66
-33 -80 -37 -85 -24 -10 26 -7 31 24 44 41 17 44 24 24 61 -13 26 -14 33 -2
40 22 14 28 11 45 -25 10 -21 21 -32 29 -29 20 7 17 47 -4 73 l-17 22 -78 -36
c-74 -34 -77 -34 -87 -15 -10 17 -3 23 62 53 87 41 120 44 148 14z m-1610
-293 l0 -245 250 0 250 0 0 245 0 245 80 0 80 0 0 -580 0 -580 -80 0 -80 0 0
265 0 265 -250 0 -250 0 0 -265 0 -265 -80 0 -80 0 0 580 0 580 80 0 80 0 0
-245z m-963 110 c1 0 0 -10 -3 -22 -6 -21 -8 -21 -46 -7 -22 8 -42 14 -43 14
-2 0 -9 -16 -15 -35 -12 -36 -17 -39 -43 -29 -13 5 -14 10 -1 39 8 19 14 37
14 39 0 3 -18 11 -40 17 -41 12 -44 16 -34 42 5 13 22 10 107 -21 56 -19 103
-36 104 -37z m-143 -98 c90 -32 102 -41 88 -64 -6 -9 -33 -3 -107 24 -55 19
-101 36 -103 38 -7 6 11 35 22 34 6 0 51 -15 100 -32z m423 6 c-3 -10 -17 -50
-31 -90 -37 -102 -59 -258 -52 -368 29 -476 346 -848 811 -952 87 -19 307 -22
390 -4 129 27 296 95 378 153 16 11 31 17 35 13 21 -21 -206 -135 -343 -172
-88 -23 -119 -26 -255 -26 -136 0 -167 3 -255 26 -181 49 -326 130 -462 260
-265 254 -378 631 -293 984 24 100 58 193 72 193 6 0 8 -8 5 -17z m2413 -18
c0 -13 -195 -69 -209 -61 -29 18 -5 35 92 63 100 30 116 30 117 -2z m16 -173
c20 -13 34 -50 34 -91 0 -59 -23 -78 -107 -86 -37 -4 -75 -9 -84 -11 -17 -5
-34 32 -19 41 4 2 39 8 78 11 92 9 97 12 85 60 -9 38 -10 39 -51 37 -38 -2
-42 0 -42 23 0 22 4 24 48 24 26 0 52 -4 58 -8z m-2979 -61 c-5 -45 -3 -60 7
-64 20 -8 36 13 36 48 0 45 25 75 63 75 59 0 76 -30 67 -115 -7 -62 -10 -68
-34 -59 -14 5 -16 15 -10 65 6 49 4 60 -10 65 -22 9 -24 5 -35 -51 -14 -73
-67 -99 -111 -55 -35 35 -25 150 13 150 18 0 19 -4 14 -59z m2853 39 c0 -11
-6 -20 -12 -20 -7 0 -23 -3 -35 -6 -20 -5 -23 -2 -23 20 0 23 4 26 35 26 28 0
35 -4 35 -20z m-2580 -609 c0 -14 -22 -27 -95 -55 -52 -20 -97 -36 -99 -36 -2
0 -6 8 -9 19 -4 15 10 25 82 54 101 41 121 44 121 18z m2453 -7 c3 -3 -1 -24
-9 -46 -18 -53 -18 -68 4 -68 10 0 23 15 34 40 9 23 27 45 42 52 23 10 31 8
54 -9 21 -16 27 -29 26 -54 -3 -53 -31 -109 -55 -109 -22 0 -21 9 7 79 27 65
-16 72 -44 7 -14 -31 -27 -45 -46 -50 -48 -12 -94 32 -80 76 24 76 46 103 67
82z m-2503 -100 c0 -22 17 -24 54 -9 33 14 37 14 43 0 8 -23 -1 -29 -92 -64
-92 -36 -101 -37 -109 -15 -4 11 5 20 34 31 31 12 39 20 34 32 -15 37 -16 54
-3 62 15 9 39 -14 39 -37z m169 -148 c10 -12 3 -21 -40 -50 -40 -27 -56 -33
-66 -24 -21 17 -16 24 35 56 56 36 56 36 71 18z m2268 -33 c35 -25 68 -55 73
-67 10 -29 -7 -74 -36 -93 -13 -8 -24 -22 -24 -31 0 -42 -86 -84 -105 -52 -8
14 14 42 27 34 12 -7 38 15 38 32 0 8 -29 35 -65 61 -58 42 -64 49 -50 62 13
13 21 11 74 -27 65 -45 85 -51 95 -26 10 27 7 31 -49 68 -61 41 -69 51 -61 71
8 21 10 20 83 -32z m-2388 -46 c8 -10 8 -16 0 -24 -8 -8 -5 -20 10 -42 13 -17
27 -31 33 -31 7 0 40 19 76 42 52 34 65 39 73 27 13 -21 13 -21 -54 -65 -93
-61 -102 -62 -143 -19 -39 42 -50 75 -34 104 12 24 23 26 39 8z m2253 -113
c44 -33 48 -38 35 -52 -14 -13 -19 -12 -49 8 -61 43 -69 52 -57 67 15 18 15
18 71 -23z m-1922 -71 c65 -54 58 -92 -33 -181 -38 -38 -45 -41 -56 -28 -11
13 -5 24 38 72 28 30 51 61 51 67 0 13 -40 57 -51 57 -5 0 -19 -12 -33 -26
-15 -17 -30 -25 -40 -21 -23 9 -20 21 13 56 36 38 69 40 111 4z m1822 -74 c63
-67 65 -103 11 -148 -40 -33 -62 -38 -94 -20 -17 8 -18 13 -8 25 7 8 19 12 27
9 17 -6 72 31 72 49 0 7 -15 30 -34 52 -34 39 -34 39 -63 22 -37 -22 -40 -44
-12 -74 21 -23 22 -26 6 -41 -15 -15 -18 -15 -37 8 -28 33 -42 68 -35 90 7 21
83 79 104 79 8 0 37 -23 63 -51z m-1972 -34 c-21 -23 -26 -24 -39 -10 -13 13
-12 17 9 40 21 23 26 24 39 10 13 -13 12 -17 -9 -40z m381 -66 c77 -46 84 -53
72 -74 -7 -12 -22 -6 -83 30 -41 25 -75 49 -74 55 2 24 4 30 10 30 3 0 37 -19
75 -41z m1310 -29 c10 -6 30 -33 44 -60 43 -84 35 -110 -47 -151 -33 -17 -61
-29 -63 -27 -8 9 -25 48 -25 56 0 15 32 24 40 12 7 -12 80 17 80 32 0 20 -46
98 -57 98 -16 0 -73 -28 -73 -36 0 -2 7 -16 16 -29 17 -27 13 -55 -9 -55 -7 0
-25 25 -40 55 l-27 55 58 29 c63 33 75 36 103 21z m-1325 -33 c3 -8 -11 -42
-32 -75 -32 -54 -38 -60 -55 -51 -19 10 -19 11 6 52 15 23 31 52 37 65 12 24
36 29 44 9z m1053 -84 c14 -12 29 -45 41 -93 24 -92 24 -87 1 -93 -16 -4 -21
3 -30 39 -11 41 -12 43 -37 34 -38 -15 -54 -12 -54 10 0 13 9 22 28 26 38 9
42 13 35 29 -6 17 -46 20 -73 5 -17 -9 -17 -12 2 -86 16 -63 17 -79 6 -85 -27
-17 -26 -19 -59 113 -14 60 2 91 58 106 54 14 58 14 82 -5z m-585 -19 c8 -3
12 -14 9 -25 -5 -17 -11 -18 -42 -12 -58 11 -75 9 -79 -9 -2 -12 5 -19 25 -23
72 -15 103 -48 87 -92 -13 -38 -47 -48 -117 -33 -59 12 -63 15 -48 39 7 11 18
11 61 2 35 -8 57 -8 63 -2 14 14 -10 41 -38 41 -33 0 -75 37 -75 66 0 13 10
34 21 45 18 18 29 20 70 15 27 -4 55 -9 63 -12z m184 -121 c-3 -92 -6 -108
-20 -111 -15 -3 -17 10 -20 103 -2 59 -1 109 1 111 2 2 13 4 23 4 17 0 18 -8
16 -107z m132 70 c0 -21 3 -68 7 -105 l6 -68 -27 0 c-24 0 -26 3 -26 40 0 39
-1 40 -34 40 -25 0 -35 5 -39 20 -4 17 1 21 34 26 38 6 39 8 39 45 0 32 3 39
20 39 16 0 20 -7 20 -37z"/>
<path d="M2731 2916 c-10 -11 -5 -19 23 -41 35 -26 56 -27 56 0 0 12 -49 55
-63 55 -2 0 -10 -6 -16 -14z"/>
</g>
</svg>
