<?xml version="1.0" standalone="no"?>
<!DOCTYPE svg PUBLIC "-//W3C//DTD SVG 20010904//EN"
 "http://www.w3.org/TR/2001/REC-SVG-20010904/DTD/svg10.dtd">
<svg version="1.0" xmlns="http://www.w3.org/2000/svg"
 width="512.000000pt" height="512.000000pt" viewBox="0 0 512.000000 512.000000"
 preserveAspectRatio="xMidYMid meet">

<g transform="translate(0.000000,512.000000) scale(0.100000,-0.100000)"
fill="#000000" stroke="none">
<path d="M2375 5113 c-222 -29 -430 -99 -605 -205 -41 -25 -100 -53 -130 -61
-137 -40 -286 -166 -352 -298 -34 -69 -68 -175 -68 -213 0 -26 46 -66 75 -66
14 0 25 -1 25 -2 0 -2 -7 -28 -15 -58 -8 -30 -15 -72 -15 -93 0 -30 -5 -39
-23 -46 -49 -19 -52 -31 -51 -225 1 -135 5 -194 17 -230 l16 -49 -39 -44 c-96
-110 -96 -287 2 -397 51 -59 108 -92 181 -105 62 -11 100 -8 160 15 21 8 42
12 46 10 4 -3 13 -31 20 -63 41 -185 138 -384 263 -541 50 -63 173 -168 251
-214 l68 -41 -3 -126 -3 -126 -117 -45 c-126 -49 -148 -62 -148 -92 0 -14 -12
-24 -42 -36 -141 -53 -426 -223 -463 -275 -31 -44 -8 -100 46 -112 27 -6 42 1
118 53 93 65 263 158 348 191 l52 20 91 -177 c96 -185 123 -222 168 -223 20 0
35 -12 60 -46 l33 -45 -120 -535 c-132 -585 -130 -568 -68 -603 24 -13 30 -13
55 0 15 9 33 28 40 43 l13 27 299 0 299 0 13 -27 c7 -15 25 -34 41 -43 24 -13
30 -13 55 0 61 35 63 18 -69 603 l-120 535 33 45 c25 34 40 46 60 46 45 1 72
38 168 223 l91 177 49 -19 c436 -172 799 -543 961 -982 56 -152 86 -304 105
-522 5 -54 11 -74 29 -92 41 -41 107 -23 119 34 9 39 -11 249 -35 366 -116
578 -527 1080 -1077 1316 -65 28 -88 43 -90 58 -5 31 -24 43 -150 92 l-117 45
-3 127 -3 127 38 20 c110 56 255 190 343 317 90 130 183 345 206 477 7 44 17
52 44 37 40 -21 118 -30 177 -19 149 27 254 153 254 304 0 89 -26 151 -92 217
l-57 58 19 72 c51 203 64 406 34 553 -89 427 -494 776 -1014 871 -85 15 -92
15 -116 0 -29 -19 -48 -60 -40 -86 11 -34 41 -49 142 -69 371 -76 681 -290
812 -561 l22 -45 -28 35 c-60 77 -212 220 -288 269 -149 97 -327 169 -520 208
-126 25 -442 25 -570 -1 -178 -35 -344 -99 -497 -192 -31 -19 -85 -44 -120
-55 -85 -28 -142 -62 -210 -127 -32 -30 -58 -51 -58 -46 0 22 66 121 110 165
51 51 137 99 210 119 25 6 72 29 105 50 172 108 362 174 575 199 73 9 88 15
108 37 28 32 23 68 -14 102 -25 22 -47 24 -119 15z m1015 -1348 l0 -135 -305
0 c-287 0 -308 -1 -345 -20 -48 -25 -87 -80 -96 -137 l-7 -43 -77 0 -77 0 -7
43 c-9 57 -48 112 -96 137 -37 19 -58 20 -345 20 l-305 0 0 28 c0 22 7 30 43
44 38 15 104 18 627 21 566 3 588 4 665 25 86 24 244 96 285 130 14 12 28 21
33 22 4 0 7 -61 7 -135z m-1898 -289 c14 -3 40 -18 57 -32 31 -25 31 -27 31
-118 0 -83 -2 -95 -22 -113 -54 -49 -133 -60 -191 -26 -98 58 -105 208 -12
269 26 17 82 33 100 28 6 -1 22 -5 37 -8z m2274 -21 c41 -26 64 -74 64 -131 0
-141 -161 -208 -267 -111 -21 18 -23 30 -23 113 0 91 0 93 31 118 17 14 43 29
57 32 15 3 32 7 37 8 18 5 75 -12 101 -29z m-1448 13 c8 -8 12 -62 12 -178 0
-116 -4 -170 -12 -178 -17 -17 -559 -17 -576 0 -13 13 -18 349 -5 361 3 4 133
7 288 7 205 0 284 -3 293 -12z m1070 -167 c2 -119 -1 -178 -9 -187 -16 -19
-558 -21 -577 -2 -17 17 -17 339 0 356 9 9 84 12 298 10 l285 -3 3 -174z
m-748 -114 c0 -98 23 -153 83 -201 l39 -31 288 -5 289 -5 -43 -106 c-61 -151
-124 -248 -236 -359 -118 -119 -228 -182 -367 -210 -68 -15 -202 -15 -268 -1
-265 57 -505 293 -618 608 l-26 72 289 3 288 3 39 31 c60 48 83 103 83 201 l0
83 80 0 80 0 0 -83z m-159 -1078 c74 -9 189 -2 263 17 l26 6 0 -109 0 -108
-101 -90 c-56 -50 -105 -90 -109 -90 -4 0 -53 40 -109 90 l-101 90 0 108 0
109 26 -6 c14 -4 61 -11 105 -17z m-89 -434 l56 -52 -92 -92 -93 -92 -77 150
c-87 171 -90 148 19 190 l50 19 40 -36 c22 -19 65 -59 97 -87z m610 69 c5 -3
-26 -73 -68 -155 l-77 -150 -93 92 -92 92 56 52 c32 28 75 67 97 87 l39 36 65
-25 c36 -13 69 -27 73 -29z"/>
<path d="M2123 3419 c-43 -16 -55 -51 -52 -145 4 -76 7 -88 28 -105 32 -26 73
-24 99 4 19 20 22 35 22 111 0 48 -4 96 -10 106 -13 24 -59 39 -87 29z"/>
<path d="M2943 3415 c-39 -17 -43 -29 -43 -134 0 -79 2 -90 23 -109 29 -27 67
-28 98 -3 21 17 24 29 27 108 3 77 1 91 -17 114 -26 33 -50 40 -88 24z"/>
<path d="M2309 2879 c-60 -60 31 -247 149 -305 51 -26 154 -26 207 1 83 41
153 143 163 236 5 58 -20 89 -71 89 -41 0 -61 -20 -78 -79 -19 -63 -76 -121
-119 -121 -43 0 -100 58 -119 121 -7 24 -20 52 -29 62 -21 24 -77 22 -103 -4z"/>
<path d="M1208 1283 c-22 -6 -110 -115 -188 -234 -121 -184 -215 -411 -259
-625 -24 -118 -44 -327 -35 -366 12 -57 78 -75 119 -34 18 18 24 38 29 92 25
290 62 440 162 652 53 112 141 253 228 365 52 67 57 97 21 132 -23 24 -40 28
-77 18z"/>
</g>
</svg>
