<?xml version="1.0" standalone="no"?>
<!DOCTYPE svg PUBLIC "-//W3C//DTD SVG 20010904//EN"
 "http://www.w3.org/TR/2001/REC-SVG-20010904/DTD/svg10.dtd">
<svg version="1.0" xmlns="http://www.w3.org/2000/svg"
 width="32.000000pt" height="32.000000pt" viewBox="0 0 32.000000 32.000000"
 preserveAspectRatio="xMidYMid meet">

<g transform="translate(0.000000,32.000000) scale(0.100000,-0.100000)"
fill="#000000" stroke="none">
<path d="M50 160 c0 -133 1 -140 20 -140 18 0 20 7 20 60 l0 60 30 0 c23 0 30
4 30 20 0 16 -7 20 -30 20 l-30 0 0 60 c0 53 -2 60 -20 60 -19 0 -20 -7 -20
-140z"/>
<path d="M230 240 l0 -60 -30 0 c-23 0 -30 -4 -30 -20 0 -16 7 -20 30 -20 l30
0 0 -60 c0 -53 2 -60 20 -60 19 0 20 7 20 140 0 133 -1 140 -20 140 -18 0 -20
-7 -20 -60z"/>
</g>
</svg>
