<?xml version="1.0" standalone="no"?>
<!DOCTYPE svg PUBLIC "-//W3C//DTD SVG 20010904//EN"
 "http://www.w3.org/TR/2001/REC-SVG-20010904/DTD/svg10.dtd">
<svg version="1.0" xmlns="http://www.w3.org/2000/svg"
 width="96.000000pt" height="96.000000pt" viewBox="0 0 96.000000 96.000000"
 preserveAspectRatio="xMidYMid meet">

<g transform="translate(0.000000,96.000000) scale(0.100000,-0.100000)"
fill="#000000" stroke="none">
<path d="M150 480 l0 -420 60 0 60 0 0 180 0 180 90 0 90 0 0 60 0 60 -90 0
-90 0 0 180 0 180 -60 0 -60 0 0 -420z"/>
<path d="M690 720 l0 -180 -90 0 -90 0 0 -60 0 -60 90 0 90 0 0 -180 0 -180
60 0 60 0 0 420 0 420 -60 0 -60 0 0 -180z"/>
</g>
</svg>
