<?xml version="1.0" standalone="no"?>
<!DOCTYPE svg PUBLIC "-//W3C//DTD SVG 20010904//EN"
 "http://www.w3.org/TR/2001/REC-SVG-20010904/DTD/svg10.dtd">
<svg version="1.0" xmlns="http://www.w3.org/2000/svg"
 width="180.000000pt" height="180.000000pt" viewBox="0 0 180.000000 180.000000"
 preserveAspectRatio="xMidYMid meet">

<g transform="translate(0.000000,180.000000) scale(0.100000,-0.100000)"
fill="#000000" stroke="none">
<path d="M0 900 l0 -900 900 0 900 0 0 900 0 900 -900 0 -900 0 0 -900z m1428
836 c-8 -72 -47 -135 -136 -223 -45 -46 -87 -83 -92 -83 -6 0 -10 26 -10 58
l0 59 112 116 c62 65 117 117 122 117 5 0 6 -20 4 -44z m-1058 -52 c6 -14 10
-26 10 -28 0 -1 -20 -1 -45 -1 l-45 2 -1 -36 c0 -20 0 -80 1 -133 1 -83 -1
-98 -14 -98 -20 0 -20 -17 -1 -50 18 -31 20 -117 3 -123 -10 -3 -10 -11 0 -39
6 -19 12 -53 12 -76 0 -39 2 -42 28 -43 18 0 35 -10 52 -31 l24 -31 -63 6 -63
5 8 -26 c4 -15 9 -149 11 -297 l4 -271 100 -53 c65 -34 99 -58 95 -66 -6 -17
17 -37 83 -70 45 -23 58 -25 74 -15 29 17 33 3 6 -19 l-24 -19 -197 100 -198
100 0 669 0 669 65 0 c61 0 66 -2 75 -26z m941 8 c-22 -40 -33 -43 -210 -40
l-171 3 0 -181 0 -180 -30 -29 -30 -29 0 210 0 209 -172 -2 c-176 -3 -188 -1
-209 39 -9 17 6 18 411 18 405 0 420 -1 411 -18z m260 -309 c1 -787 0 -1006
-8 -1013 -4 -5 -91 -51 -193 -103 -146 -75 -197 -96 -242 -102 -32 -3 -58 -11
-58 -16 0 -5 5 -9 10 -9 29 0 0 -23 -82 -65 l-91 -48 -99 49 c-54 26 -98 51
-98 54 0 3 16 12 34 18 31 11 40 10 75 -8 22 -11 43 -20 46 -20 3 0 5 26 5 58
0 41 6 64 20 82 28 35 27 63 -2 54 -19 -6 -18 -3 8 23 l29 30 3 -33 c2 -18 -2
-42 -7 -53 -7 -13 -8 -22 -1 -26 16 -10 12 -22 -10 -28 -11 -3 -20 -10 -20
-17 0 -7 9 -14 20 -17 16 -4 20 -14 20 -44 l0 -39 56 31 c30 17 86 37 124 45
103 19 215 80 203 110 -3 9 28 30 101 66 l106 53 0 266 c0 147 3 280 6 297 l6
30 -62 -5 -63 -6 23 31 c18 25 31 32 57 32 l33 0 2 63 c1 34 0 93 -1 130 -2
39 2 81 10 99 10 24 10 33 1 36 -9 3 -12 41 -12 133 l0 129 -50 0 c-27 0 -50
2 -50 4 0 3 4 16 10 30 9 24 14 26 75 26 l65 0 1 -327z m-92 131 c-16 -37 -37
-78 -47 -91 -17 -23 -171 -143 -184 -143 -4 0 -2 15 3 32 5 18 9 49 10 68 0
31 7 40 61 80 86 64 170 120 179 120 5 0 -5 -30 -22 -66z m-319 -66 c0 -52 -2
-55 -69 -123 -37 -38 -80 -81 -95 -95 l-28 -25 7 60 c8 57 11 63 89 147 45 48
84 88 89 88 4 0 7 -24 7 -52z m357 -100 c-15 -42 -148 -176 -206 -207 -40 -22
-44 -22 -37 -5 5 10 11 39 13 64 3 25 13 53 22 64 25 29 100 77 150 97 67 26
71 25 58 -13z m-317 -53 c-14 -68 -64 -129 -177 -218 l-26 -21 7 55 c7 52 11
58 103 151 54 54 99 96 101 93 2 -2 -2 -29 -8 -60z m-274 -86 c-7 -58 -11 -66
-79 -145 -40 -46 -74 -79 -75 -74 -2 6 1 41 8 78 10 63 15 73 73 135 34 36 66
66 71 67 5 0 5 -27 2 -61z m301 -47 c-6 -23 -27 -61 -46 -85 -36 -44 -169
-162 -176 -156 -2 2 0 24 5 47 5 32 20 56 51 89 49 50 171 154 176 150 1 -2
-3 -22 -10 -45z m288 26 c-4 -13 -26 -53 -50 -89 -43 -66 -95 -114 -169 -159
-37 -22 -39 -22 -32 -4 4 10 16 46 27 79 20 64 32 77 163 163 59 38 70 40 61
10z m-558 -129 c-6 -45 -15 -60 -86 -143 -44 -51 -87 -99 -97 -107 -32 -26 -9
78 30 136 30 46 141 165 154 165 2 0 2 -23 -1 -51z m279 -71 c-19 -68 -71
-128 -147 -173 -33 -19 -61 -35 -63 -35 -2 0 5 30 15 68 15 54 26 74 60 105
38 34 139 97 147 91 2 -1 -3 -27 -12 -56z m278 -10 c-9 -29 -54 -95 -88 -130
-27 -27 -126 -78 -150 -78 -20 0 10 99 38 122 20 16 191 108 202 108 3 0 2
-10 -2 -22z m-562 -70 c-5 -43 -13 -53 -169 -237 l-22 -26 -1 46 c0 42 5 52
64 120 109 125 121 137 128 138 3 1 4 -18 0 -41z m292 -70 c-27 -90 -48 -111
-177 -183 -43 -23 -48 -24 -43 -8 3 10 8 30 12 45 7 30 66 82 151 134 31 19
59 34 61 34 2 0 0 -10 -4 -22z m-278 -60 c-14 -29 -45 -73 -67 -98 -23 -25
-64 -69 -90 -98 l-49 -54 0 36 c0 32 13 49 112 156 61 66 113 118 116 116 2
-2 -8 -28 -22 -58z m509 -8 c-12 -36 -83 -97 -157 -135 -39 -19 -73 -33 -75
-31 -2 2 8 28 23 58 19 39 39 63 72 84 39 25 130 56 140 48 2 -1 1 -12 -3 -24z
m-507 -131 c-16 -37 -33 -58 -62 -77 -23 -15 -64 -44 -92 -64 -58 -43 -64 -45
-57 -19 7 27 202 209 225 211 4 0 -3 -23 -14 -51z m226 -27 c-24 -39 -42 -53
-108 -85 -43 -21 -80 -36 -82 -34 -2 2 2 20 11 39 15 38 89 97 159 129 52 23
56 11 20 -49z m236 -22 c-12 -23 -75 -67 -147 -104 -77 -38 -87 -35 -57 19 20
35 38 50 87 74 34 16 77 30 95 30 29 1 32 -1 22 -19z m-468 -77 c-32 -44 -61
-67 -151 -117 -46 -25 -85 -46 -87 -46 -14 0 23 62 49 81 43 32 200 119 205
114 2 -2 -5 -16 -16 -32z m219 -22 c-36 -50 -77 -78 -147 -100 -37 -11 -69
-19 -72 -17 -9 9 31 62 56 75 63 32 177 80 180 76 2 -2 -5 -17 -17 -34z m167
-63 c-22 -34 -101 -84 -144 -91 -21 -4 -39 -5 -41 -3 -2 2 4 17 14 34 26 46
88 76 167 81 17 1 17 -1 4 -21z m-434 -50 c-15 -25 -42 -44 -117 -81 -54 -27
-101 -47 -103 -44 -3 2 1 16 7 31 9 18 43 41 118 80 58 30 108 53 110 51 2 -2
-5 -19 -15 -37z m236 12 c0 -28 -60 -72 -137 -100 -46 -16 -83 -27 -83 -24 0
25 35 53 113 90 99 47 107 49 107 34z m-268 -122 c-40 -65 -96 -98 -272 -164
l-65 -24 65 60 c46 44 92 73 160 105 52 25 102 49 110 54 23 14 24 5 2 -31z
m418 19 c0 -23 -165 -95 -222 -97 -4 0 7 20 25 44 35 48 69 63 150 65 33 1 47
-3 47 -12z m-259 -57 c-28 -26 -40 -30 -89 -30 -39 0 -53 3 -45 11 12 12 156
59 162 53 3 -3 -10 -18 -28 -34z"/>
</g>
</svg>
