<?xml version="1.0" encoding="utf-8"?>
<!-- Generator: Adobe Illustrator 27.8.1, SVG Export Plug-In . SVG Version: 6.00 Build 0)  -->
<svg version="1.1" id="Layer_1" xmlns="http://www.w3.org/2000/svg" xmlns:xlink="http://www.w3.org/1999/xlink" x="0px" y="0px"
	 width="1644.1px" height="623.8px" viewBox="0 0 1644.1 623.8" style="enable-background:new 0 0 1644.1 623.8;"
	 xml:space="preserve">
<style type="text/css">
	.st0{fill:#C8C8C8;}
	.st1{fill:#FFFFFF;}
	.st2{fill:url(#SVGID_1_);}
	.st3{fill:#DA291C;}
	.st4{fill:#464646;}
	.st5{fill:url(#SVGID_00000075841839388028828230000016221148401527160722_);}
	.st6{fill:url(#SVGID_00000111149535038781082170000006526378444132151996_);}
	.st7{fill:url(#SVGID_00000179605697180254337540000003373802275866197692_);}
	.st8{fill:url(#SVGID_00000170255600463289191310000000615196772901513871_);}
	.st9{fill:url(#SVGID_00000009591482869421669490000005374586981070794135_);}
	.st10{fill:url(#SVGID_00000026159371279231556990000002845287975495408535_);}
</style>
<g>
	<path class="st0" d="M22.5,311.4c-0.5,0-1-0.2-1.4-0.6c-0.1-0.1-0.2-0.2-0.2-0.3c-0.1-0.1-0.1-0.2-0.2-0.3c0-0.1-0.1-0.2-0.1-0.4
		c0-0.1,0-0.3,0-0.4s0-0.3,0-0.4s0.1-0.2,0.1-0.4s0.1-0.2,0.2-0.4c0.1-0.1,0.2-0.2,0.2-0.3s0.2-0.2,0.3-0.2c0.1-0.1,0.2-0.1,0.4-0.2
		s0.2-0.1,0.4-0.1c0.6-0.1,1.3,0.1,1.8,0.5c0.1,0.1,0.2,0.2,0.2,0.3c0.1,0.1,0.1,0.2,0.2,0.4s0.1,0.2,0.1,0.4c0,0.1,0,0.3,0,0.4
		s0,0.3,0,0.4s-0.1,0.2-0.1,0.4s-0.1,0.2-0.2,0.3c-0.1,0.1-0.2,0.2-0.2,0.3c-0.2,0.2-0.4,0.3-0.6,0.4S22.8,311.4,22.5,311.4z"/>
	<path class="st0" d="M22.9,301.3c-0.1,0-0.2,0-0.3,0c-1-0.2-1.8-1.1-1.7-2.2c0.1-1,1-1.8,2-1.8c1.1,0,2,0.9,2,2c0,0.1,0,0.2,0,0.3
		C24.8,300.6,23.9,301.3,22.9,301.3L22.9,301.3z M245.9,301.2c-1,0-1.9-0.8-2-1.8s0.6-2,1.7-2.2c1.1-0.2,2.1,0.5,2.3,1.6
		c0,0.1,0,0.2,0,0.3C247.9,300.3,247,301.2,245.9,301.2L245.9,301.2z M24.3,291.4c-0.1,0-0.2,0-0.3,0c-1.1-0.2-1.8-1.2-1.6-2.3
		c0,0,0-0.1,0-0.2c0.3-1.1,1.4-1.7,2.4-1.5c1,0.3,1.7,1.3,1.5,2.3C26.1,290.7,25.2,291.4,24.3,291.4L24.3,291.4z M244.6,291.3
		c-0.9,0-1.7-0.6-1.9-1.5c0,0,0-0.1,0-0.2c-0.2-1.1,0.6-2.1,1.6-2.3c1.1-0.2,2.1,0.5,2.3,1.6c0.2,1-0.4,2.1-1.5,2.3
		C244.9,291.2,244.7,291.2,244.6,291.3L244.6,291.3z M26.5,281.6c-0.2,0-0.4,0-0.6-0.1c-1-0.3-1.6-1.4-1.3-2.4
		c0.2-1,1.2-1.6,2.2-1.5c1.1,0.1,1.9,1.1,1.7,2.2c0,0.1,0,0.3-0.1,0.4C28.1,281,27.4,281.6,26.5,281.6L26.5,281.6z M242.3,281.5
		c-0.9,0-1.7-0.6-1.9-1.5c-0.2-1,0.3-2,1.3-2.4c1.1-0.4,2.2,0.2,2.5,1.3c0,0.1,0.1,0.3,0.1,0.4c0.1,1.1-0.6,2.1-1.7,2.2
		C242.5,281.4,242.4,281.5,242.3,281.5L242.3,281.5z M29.6,272c-0.2,0-0.4,0-0.7-0.1c-1-0.4-1.6-1.5-1.2-2.5v-0.1
		c0.4-1,1.5-1.6,2.6-1.2c1,0.4,1.6,1.5,1.2,2.6C31.2,271.5,30.4,272,29.6,272L29.6,272z M239.2,271.9c-0.8,0-1.6-0.5-1.9-1.3
		l3.8-1.4c0.4,1-0.1,2.2-1.2,2.6C239.7,271.9,239.4,271.9,239.2,271.9L239.2,271.9z M33.6,262.8c-0.3,0-0.6-0.1-0.9-0.2
		c-1-0.5-1.4-1.7-0.9-2.7l0,0c0.5-1,1.7-1.4,2.7-0.9s1.4,1.7,0.9,2.7C35,262.4,34.3,262.8,33.6,262.8L33.6,262.8z M235.2,262.7
		c-0.7,0-1.4-0.4-1.8-1.1c-0.5-1-0.1-2.2,0.9-2.7s2.2-0.1,2.7,0.9l0,0c0.5,1,0.1,2.2-0.9,2.7C235.8,262.6,235.5,262.7,235.2,262.7
		L235.2,262.7z M38.4,254c-0.4,0-0.8-0.1-1.1-0.3c-0.9-0.6-1.2-1.8-0.6-2.7c0.5-0.9,1.7-1.2,2.6-0.8c1,0.5,1.4,1.7,0.9,2.7
		c0,0.1-0.1,0.1-0.1,0.2C39.6,253.6,39,254,38.4,254L38.4,254z M230.5,253.9c-0.7,0-1.4-0.4-1.7-1c-0.6-0.9-0.3-2.1,0.6-2.7
		c0.9-0.6,2.2-0.4,2.8,0.6c0.1,0.1,0.1,0.1,0.1,0.2c0.5,1,0.1,2.2-0.9,2.7C231.1,253.8,230.8,253.9,230.5,253.9L230.5,253.9z
		 M43.9,245.6c-0.4,0-0.8-0.1-1.1-0.3c-0.9-0.6-1.2-1.9-0.5-2.8c0.1-0.1,0.2-0.2,0.3-0.3c0.8-0.8,2-0.8,2.8,0
		c0.7,0.7,0.8,1.9,0.2,2.6C45.1,245.3,44.5,245.6,43.9,245.6L43.9,245.6z M224.9,245.5c-0.5,0-1-0.2-1.4-0.6
		c-0.1-0.1-0.2-0.2-0.3-0.3c-0.6-0.9-0.4-2.2,0.6-2.8c0.9-0.6,2.1-0.4,2.7,0.4c0.6,0.8,0.6,1.9-0.2,2.6
		C225.9,245.3,225.4,245.5,224.9,245.5L224.9,245.5z M50.2,237.8c-0.5,0-0.9-0.1-1.3-0.5c-0.8-0.7-1-2-0.3-2.8
		c0-0.1,0.1-0.1,0.1-0.1c0.8-0.8,2-0.8,2.8,0s0.8,2,0.1,2.7C51.3,237.5,50.7,237.8,50.2,237.8L50.2,237.8z M218.6,237.7
		c-0.5,0-1-0.2-1.4-0.6l-0.1-0.1c-0.7-0.9-0.6-2.1,0.3-2.8c0.8-0.7,2.1-0.6,2.8,0.2s0.7,2-0.1,2.7
		C219.7,237.5,219.2,237.7,218.6,237.7L218.6,237.7z M57.1,230.5c-0.6,0-1.2-0.3-1.6-0.8c-0.7-0.8-0.6-2,0.2-2.7
		c0.7-0.7,1.9-0.8,2.7-0.1s1,2,0.3,2.8c-0.1,0.1-0.2,0.2-0.3,0.3C58,230.4,57.6,230.5,57.1,230.5L57.1,230.5z M211.7,230.4
		c-0.5,0-1-0.2-1.4-0.6c-0.8-0.7-0.8-1.9-0.2-2.7c0.7-0.9,1.9-1,2.8-0.3c0.1,0.1,0.2,0.2,0.3,0.3c0.7,0.9,0.6,2.1-0.3,2.8
		C212.6,230.3,212.1,230.4,211.7,230.4L211.7,230.4z M64.7,223.9c-0.6,0-1.2-0.3-1.6-0.8c-0.7-0.9-0.5-2.1,0.3-2.8
		c0,0,0.1-0.1,0.2-0.1c0.9-0.6,2.2-0.4,2.8,0.6c0.6,0.9,0.4,2.1-0.5,2.7C65.5,223.8,65.1,223.9,64.7,223.9z M204.1,223.8
		c-0.4,0-0.8-0.1-1.1-0.3c-0.1,0-0.1-0.1-0.1-0.1c-0.9-0.7-1-1.9-0.3-2.8c0.7-0.9,1.9-1,2.8-0.4c0.9,0.6,1.1,1.8,0.5,2.7
		C205.4,223.5,204.8,223.8,204.1,223.8L204.1,223.8z M72.8,218c-0.7,0-1.3-0.3-1.7-0.9c-0.6-0.9-0.4-2.1,0.5-2.7
		c0.9-0.6,2.1-0.5,2.7,0.4c0.7,0.9,0.6,2.1-0.3,2.8c-0.1,0-0.1,0.1-0.2,0.1C73.6,217.9,73.2,218,72.8,218L72.8,218z M196,217.9
		c-0.4,0-0.8-0.1-1.2-0.4c-0.9-0.6-1.1-1.8-0.5-2.7s1.9-1.2,2.8-0.6c0.1,0,0.1,0.1,0.1,0.1c0.9,0.7,1,1.9,0.3,2.8
		C197.2,217.7,196.6,217.9,196,217.9L196,217.9z M81.4,212.8c-0.7,0-1.3-0.3-1.7-0.9c-0.6-0.9-0.4-2.2,0.6-2.8
		c0.2-0.1,0.3-0.2,0.5-0.2c1-0.4,2.2,0.2,2.5,1.3c0.3,0.9-0.1,1.9-1,2.4C82,212.7,81.7,212.8,81.4,212.8L81.4,212.8z M187.4,212.8
		c-0.2,0-0.4,0-0.6-0.1c-0.2-0.1-0.3-0.1-0.5-0.2c-0.9-0.6-1.2-1.9-0.6-2.8c0.6-0.9,1.7-1.1,2.6-0.6c0.9,0.4,1.3,1.5,1,2.4
		C189,212.2,188.2,212.8,187.4,212.8L187.4,212.8z M90.4,208.5c-0.8,0-1.6-0.5-1.9-1.4c-0.3-1,0.2-2.1,1.1-2.5s2-0.1,2.5,0.8
		c0.6,1,0.2,2.2-0.7,2.7c-0.1,0.1-0.2,0.1-0.4,0.2C90.8,208.4,90.6,208.5,90.4,208.5z M178.4,208.4c-0.3,0-0.5-0.1-0.8-0.2
		c-0.9-0.4-1.4-1.5-1.1-2.5c0.4-1.1,1.5-1.6,2.5-1.3c0.1,0,0.2,0.1,0.4,0.2c1,0.6,1.3,1.8,0.7,2.7
		C179.7,208.1,179.1,208.4,178.4,208.4L178.4,208.4z M169,204.9c-0.2,0-0.4,0-0.6-0.1c-1-0.3-1.6-1.4-1.3-2.5c0.3-1,1.4-1.6,2.5-1.3
		h0.1c1.1,0.4,1.6,1.5,1.3,2.5C170.6,204.4,169.8,204.9,169,204.9L169,204.9z M100.4,204.8l-1.3-3.8c1.1-0.4,2.2,0.2,2.5,1.3
		C102.1,203.3,101.5,204.5,100.4,204.8z M109.5,202.2c-0.9,0-1.7-0.6-1.9-1.4c-0.3-1.1,0.3-2.2,1.4-2.5c0.2-0.1,0.4-0.1,0.6-0.1
		c1.1,0,2,0.9,2,2c0,1-0.7,1.8-1.7,2C109.7,202.2,109.6,202.2,109.5,202.2z M159.3,202.2c-0.2,0-0.4,0-0.6-0.1
		c-1.1-0.3-1.7-1.4-1.4-2.5c0.3-1,1.3-1.6,2.3-1.4c0.9,0.2,1.6,1,1.6,2C161.3,201.3,160.4,202.2,159.3,202.2z M119.4,200.4
		c-1.1,0-2-0.9-2-2c0-1,0.8-1.9,1.8-2c0.9-0.1,1.8,0.4,2.1,1.4c0.3,1.1-0.2,2.2-1.3,2.5C119.8,200.4,119.6,200.4,119.4,200.4
		L119.4,200.4z M149.4,200.4c-0.1,0-0.2,0-0.2,0c-1-0.1-1.8-1-1.8-2c0-1.1,0.9-2,2-2c0.2,0,0.4,0,0.6,0.1c1.1,0.4,1.6,1.5,1.3,2.5
		C151,199.9,150.2,200.4,149.4,200.4L149.4,200.4z M129.4,199.6c-1.1,0-2-0.9-2-2s0.9-2,2-2l0,0c1.1,0,2,0.9,2,2
		S130.5,199.6,129.4,199.6z M139.4,199.6c-1.1,0-2-0.9-2-2s0.9-2,2-2l0,0c1.1,0,2,0.9,2,2S140.5,199.6,139.4,199.6z"/>
	<path class="st0" d="M246.4,311.4c-0.1,0-0.3,0-0.4,0c-0.1,0-0.2-0.1-0.4-0.1s-0.2-0.1-0.3-0.2s-0.2-0.2-0.3-0.2s-0.2-0.2-0.2-0.3
		c-0.1-0.1-0.1-0.2-0.2-0.3c-0.1-0.1-0.1-0.2-0.1-0.4c0-0.1,0-0.3,0-0.4s0-0.3,0-0.4s0.1-0.2,0.1-0.4c0.1-0.1,0.1-0.2,0.2-0.4
		c0.1-0.1,0.2-0.2,0.2-0.3s0.2-0.2,0.3-0.2c0.1-0.1,0.2-0.1,0.3-0.2s0.2-0.1,0.4-0.1c0.6-0.1,1.3,0.1,1.8,0.5
		c0.1,0.1,0.2,0.2,0.2,0.3c0.1,0.1,0.1,0.2,0.2,0.4c0.1,0.1,0.1,0.2,0.1,0.4c0,0.1,0,0.3,0,0.4s0,0.3,0,0.4s-0.1,0.2-0.1,0.4
		c-0.1,0.1-0.1,0.2-0.2,0.3c-0.1,0.1-0.2,0.2-0.2,0.3C247.4,311.1,246.9,311.4,246.4,311.4z"/>
	<path class="st0" d="M1389,311.3c-0.3,0-0.5,0-0.8-0.1s-0.5-0.2-0.7-0.4s-0.3-0.4-0.4-0.6s-0.2-0.5-0.2-0.8c0-0.5,0.2-1,0.6-1.4
		c0.1-0.1,0.2-0.2,0.3-0.2c0.1-0.1,0.2-0.1,0.3-0.2s0.2-0.1,0.4-0.1c0.3,0,0.5,0,0.8,0c0.1,0,0.3,0.1,0.4,0.1s0.2,0.1,0.3,0.2
		c0.1,0.1,0.2,0.2,0.3,0.2c0.4,0.4,0.6,0.9,0.6,1.4c0,0.3-0.1,0.5-0.2,0.8s-0.2,0.5-0.4,0.6C1390,311.1,1389.5,311.3,1389,311.3
		L1389,311.3z"/>
	<path class="st0" d="M1272.1,423.2L1272.1,423.2c-1.1,0-2-0.9-2-2s0.9-2,2-2s2,0.9,2,2S1273.2,423.2,1272.1,423.2z M1282.2,423.2
		L1282.2,423.2c-1.1,0-2-0.9-2-2s0.9-2,2-2s2,0.9,2,2S1283.3,423.2,1282.2,423.2z M1262.1,422.3c-0.2,0-0.3,0-0.5-0.1
		c-1.1-0.3-1.7-1.4-1.5-2.4s1.2-1.6,2.2-1.5s1.8,1,1.8,2C1264.1,421.4,1263.2,422.3,1262.1,422.3L1262.1,422.3z M1292.1,422.3
		c-0.9,0-1.7-0.6-1.9-1.5c-0.3-1.1,0.4-2.2,1.5-2.4c0.2,0,0.3-0.1,0.5-0.1c1.1,0,2,0.9,2,2c0,1-0.8,1.9-1.8,2
		C1292.3,422.3,1292.2,422.3,1292.1,422.3L1292.1,422.3z M1252.2,420.5c-0.1,0-0.2,0-0.4,0c-0.9-0.2-1.6-1-1.6-2c0-1.1,0.9-2,2-2
		c0.2,0,0.4,0,0.6,0.1c1.1,0.4,1.6,1.5,1.3,2.5C1253.8,420,1253.1,420.5,1252.2,420.5L1252.2,420.5z M1302,420.5c-1.1,0-2-0.9-2-2
		c0-1,0.7-1.8,1.6-2c1-0.2,1.9,0.4,2.3,1.3c0.3,1-0.2,2.2-1.3,2.5C1302.5,420.4,1302.2,420.5,1302,420.5L1302,420.5z M1242.6,417.8
		c-0.2,0-0.4,0-0.6-0.1c-1-0.3-1.6-1.4-1.4-2.4c0.3-1.1,1.4-1.7,2.4-1.5c0.1,0,0.1,0,0.2,0c1.1,0.4,1.6,1.5,1.3,2.5
		C1244.2,417.3,1243.4,417.8,1242.6,417.8L1242.6,417.8z M1311.7,417.8c-0.9,0-1.7-0.6-1.9-1.5c-0.3-1,0.3-2.1,1.4-2.4
		s2.1,0.2,2.5,1.3c0.3,1-0.2,2.2-1.3,2.5c-0.1,0-0.1,0-0.2,0C1312,417.8,1311.9,417.8,1311.7,417.8L1311.7,417.8z M1233.2,414.3
		c-0.2,0-0.4,0-0.6-0.1s-0.3-0.1-0.5-0.2c-0.9-0.6-1.2-1.9-0.6-2.8c0.6-0.8,1.6-1.1,2.5-0.7s1.4,1.5,1.1,2.5
		C1234.8,413.8,1234,414.3,1233.2,414.3L1233.2,414.3z M1321.1,414.3c-0.7,0-1.3-0.3-1.7-0.9c-0.6-0.9-0.4-2.2,0.6-2.8
		c0.2-0.1,0.3-0.2,0.5-0.2c1.1-0.4,2.2,0.2,2.5,1.3c0.3,1-0.2,2-1.1,2.5C1321.7,414.2,1321.4,414.2,1321.1,414.3L1321.1,414.3z
		 M1224.1,409.9c-0.3,0-0.6-0.1-0.9-0.2c-0.8-0.5-1.3-1.5-1-2.4c0.3-1,1.5-1.6,2.5-1.3c0.2,0.1,0.3,0.1,0.5,0.2
		c0.9,0.6,1.2,1.9,0.6,2.8C1225.4,409.6,1224.8,409.9,1224.1,409.9L1224.1,409.9z M1330.1,409.9c-0.8,0-1.6-0.5-1.9-1.4s0.1-2,1-2.4
		c0.9-0.5,2-0.2,2.6,0.6c0.6,0.9,0.4,2.2-0.6,2.8c-0.2,0.1-0.3,0.2-0.5,0.2C1330.6,409.8,1330.3,409.9,1330.1,409.9L1330.1,409.9z
		 M1215.5,404.8c-0.4,0-0.8-0.1-1.1-0.3l0,0c-0.9-0.6-1.2-1.9-0.6-2.8s1.8-1.2,2.8-0.5c0.9,0.6,1.2,1.9,0.6,2.8
		C1216.8,404.5,1216.2,404.8,1215.5,404.8L1215.5,404.8z M1338.7,404.7c-0.7,0-1.3-0.3-1.7-0.9c-0.6-0.9-0.4-2.2,0.6-2.8
		c0.9-0.6,2.2-0.4,2.8,0.5c0.6,0.9,0.4,2.2-0.6,2.8l0,0C1339.5,404.6,1339.1,404.7,1338.7,404.7L1338.7,404.7z M1207.4,398.9
		c-0.4,0-0.8-0.1-1.1-0.3c-0.1-0.1-0.2-0.2-0.3-0.3c-0.8-0.8-0.8-2,0-2.8c0.7-0.7,1.9-0.8,2.6-0.2c0.8,0.6,1,1.8,0.4,2.7
		C1208.7,398.6,1208,398.9,1207.4,398.9L1207.4,398.9z M1346.9,398.8c-0.5,0-1-0.2-1.4-0.6c-0.8-0.8-0.8-2,0-2.8
		c0.1-0.1,0.2-0.2,0.3-0.3c0.9-0.6,2.2-0.4,2.8,0.5c0.6,0.9,0.4,2.1-0.4,2.7C1347.7,398.7,1347.3,398.8,1346.9,398.8L1346.9,398.8z
		 M1199.8,392.3c-0.5,0-1-0.2-1.4-0.6l0,0c-0.8-0.8-0.8-2,0-2.8s2.1-0.8,2.8,0s0.8,2,0,2.8C1200.9,392.1,1200.3,392.3,1199.8,392.3
		L1199.8,392.3z M1354.4,392.2c-0.5,0-1-0.2-1.4-0.6c-0.8-0.8-0.8-2,0-2.8s2.1-0.8,2.8,0c0.8,0.8,0.8,2,0,2.8l0,0
		C1355.4,392,1354.9,392.2,1354.4,392.2L1354.4,392.2z M1192.9,385c-0.6,0-1.1-0.2-1.5-0.7c-0.6-0.7-0.7-1.7-0.2-2.5
		c0.6-0.9,1.8-1.2,2.8-0.5c0.2,0.1,0.4,0.3,0.6,0.6c0.6,0.9,0.4,2.2-0.6,2.8C1193.7,384.9,1193.3,385,1192.9,385L1192.9,385z
		 M1361.4,385c-0.7,0-1.3-0.3-1.7-0.9c-0.5-0.8-0.4-1.8,0.2-2.5c0.7-0.7,1.8-0.9,2.6-0.3c0.9,0.6,1.2,1.9,0.6,2.8
		c-0.2,0.2-0.3,0.4-0.6,0.6C1362.1,384.8,1361.7,385,1361.4,385L1361.4,385z M1186.6,377.2c-0.6,0-1.2-0.3-1.6-0.8
		c-0.6-0.8-0.6-1.9,0.2-2.6c0.8-0.8,2.1-0.8,2.8,0c0.1,0.1,0.2,0.2,0.3,0.3c0.6,0.9,0.4,2.2-0.6,2.8
		C1187.4,377.1,1187,377.2,1186.6,377.2L1186.6,377.2z M1367.6,377.1c-0.5,0-1-0.2-1.4-0.6c-0.7-0.7-0.8-1.9-0.2-2.6
		c0.6-0.8,1.8-1,2.7-0.4c0.9,0.6,1.2,1.9,0.6,2.8c-0.1,0.1-0.2,0.2-0.3,0.3C1368.6,376.9,1368.1,377.1,1367.6,377.1L1367.6,377.1z
		 M1181.1,368.8c-0.7,0-1.3-0.3-1.7-0.9c-0.1-0.1-0.2-0.3-0.2-0.5c-0.3-1,0.2-2.2,1.3-2.5c0.9-0.3,1.9,0.1,2.4,1s0.2,2-0.7,2.6
		C1181.8,368.7,1181.4,368.8,1181.1,368.8L1181.1,368.8z M1373.2,368.8c-0.2,0-0.4,0-0.6-0.1c-1.1-0.4-1.6-1.5-1.3-2.5
		c0.1-0.2,0.1-0.3,0.2-0.5c0.6-0.9,1.8-1.2,2.8-0.5c0.9,0.6,1.1,1.7,0.7,2.6C1374.6,368.4,1373.9,368.8,1373.2,368.8L1373.2,368.8z
		 M1176.3,360c-0.8,0-1.5-0.5-1.8-1.2c-0.4-0.9-0.1-2,0.7-2.5c0.9-0.6,2.2-0.4,2.8,0.5c0.1,0.1,0.2,0.3,0.2,0.5
		c0.3,1-0.2,2.2-1.3,2.5C1176.7,360,1176.5,360,1176.3,360L1176.3,360z M1377.9,359.9c-0.4,0-0.8-0.1-1.1-0.3
		c-0.8-0.5-1.1-1.6-0.7-2.5s1.5-1.4,2.4-1.1c1.1,0.4,1.6,1.5,1.3,2.5c-0.1,0.2-0.1,0.3-0.2,0.5
		C1379.2,359.6,1378.6,359.9,1377.9,359.9L1377.9,359.9z M1172.3,350.8c-0.8,0-1.6-0.5-1.9-1.2c-0.4-1,0-2.1,1-2.5
		c1-0.5,2.2-0.1,2.7,0.9c0,0.1,0.1,0.2,0.1,0.3c0.3,1-0.2,2.2-1.3,2.5C1172.8,350.8,1172.5,350.8,1172.3,350.8z M1381.9,350.7
		c-0.3,0-0.6-0.1-0.9-0.2c-0.9-0.5-1.3-1.6-1-2.5c0.4-1,1.5-1.5,2.5-1.1c1.1,0.4,1.6,1.5,1.3,2.5c0,0.1-0.1,0.2-0.1,0.3
		C1383.3,350.3,1382.6,350.7,1381.9,350.7L1381.9,350.7z M1169.2,341.2c-0.8,0-1.6-0.5-1.9-1.4c0,0,0-0.1-0.1-0.2
		c-0.3-1.1,0.4-2.2,1.5-2.4c1-0.3,2.1,0.4,2.4,1.4s-0.2,2.1-1.3,2.5C1169.6,341.2,1169.4,341.2,1169.2,341.2L1169.2,341.2z
		 M1385,341.1c-0.2,0-0.3,0-0.5-0.1c-1.1-0.3-1.7-1.4-1.5-2.4c0,0,0-0.1,0.1-0.2c0.3-1,1.5-1.6,2.5-1.3c1,0.3,1.6,1.4,1.3,2.5
		C1386.7,340.6,1385.9,341.1,1385,341.1L1385,341.1z M1167,331.5c-0.8,0-1.6-0.5-1.9-1.4c-0.1-0.2-0.1-0.4-0.1-0.6c0-1.1,0.9-2,2-2
		c1,0,1.8,0.7,2,1.6c0.2,1-0.4,2-1.3,2.3C1167.4,331.4,1167.2,331.5,1167,331.5L1167,331.5z M1387.2,331.4c-1.1,0-2-0.9-2-2
		c0-0.2,0-0.4,0.1-0.6c0.3-1,1.5-1.6,2.5-1.3c1,0.3,1.5,1.3,1.3,2.3C1389,330.6,1388.2,331.4,1387.2,331.4L1387.2,331.4z
		 M1165.6,321.5c-1,0-1.9-0.8-2-1.8s0.5-1.9,1.5-2.2c1.1-0.3,2.2,0.4,2.4,1.5c0,0.2,0.1,0.3,0.1,0.5
		C1167.6,320.6,1166.7,321.5,1165.6,321.5L1165.6,321.5z M1388.6,321.4c-0.2,0-0.3,0-0.5-0.1c-1-0.2-1.6-1.2-1.5-2.2s1-1.8,2-1.8
		c1.1,0,2,0.9,2,2c0,0.2,0,0.3-0.1,0.5C1390.3,320.8,1389.5,321.4,1388.6,321.4z"/>
	<path class="st0" d="M1165.2,311.3c-0.3,0-0.5,0-0.8-0.1c-0.2-0.1-0.5-0.2-0.7-0.4c-0.1-0.1-0.2-0.2-0.2-0.3
		c-0.1-0.1-0.1-0.2-0.2-0.3s-0.1-0.2-0.1-0.4s0-0.3,0-0.4s0-0.3,0-0.4s0.1-0.2,0.1-0.4c0-0.1,0.1-0.2,0.2-0.4
		c0.1-0.1,0.2-0.2,0.2-0.3c0.1-0.1,0.2-0.2,0.3-0.2c0.1-0.1,0.2-0.1,0.3-0.2s0.2-0.1,0.4-0.1c0.3,0,0.5,0,0.8,0
		c0.1,0,0.3,0.1,0.4,0.1s0.2,0.1,0.3,0.2c0.1,0.1,0.2,0.2,0.3,0.2c0.1,0.1,0.2,0.2,0.2,0.3c0.1,0.1,0.1,0.2,0.2,0.4s0.1,0.2,0.1,0.4
		c0,0.1,0,0.3,0,0.4s0,0.3,0,0.4s-0.1,0.2-0.1,0.4s-0.1,0.2-0.2,0.3c-0.1,0.1-0.2,0.2-0.2,0.3
		C1166.2,311.1,1165.7,311.3,1165.2,311.3z"/>
	<path class="st0" d="M474.9,311.4c-0.3,0-0.5-0.1-0.8-0.2s-0.5-0.2-0.6-0.4c-0.1-0.1-0.2-0.2-0.2-0.3c-0.1-0.1-0.1-0.2-0.2-0.3
		s-0.1-0.2-0.1-0.4c0-0.1,0-0.3,0-0.4s0-0.3,0-0.4s0.1-0.2,0.1-0.4s0.1-0.2,0.2-0.4c0.1-0.1,0.2-0.2,0.2-0.3s0.2-0.2,0.3-0.2
		c0.1-0.1,0.2-0.1,0.3-0.2s0.2-0.1,0.4-0.1c0.2,0,0.5,0,0.8,0c0.1,0,0.2,0.1,0.4,0.1s0.2,0.1,0.4,0.2c0.1,0.1,0.2,0.2,0.3,0.2
		s0.2,0.2,0.2,0.3c0.1,0.1,0.1,0.2,0.2,0.4s0.1,0.2,0.1,0.4c0,0.1,0,0.3,0,0.4s0,0.3,0,0.4s-0.1,0.2-0.1,0.4s-0.1,0.2-0.2,0.3
		c-0.1,0.1-0.2,0.2-0.2,0.3C475.9,311.1,475.4,311.4,474.9,311.4z"/>
	<path class="st0" d="M358,423.2L358,423.2c-1.1,0-2-0.9-2-2s0.9-2,2-2s2,0.9,2,2S359.1,423.2,358,423.2z M368,423.2L368,423.2
		c-1.1,0-2-0.9-2-2s0.9-2,2-2s2,0.9,2,2S369.1,423.2,368,423.2z M348,422.3c-0.2,0-0.4,0-0.6-0.1c-1-0.4-1.6-1.5-1.3-2.5
		c0.3-0.9,1.2-1.5,2.1-1.4c1,0.1,1.8,1,1.8,2C350,421.4,349.1,422.3,348,422.3L348,422.3z M378,422.3c-0.8,0-1.6-0.5-1.9-1.4
		c-0.4-1,0.2-2.2,1.3-2.5c0.2-0.1,0.4-0.1,0.6-0.1c1.1,0,2,0.9,2,2c0,1-0.8,1.9-1.8,2C378.2,422.3,378.1,422.3,378,422.3L378,422.3z
		 M338.1,420.5c-0.1,0-0.2,0-0.4,0c-0.9-0.2-1.6-1-1.6-2c0-1.1,0.9-2,2-2c0.2,0,0.4,0,0.6,0.1c1.1,0.3,1.7,1.4,1.4,2.5
		C339.8,419.9,339,420.5,338.1,420.5z M387.9,420.5c-1.1,0-2-0.9-2-2c0-1,0.7-1.8,1.6-2c1-0.2,2,0.4,2.3,1.4
		c0.3,1.1-0.3,2.2-1.4,2.5C388.3,420.5,388.1,420.5,387.9,420.5z M328.4,417.8c-0.2,0-0.4,0-0.5-0.1h-0.1c-1-0.4-1.6-1.5-1.3-2.5
		c0.4-1,1.5-1.6,2.5-1.3c1,0.3,1.6,1.5,1.3,2.5C330.1,417.3,329.3,417.8,328.4,417.8L328.4,417.8z M397.6,417.8
		c-0.8,0-1.6-0.5-1.9-1.4c-0.4-1,0.2-2.2,1.3-2.5l1.3,3.8C398,417.8,397.8,417.8,397.6,417.8L397.6,417.8z M398.1,417.7L398.1,417.7
		L398.1,417.7z M319,414.3c-0.2,0-0.4,0-0.6-0.1c-0.1,0-0.2-0.1-0.4-0.2c-1-0.5-1.3-1.8-0.7-2.7c0.5-0.9,1.6-1.2,2.5-0.8
		c1,0.4,1.4,1.5,1.1,2.5C320.7,413.8,319.9,414.3,319,414.3L319,414.3z M407,414.3c-0.7,0-1.4-0.4-1.7-1c-0.5-1-0.2-2.2,0.7-2.7
		c0.1-0.1,0.2-0.1,0.4-0.2c1-0.3,2.2,0.2,2.5,1.3c0.3,1-0.2,2.1-1.1,2.5C407.5,414.2,407.2,414.3,407,414.3L407,414.3z M310,409.9
		c-0.3,0-0.6-0.1-0.9-0.2c-0.9-0.5-1.3-1.5-1-2.4c0.4-1,1.5-1.6,2.5-1.3c0.2,0.1,0.3,0.1,0.5,0.2c0.9,0.6,1.2,1.9,0.5,2.8
		C311.3,409.6,310.6,409.9,310,409.9L310,409.9z M416,409.9c-0.8,0-1.6-0.5-1.9-1.4s0.1-2,1-2.4c0.9-0.5,2-0.2,2.6,0.6
		c0.6,0.9,0.4,2.2-0.5,2.8c-0.1,0.1-0.3,0.2-0.5,0.2C416.4,409.9,416.2,409.9,416,409.9L416,409.9z M301.4,404.8
		c-0.4,0-0.8-0.1-1.1-0.3l-0.1-0.1c-0.9-0.7-1-2-0.3-2.8s1.9-1,2.7-0.4c0.9,0.6,1.1,1.8,0.5,2.7C302.7,404.5,302,404.8,301.4,404.8
		L301.4,404.8z M424.6,404.7c-0.6,0-1.2-0.3-1.6-0.8c-0.7-0.9-0.5-2.1,0.3-2.8l0.1-0.1c0.9-0.6,2.2-0.4,2.8,0.5
		c0.6,0.9,0.4,2.1-0.5,2.7C425.4,404.6,425,404.7,424.6,404.7L424.6,404.7z M293.3,398.9c-0.4,0-0.8-0.1-1.2-0.4
		c-0.9-0.6-1.1-1.8-0.5-2.7c0.6-0.9,1.9-1.2,2.8-0.5l0.1,0.1c0.9,0.7,1,2,0.3,2.8C294.4,398.6,293.8,398.9,293.3,398.9L293.3,398.9z
		 M432.7,398.8c-0.6,0-1.3-0.3-1.7-0.9c-0.6-0.9-0.4-2.1,0.5-2.7s2.1-0.5,2.8,0.4c0.7,0.9,0.5,2.1-0.3,2.8l-0.1,0.1
		C433.5,398.7,433.1,398.8,432.7,398.8L432.7,398.8z M285.7,392.3c-0.4,0-0.9-0.1-1.2-0.4c-0.1-0.1-0.2-0.2-0.3-0.3
		c-0.7-0.9-0.6-2.1,0.3-2.8c0.8-0.7,1.9-0.6,2.7,0.1c0.8,0.7,0.8,1.9,0.2,2.7C286.9,392,286.3,392.3,285.7,392.3L285.7,392.3z
		 M440.3,392.2c-0.5,0-0.9-0.1-1.3-0.5c-0.9-0.7-1-2-0.3-2.8c0.1-0.1,0.2-0.2,0.3-0.3c0.9-0.7,2.1-0.5,2.8,0.3
		c0.7,0.8,0.6,2-0.2,2.7C441.3,392,440.8,392.2,440.3,392.2L440.3,392.2z M278.8,385c-0.6,0-1.1-0.2-1.5-0.7c-0.7-0.8-0.7-2,0.1-2.7
		c0.8-0.8,2-0.8,2.8,0l0.1,0.1c0.7,0.9,0.6,2.1-0.3,2.8C279.7,384.9,279.2,385,278.8,385L278.8,385z M447.2,385
		c-0.5,0-1-0.2-1.4-0.6c-0.8-0.8-0.8-2-0.1-2.7c0.7-0.8,2-0.9,2.8-0.2c0.9,0.7,1,2,0.3,2.8l-0.1,0.1
		C448.3,384.8,447.8,385,447.2,385L447.2,385z M272.5,377.2c-0.6,0-1.2-0.3-1.6-0.8c-0.6-0.8-0.6-1.9,0.2-2.6c0.8-0.8,2-0.8,2.8,0
		c0.1,0.1,0.2,0.2,0.3,0.3c0.6,0.9,0.4,2.2-0.5,2.8C273.3,377.1,272.9,377.2,272.5,377.2L272.5,377.2z M453.5,377.1
		c-0.5,0-1-0.2-1.4-0.6c-0.7-0.7-0.8-1.9-0.2-2.6c0.6-0.8,1.8-1,2.7-0.4c0.9,0.6,1.2,1.9,0.5,2.8c-0.1,0.1-0.2,0.2-0.3,0.3
		C454.5,376.9,454,377.1,453.5,377.1L453.5,377.1z M266.9,368.8c-0.6,0-1.3-0.3-1.7-0.9c0-0.1-0.1-0.1-0.1-0.2
		c-0.5-1-0.1-2.2,0.9-2.7c0.9-0.5,2.1-0.1,2.6,0.8s0.3,2.1-0.6,2.7C267.7,368.7,267.3,368.9,266.9,368.8L266.9,368.8z M459,368.8
		c-0.3,0-0.6-0.1-0.9-0.2c-1-0.5-1.4-1.7-0.9-2.7c0-0.1,0.1-0.1,0.1-0.2c0.6-0.9,1.9-1.2,2.8-0.5s1.1,1.8,0.6,2.7
		C460.4,368.4,459.7,368.8,459,368.8L459,368.8z M262.2,360c-0.7,0-1.4-0.4-1.8-1.1l0,0c-0.5-1-0.1-2.2,0.9-2.7s2.2-0.1,2.7,0.9
		s0.1,2.2-0.9,2.7C262.8,359.9,262.5,360,262.2,360L262.2,360z M463.8,359.9c-0.3,0-0.6-0.1-0.9-0.2c-1-0.5-1.4-1.7-0.9-2.7
		s1.7-1.4,2.7-0.9s1.4,1.7,0.9,2.7l0,0C465.3,359.5,464.6,359.9,463.8,359.9L463.8,359.9z M467.8,350.7c-0.2,0-0.5,0-0.7-0.1
		c-1-0.4-1.6-1.5-1.2-2.6c0.4-1,1.5-1.5,2.5-1.2c1,0.4,1.6,1.5,1.2,2.5v0.1C469.3,350.2,468.6,350.7,467.8,350.7L467.8,350.7z
		 M256.3,349.5c-0.4-1,0.1-2.2,1.2-2.6c1-0.4,2.2,0.1,2.6,1.2L256.3,349.5L256.3,349.5z M255.1,341.2c-0.8,0-1.6-0.5-1.9-1.4
		c0-0.1-0.1-0.3-0.1-0.4c-0.1-1.1,0.6-2.1,1.7-2.2c1-0.1,2,0.5,2.2,1.5s-0.3,2-1.3,2.4C255.5,341.2,255.3,341.2,255.1,341.2
		L255.1,341.2z M470.9,341.1c-0.1,0-0.2,0-0.2,0c-1.1-0.1-1.9-1.1-1.7-2.2c0-0.1,0-0.3,0.1-0.4c0.4-1,1.5-1.6,2.5-1.3
		c1,0.3,1.6,1.4,1.3,2.4C472.6,340.5,471.8,341.1,470.9,341.1L470.9,341.1z M252.9,331.5c-0.9,0-1.8-0.7-2-1.6
		c-0.2-1,0.4-2.1,1.5-2.3c1.1-0.3,2.2,0.4,2.4,1.5c0,0,0,0.1,0,0.2c0.2,1.1-0.6,2.1-1.6,2.3C253.1,331.5,253,331.5,252.9,331.5
		L252.9,331.5z M473.1,331.4c-0.2,0-0.3,0-0.5-0.1c-1-0.3-1.7-1.3-1.5-2.3c0.2-1.1,1.2-1.8,2.3-1.6c1.1,0.2,1.8,1.2,1.6,2.3
		c0,0,0,0.1,0,0.2C474.8,330.8,474,331.4,473.1,331.4L473.1,331.4z M251.5,321.5c-1,0-1.8-0.7-2-1.7c0-0.1,0-0.2,0-0.3
		c0-1.1,0.9-2,2-2c1,0,1.9,0.8,2,1.8s-0.6,2-1.7,2.2C251.7,321.5,251.6,321.5,251.5,321.5L251.5,321.5z M474.5,321.4
		c-1.1,0-2-0.9-2-2c0-0.1,0-0.2,0-0.3c0.2-1.1,1.2-1.8,2.3-1.6c1,0.2,1.8,1.1,1.7,2.2C476.4,320.6,475.5,321.4,474.5,321.4
		L474.5,321.4z"/>
	<path class="st0" d="M251,311.4c-0.5,0-1-0.2-1.4-0.6c-0.1-0.1-0.2-0.2-0.2-0.3c-0.1-0.1-0.1-0.2-0.2-0.3c-0.1-0.1-0.1-0.2-0.1-0.4
		c0-0.1,0-0.3,0-0.4s0-0.3,0-0.4s0.1-0.2,0.1-0.4c0.1-0.1,0.1-0.2,0.2-0.4c0.1-0.1,0.2-0.2,0.2-0.3c0.7-0.7,2.1-0.8,2.8,0
		c0.1,0.1,0.2,0.2,0.2,0.3c0.1,0.1,0.1,0.2,0.2,0.4c0.1,0.1,0.1,0.2,0.1,0.4c0,0.1,0,0.3,0,0.4s0,0.3,0,0.4s-0.1,0.2-0.1,0.4
		c-0.1,0.1-0.1,0.2-0.2,0.3c-0.1,0.1-0.2,0.2-0.2,0.3c-0.2,0.2-0.4,0.3-0.6,0.4C251.6,311.3,251.3,311.4,251,311.4L251,311.4z"/>
	<path class="st0" d="M1393.7,311.4c-0.3,0-0.5-0.1-0.8-0.2s-0.5-0.2-0.7-0.4c-0.1-0.1-0.2-0.2-0.2-0.3c-0.1-0.1-0.1-0.2-0.2-0.3
		s-0.1-0.2-0.1-0.4c0-0.1,0-0.3,0-0.4c0-0.5,0.2-1,0.6-1.4c0.5-0.5,1.2-0.7,1.8-0.5c0.1,0,0.2,0.1,0.4,0.1s0.2,0.1,0.3,0.2
		c0.1,0.1,0.2,0.2,0.3,0.2c0.4,0.4,0.6,0.9,0.6,1.4c0,0.1,0,0.3,0,0.4s-0.1,0.2-0.1,0.4s-0.1,0.2-0.2,0.3c-0.1,0.1-0.2,0.2-0.2,0.3
		c-0.2,0.2-0.4,0.3-0.7,0.4S1393.9,311.4,1393.7,311.4L1393.7,311.4z"/>
	<path class="st0" d="M1394.1,301.3c-1.1,0-2-0.9-2-2c0-0.2,0-0.3,0.1-0.5c0.3-1.1,1.4-1.7,2.4-1.5s1.6,1.2,1.5,2.2
		S1395.2,301.3,1394.1,301.3L1394.1,301.3z M1617.1,301.2c-0.9,0-1.7-0.6-1.9-1.5c0-0.2-0.1-0.3-0.1-0.5c0-1.1,0.9-2,2-2
		c1,0,1.9,0.8,2,1.8s-0.5,1.9-1.5,2.2C1617.4,301.2,1617.2,301.2,1617.1,301.2z M1395.5,291.4c-0.2,0-0.4,0-0.6-0.1
		c-1-0.3-1.5-1.3-1.3-2.3c0.2-0.9,1-1.6,2-1.6c1.1,0,2,0.9,2,2c0,0.2,0,0.4-0.1,0.6C1397.1,290.8,1396.3,291.4,1395.5,291.4
		L1395.5,291.4z M1615.7,291.3c-1,0-1.8-0.7-2-1.6c-0.2-1,0.4-2,1.3-2.3c1.1-0.4,2.2,0.2,2.5,1.3c0.1,0.2,0.1,0.4,0.1,0.6
		C1617.7,290.3,1616.8,291.2,1615.7,291.3L1615.7,291.3z M1397.7,281.6c-0.2,0-0.4,0-0.6-0.1c-1-0.3-1.6-1.4-1.3-2.5
		c0.3-1,1.4-1.6,2.4-1.4c1.1,0.3,1.7,1.4,1.5,2.4c0,0,0,0.1-0.1,0.2C1399.3,281.1,1398.5,281.6,1397.7,281.6L1397.7,281.6z
		 M1613.5,281.5c-0.9,0-1.7-0.6-1.9-1.4c-0.3-1,0.2-2.1,1.3-2.5c1.1-0.4,2.2,0.2,2.5,1.3c0,0,0,0.1,0.1,0.2c0.3,1.1-0.4,2.2-1.5,2.4
		C1613.8,281.5,1613.7,281.5,1613.5,281.5L1613.5,281.5z M1400.8,272c-0.2,0-0.4,0-0.6-0.1c-1.1-0.4-1.6-1.5-1.3-2.5
		c0-0.1,0.1-0.2,0.1-0.3c0.5-1,1.7-1.4,2.7-0.9c0.9,0.5,1.3,1.6,1,2.5C1402.4,271.6,1401.6,272,1400.8,272z M1610.4,271.9
		c-0.7,0-1.4-0.4-1.8-1.1c0-0.1-0.1-0.2-0.1-0.3c-0.3-1,0.2-2.2,1.3-2.5c1-0.3,2.1,0.2,2.5,1.1c0.4,1,0,2.1-1,2.5
		C1611,271.9,1610.7,271.9,1610.4,271.9L1610.4,271.9z M1404.8,262.8c-0.2,0-0.4,0-0.6-0.1c-1.1-0.4-1.6-1.5-1.3-2.5
		c0.1-0.2,0.1-0.3,0.2-0.5c0.6-0.9,1.8-1.2,2.8-0.5c0.8,0.5,1.1,1.6,0.7,2.5C1406.3,262.4,1405.5,262.8,1404.8,262.8L1404.8,262.8z
		 M1606.4,262.7c-0.7,0-1.3-0.3-1.7-0.9c-0.1-0.1-0.2-0.3-0.2-0.5c-0.3-1.1,0.2-2.2,1.3-2.5c1-0.3,2,0.1,2.4,1.1
		c0.4,0.9,0.1,1.9-0.7,2.5C1607.2,262.6,1606.8,262.7,1606.4,262.7L1606.4,262.7z M1409.5,254c-0.4,0-0.8-0.1-1.1-0.3
		c-0.9-0.6-1.1-1.7-0.7-2.6c0.4-0.9,1.5-1.3,2.4-1c1.1,0.4,1.6,1.5,1.3,2.5c-0.1,0.2-0.1,0.3-0.2,0.5
		C1410.8,253.7,1410.2,254,1409.5,254L1409.5,254z M1601.7,253.9c-0.7,0-1.4-0.4-1.8-1.1c-0.5-0.9-0.2-2,0.7-2.6
		c0.9-0.6,2.2-0.4,2.8,0.6c0.1,0.1,0.2,0.3,0.2,0.5c0.3,1.1-0.2,2.2-1.3,2.5C1602.1,253.9,1601.9,253.9,1601.7,253.9L1601.7,253.9z
		 M1415.1,245.6c-0.4,0-0.8-0.1-1.1-0.3c-0.9-0.6-1.2-1.9-0.6-2.8c0.1-0.1,0.2-0.2,0.3-0.3c0.8-0.8,2.1-0.8,2.8,0
		c0.7,0.7,0.8,1.9,0.2,2.6C1416.3,245.3,1415.7,245.6,1415.1,245.6z M1596.1,245.5c-0.5,0-1-0.2-1.4-0.6c-0.1-0.1-0.2-0.2-0.3-0.3
		c-0.6-0.9-0.4-2.2,0.6-2.8c0.9-0.6,2.1-0.4,2.7,0.4c0.6,0.8,0.6,1.9-0.2,2.6C1597.1,245.3,1596.6,245.5,1596.1,245.5L1596.1,245.5z
		 M1421.4,237.8c-0.4,0-0.8-0.1-1.1-0.3c-0.9-0.6-1.2-1.9-0.6-2.8c0.2-0.2,0.3-0.4,0.6-0.6c0.9-0.6,2.2-0.4,2.8,0.6
		c0.5,0.8,0.4,1.8-0.2,2.5C1422.4,237.5,1421.9,237.8,1421.4,237.8L1421.4,237.8z M1589.8,237.7c-0.4,0-0.8-0.1-1.1-0.3
		c-0.2-0.1-0.4-0.3-0.6-0.6c-0.6-0.9-0.4-2.2,0.6-2.8c0.8-0.6,1.9-0.4,2.6,0.3c0.6,0.7,0.7,1.7,0.2,2.5
		C1591.1,237.4,1590.5,237.7,1589.8,237.7L1589.8,237.7z M1428.3,230.5c-0.5,0-1-0.2-1.4-0.6c-0.8-0.8-0.8-2,0-2.8l0,0
		c0.8-0.8,2.1-0.8,2.8,0s0.8,2.1,0,2.8C1429.3,230.3,1428.8,230.5,1428.3,230.5L1428.3,230.5z M1582.9,230.4c-0.5,0-1-0.2-1.4-0.6
		c-0.8-0.8-0.8-2.1,0-2.8s2-0.8,2.8,0l0,0c0.8,0.8,0.8,2.1,0,2.8C1583.9,230.2,1583.4,230.4,1582.9,230.4L1582.9,230.4z
		 M1435.8,223.9c-0.7,0-1.3-0.3-1.7-0.9c-0.6-0.9-0.4-2.1,0.4-2.7c0.8-0.6,1.9-0.6,2.6,0.2c0.8,0.8,0.8,2.1,0,2.8
		c-0.1,0.1-0.2,0.2-0.3,0.3C1436.6,223.8,1436.2,223.9,1435.8,223.9L1435.8,223.9z M1575.3,223.8c-0.4,0-0.9-0.1-1.2-0.4
		c-0.8-0.6-1-1.8-0.4-2.7s1.8-1.2,2.8-0.6c0.1,0.1,0.2,0.2,0.3,0.3c0.8,0.8,0.8,2.1,0,2.8C1576.3,223.7,1575.8,223.9,1575.3,223.8
		L1575.3,223.8z M1444,218c-0.7,0-1.3-0.3-1.7-0.9c-0.6-0.9-0.4-2.2,0.6-2.8l0,0c0.9-0.6,2.2-0.4,2.8,0.6s0.4,2.2-0.6,2.8
		C1444.7,217.9,1444.3,218,1444,218L1444,218z M1567.2,217.9c-0.4,0-0.8-0.1-1.1-0.3c-0.9-0.6-1.2-1.9-0.6-2.8s1.8-1.2,2.8-0.6l0,0
		c0.9,0.6,1.2,1.9,0.6,2.8C1568.5,217.6,1567.8,217.9,1567.2,217.9L1567.2,217.9z M1452.6,212.8c-0.7,0-1.3-0.3-1.7-0.9
		c-0.6-0.9-0.4-2.2,0.6-2.8c0.2-0.1,0.3-0.2,0.5-0.2c1.1-0.4,2.2,0.2,2.5,1.3c0.3,0.9-0.1,1.9-1,2.4
		C1453.2,212.7,1452.9,212.8,1452.6,212.8L1452.6,212.8z M1558.6,212.8c-0.2,0-0.4,0-0.6-0.1s-0.3-0.1-0.5-0.2
		c-0.9-0.6-1.2-1.9-0.6-2.8c0.6-0.9,1.7-1.1,2.6-0.6c0.8,0.4,1.3,1.5,1,2.4C1560.2,212.2,1559.4,212.8,1558.6,212.8L1558.6,212.8z
		 M1461.6,208.4c-0.8,0-1.6-0.5-1.9-1.4c-0.3-1,0.2-2,1.1-2.4s1.9-0.1,2.5,0.7c0.6,0.9,0.4,2.2-0.6,2.8c-0.2,0.1-0.3,0.2-0.5,0.2
		C1462,208.4,1461.8,208.5,1461.6,208.4L1461.6,208.4z M1549.5,208.4c-0.3,0-0.6-0.1-0.8-0.2c-0.9-0.4-1.4-1.5-1.1-2.4
		c0.3-1.1,1.5-1.6,2.5-1.3c0.2,0.1,0.3,0.1,0.5,0.2c0.9,0.6,1.2,1.9,0.6,2.8C1550.8,208.1,1550.2,208.4,1549.5,208.4L1549.5,208.4z
		 M1471,204.9c-0.8,0-1.6-0.5-1.9-1.4c-0.3-1.1,0.2-2.2,1.3-2.5c0.1,0,0.1,0,0.2-0.1c1.1-0.3,2.2,0.4,2.4,1.5c0.3,1-0.3,2.1-1.4,2.4
		C1471.4,204.9,1471.2,204.9,1471,204.9L1471,204.9z M1540.1,204.9c-0.2,0-0.3,0-0.5-0.1c-0.1,0-0.1,0-0.2-0.1
		c-1.1-0.4-1.6-1.5-1.3-2.5c0.3-1,1.4-1.6,2.5-1.3c1,0.3,1.6,1.4,1.4,2.4C1541.8,204.3,1541,204.9,1540.1,204.9L1540.1,204.9z
		 M1480.7,202.2c-0.8,0-1.6-0.5-1.9-1.4c-0.3-1.1,0.2-2.2,1.3-2.5c0.2-0.1,0.4-0.1,0.6-0.1c1.1,0,2,0.9,2,2c0,1-0.7,1.8-1.6,2
		C1480.9,202.2,1480.8,202.2,1480.7,202.2L1480.7,202.2z M1530.5,202.2c-0.2,0-0.4,0-0.6-0.1c-1.1-0.4-1.6-1.5-1.3-2.5
		c0.3-1,1.3-1.5,2.3-1.3c0.9,0.2,1.6,1,1.6,2C1532.5,201.3,1531.6,202.2,1530.5,202.2L1530.5,202.2z M1490.5,200.4c-1.1,0-2-0.9-2-2
		c0-1,0.8-1.9,1.8-2s1.9,0.5,2.2,1.5c0.3,1.1-0.4,2.2-1.5,2.4C1490.9,200.4,1490.7,200.4,1490.5,200.4L1490.5,200.4z M1520.6,200.4
		c-0.1,0-0.2,0-0.2,0c-1-0.1-1.8-1-1.8-2c0-1.1,0.9-2,2-2c0.2,0,0.3,0,0.5,0.1c1.1,0.3,1.7,1.4,1.5,2.4
		C1522.3,199.8,1521.5,200.4,1520.6,200.4L1520.6,200.4z M1500.6,199.6c-1.1,0-2-0.9-2-2s0.9-2,2-2l0,0c1.1,0,2,0.9,2,2
		S1501.7,199.6,1500.6,199.6z M1510.6,199.6c-1.1,0-2-0.9-2-2s0.9-2,2-2l0,0c1.1,0,2,0.9,2,2S1511.7,199.6,1510.6,199.6z"/>
	<path class="st0" d="M1617.6,311.3c-0.1,0-0.3,0-0.4,0s-0.2-0.1-0.4-0.1s-0.2-0.1-0.3-0.2s-0.2-0.2-0.3-0.2
		c-0.1-0.1-0.2-0.2-0.2-0.3c-0.1-0.1-0.1-0.2-0.2-0.3s-0.1-0.2-0.1-0.4c0-0.1,0-0.3,0-0.4s0-0.3,0-0.4s0.1-0.2,0.1-0.4
		s0.1-0.2,0.2-0.3c0.1-0.1,0.2-0.2,0.2-0.3c0.7-0.7,2.1-0.8,2.8,0c0.1,0.1,0.2,0.2,0.2,0.3c0.1,0.1,0.1,0.2,0.2,0.3s0.1,0.2,0.1,0.4
		c0,0.1,0,0.3,0,0.4s0,0.3,0,0.4s-0.1,0.2-0.1,0.4s-0.1,0.2-0.2,0.3c-0.1,0.1-0.2,0.2-0.2,0.3
		C1618.6,311.1,1618.1,311.3,1617.6,311.3L1617.6,311.3z"/>
	<path class="st0" d="M936.6,311.4c-0.5,0-1-0.2-1.4-0.6c-0.1-0.1-0.2-0.2-0.3-0.3c-0.1-0.1-0.1-0.2-0.2-0.3s-0.1-0.2-0.1-0.4
		c0-0.1,0-0.3,0-0.4s0-0.3,0-0.4s0.1-0.2,0.1-0.4s0.1-0.2,0.2-0.4c0.1-0.1,0.2-0.2,0.2-0.3c0.7-0.8,2.1-0.8,2.8,0
		c0.1,0.1,0.2,0.2,0.2,0.3c0.1,0.1,0.1,0.2,0.2,0.4s0.1,0.2,0.1,0.4c0,0.1,0,0.3,0,0.4s0,0.3,0,0.4s-0.1,0.2-0.1,0.4
		s-0.1,0.2-0.2,0.3c-0.1,0.1-0.2,0.2-0.2,0.3c-0.1,0.1-0.2,0.2-0.3,0.2s-0.2,0.1-0.3,0.2c-0.1,0-0.2,0.1-0.4,0.1
		C936.9,311.3,936.8,311.4,936.6,311.4L936.6,311.4z"/>
	<path class="st0" d="M937.1,301.3c-1.1,0-2-0.9-2-2c0-0.2,0-0.3,0.1-0.5c0.3-1.1,1.4-1.7,2.4-1.5s1.6,1.2,1.5,2.2
		S938.1,301.3,937.1,301.3L937.1,301.3z M1160,301.2c-0.9,0-1.7-0.6-1.9-1.5c0-0.2-0.1-0.3-0.1-0.5c0-1.1,0.9-2,2-2
		c1,0,1.9,0.8,2,1.8s-0.5,1.9-1.5,2.2C1160.4,301.2,1160.2,301.2,1160,301.2z M938.4,291.4c-0.2,0-0.4,0-0.6-0.1
		c-1-0.3-1.5-1.3-1.3-2.3c0.2-0.9,1-1.6,2-1.6c1.1,0,2,0.9,2,2c0,0.2,0,0.4-0.1,0.6C940,290.8,939.3,291.4,938.4,291.4L938.4,291.4z
		 M1158.7,291.3c-1,0-1.8-0.7-2-1.6c-0.2-1,0.4-2,1.3-2.3c1.1-0.4,2.2,0.2,2.5,1.3c0.1,0.2,0.1,0.4,0.1,0.6
		C1160.7,290.3,1159.8,291.2,1158.7,291.3L1158.7,291.3z M940.6,281.6c-0.2,0-0.4,0-0.6-0.1c-1-0.3-1.6-1.4-1.3-2.5
		c0.3-1,1.4-1.6,2.4-1.4c1.1,0.3,1.7,1.4,1.5,2.4c0,0,0,0.1,0,0.2C942.3,281.1,941.5,281.6,940.6,281.6L940.6,281.6z M1156.4,281.5
		c-0.9,0-1.7-0.6-1.9-1.4c-0.3-1,0.2-2.1,1.3-2.5c1.1-0.4,2.2,0.2,2.5,1.3c0,0,0,0.1,0.1,0.2c0.3,1.1-0.4,2.2-1.5,2.4
		C1156.8,281.5,1156.6,281.5,1156.4,281.5L1156.4,281.5z M943.8,272c-0.2,0-0.4,0-0.6-0.1c-1-0.4-1.6-1.5-1.3-2.5
		c0-0.1,0.1-0.2,0.1-0.3c0.5-1,1.7-1.4,2.7-0.9c0.9,0.5,1.3,1.6,1,2.5C945.3,271.6,944.6,272,943.8,272z M1153.3,271.9
		c-0.7,0-1.4-0.4-1.8-1.1c0-0.1-0.1-0.2-0.1-0.3c-0.3-1,0.2-2.2,1.3-2.5c1-0.3,2.1,0.2,2.5,1.1c0.4,1,0,2.1-1,2.5
		C1153.9,271.9,1153.6,271.9,1153.3,271.9L1153.3,271.9z M947.7,262.8c-0.2,0-0.4,0-0.6-0.1c-1-0.4-1.6-1.5-1.3-2.5
		c0.1-0.2,0.1-0.3,0.2-0.5c0.6-0.9,1.8-1.2,2.8-0.5c0.8,0.5,1.1,1.6,0.7,2.5C949.2,262.4,948.5,262.8,947.7,262.8L947.7,262.8z
		 M1149.4,262.7c-0.7,0-1.3-0.3-1.7-0.9c-0.1-0.1-0.2-0.3-0.2-0.5c-0.3-1.1,0.2-2.2,1.3-2.5c1-0.3,2,0.1,2.4,1.1
		c0.4,0.9,0.1,1.9-0.7,2.5C1150.1,262.6,1149.7,262.7,1149.4,262.7L1149.4,262.7z M952.5,254c-0.4,0-0.8-0.1-1.1-0.3
		c-0.9-0.6-1.1-1.7-0.7-2.6c0.5-0.9,1.5-1.3,2.4-1c1,0.4,1.6,1.5,1.3,2.5c-0.1,0.2-0.1,0.3-0.2,0.5C953.8,253.7,953.1,254,952.5,254
		L952.5,254z M1144.6,253.9c-0.7,0-1.4-0.4-1.8-1.1c-0.5-0.9-0.2-2,0.7-2.6c0.9-0.6,2.2-0.4,2.8,0.6c0.1,0.1,0.2,0.3,0.2,0.5
		c0.3,1.1-0.2,2.2-1.3,2.5C1145,253.9,1144.8,253.9,1144.6,253.9L1144.6,253.9z M958,245.6c-0.4,0-0.8-0.1-1.1-0.3
		c-0.9-0.6-1.2-1.9-0.5-2.8c0.1-0.1,0.2-0.2,0.3-0.3c0.8-0.8,2-0.8,2.8,0c0.7,0.7,0.8,1.9,0.2,2.6
		C959.2,245.3,958.6,245.6,958,245.6z M1139,245.5c-0.5,0-1-0.2-1.4-0.6c-0.1-0.1-0.2-0.2-0.3-0.3c-0.6-0.9-0.4-2.2,0.6-2.8
		c0.9-0.6,2.1-0.4,2.7,0.4c0.6,0.8,0.6,1.9-0.2,2.6C1140,245.3,1139.5,245.5,1139,245.5L1139,245.5z M964.3,237.8
		c-0.4,0-0.8-0.1-1.1-0.3c-0.9-0.6-1.2-1.9-0.5-2.8c0.2-0.2,0.3-0.4,0.6-0.6c0.9-0.6,2.2-0.4,2.8,0.6c0.5,0.8,0.4,1.8-0.2,2.5
		C965.4,237.5,964.8,237.8,964.3,237.8L964.3,237.8z M1132.8,237.7c-0.4,0-0.8-0.1-1.1-0.3c-0.2-0.1-0.4-0.3-0.6-0.6
		c-0.6-0.9-0.4-2.2,0.6-2.8c0.8-0.6,1.9-0.4,2.6,0.3c0.6,0.7,0.7,1.7,0.2,2.5C1134,237.4,1133.4,237.7,1132.8,237.7L1132.8,237.7z
		 M971.2,230.5c-0.5,0-1-0.2-1.4-0.6c-0.8-0.8-0.8-2,0-2.8l0,0c0.8-0.8,2-0.8,2.8,0s0.8,2.1,0,2.8
		C972.3,230.3,971.7,230.5,971.2,230.5L971.2,230.5z M1125.8,230.4c-0.5,0-1-0.2-1.4-0.6c-0.8-0.8-0.8-2.1,0-2.8s2-0.8,2.8,0l0,0
		c0.8,0.8,0.8,2.1,0,2.8C1126.8,230.2,1126.3,230.4,1125.8,230.4L1125.8,230.4z M978.8,223.9c-0.7,0-1.3-0.3-1.7-0.9
		c-0.6-0.9-0.4-2.1,0.4-2.7c0.8-0.6,1.9-0.6,2.6,0.2c0.8,0.8,0.8,2.1,0,2.8c-0.1,0.1-0.2,0.2-0.3,0.3
		C979.5,223.8,979.2,223.9,978.8,223.9L978.8,223.9z M1118.3,223.8c-0.4,0-0.9-0.1-1.2-0.4c-0.8-0.6-1-1.8-0.4-2.7s1.8-1.2,2.8-0.6
		c0.1,0.1,0.2,0.2,0.3,0.3c0.8,0.8,0.8,2.1,0,2.8C1119.3,223.7,1118.8,223.9,1118.3,223.8L1118.3,223.8z M986.9,218
		c-0.7,0-1.3-0.3-1.7-0.9c-0.6-0.9-0.4-2.2,0.5-2.8l0,0c0.9-0.6,2.2-0.4,2.8,0.6c0.6,0.9,0.4,2.2-0.5,2.8
		C987.7,217.9,987.3,218,986.9,218L986.9,218z M1110.1,217.9c-0.4,0-0.8-0.1-1.1-0.3c-0.9-0.6-1.2-1.9-0.6-2.8s1.8-1.2,2.8-0.6l0,0
		c0.9,0.6,1.2,1.9,0.6,2.8C1111.4,217.6,1110.8,217.9,1110.1,217.9L1110.1,217.9z M995.5,212.8c-0.7,0-1.3-0.3-1.7-0.9
		c-0.6-0.9-0.4-2.2,0.5-2.8c0.2-0.1,0.3-0.2,0.5-0.2c1-0.4,2.2,0.2,2.5,1.3c0.3,0.9-0.1,1.9-1,2.4
		C996.2,212.7,995.8,212.8,995.5,212.8L995.5,212.8z M1101.5,212.8c-0.2,0-0.4,0-0.6-0.1s-0.3-0.1-0.5-0.2c-0.9-0.6-1.2-1.9-0.6-2.8
		c0.6-0.9,1.7-1.1,2.6-0.6c0.8,0.4,1.3,1.5,1,2.4C1103.2,212.2,1102.4,212.8,1101.5,212.8L1101.5,212.8z M1004.5,208.4
		c-0.8,0-1.6-0.5-1.9-1.4c-0.3-1,0.2-2,1.1-2.4c0.9-0.4,2-0.1,2.5,0.7c0.6,0.9,0.4,2.2-0.5,2.8c-0.2,0.1-0.3,0.2-0.5,0.2
		C1005,208.4,1004.8,208.5,1004.5,208.4L1004.5,208.4z M1092.5,208.4c-0.3,0-0.6-0.1-0.8-0.2c-0.9-0.4-1.4-1.5-1.1-2.4
		c0.3-1.1,1.5-1.6,2.5-1.3c0.2,0.1,0.3,0.1,0.5,0.2c0.9,0.6,1.2,1.9,0.6,2.8C1093.8,208.1,1093.1,208.4,1092.5,208.4L1092.5,208.4z
		 M1013.9,204.9c-0.8,0-1.6-0.5-1.9-1.4c-0.3-1.1,0.2-2.2,1.3-2.5c0,0,0.1,0,0.2-0.1c1.1-0.3,2.2,0.4,2.4,1.5c0.3,1-0.3,2.1-1.4,2.4
		C1014.3,204.9,1014.1,204.9,1013.9,204.9L1013.9,204.9z M1083.1,204.9c-0.2,0-0.3,0-0.5-0.1c-0.1,0-0.1,0-0.2-0.1
		c-1.1-0.4-1.6-1.5-1.3-2.5c0.3-1,1.4-1.6,2.5-1.3c1,0.3,1.6,1.4,1.4,2.4C1084.8,204.3,1084,204.9,1083.1,204.9L1083.1,204.9z
		 M1023.6,202.2c-0.8,0-1.6-0.5-1.9-1.4c-0.3-1.1,0.2-2.2,1.3-2.5c0.2-0.1,0.4-0.1,0.6-0.1c1.1,0,2,0.9,2,2c0,1-0.7,1.8-1.6,2
		C1023.9,202.2,1023.7,202.2,1023.6,202.2L1023.6,202.2z M1073.4,202.2c-0.2,0-0.4,0-0.6-0.1c-1.1-0.4-1.6-1.5-1.3-2.5
		c0.3-1,1.3-1.5,2.3-1.3c0.9,0.2,1.6,1,1.6,2C1075.4,201.3,1074.5,202.2,1073.4,202.2L1073.4,202.2z M1033.5,200.4c-1.1,0-2-0.9-2-2
		c0-1,0.8-1.9,1.8-2s1.9,0.5,2.2,1.5c0.3,1.1-0.4,2.2-1.5,2.4C1033.8,200.4,1033.7,200.4,1033.5,200.4L1033.5,200.4z M1063.5,200.4
		c-0.1,0-0.2,0-0.2,0c-1-0.1-1.8-1-1.8-2c0-1.1,0.9-2,2-2c0.2,0,0.3,0,0.5,0.1c1.1,0.3,1.7,1.4,1.5,2.4
		C1065.3,199.8,1064.5,200.4,1063.5,200.4L1063.5,200.4z M1043.5,199.6c-1.1,0-2-0.9-2-2s0.9-2,2-2l0,0c1.1,0,2,0.9,2,2
		S1044.6,199.6,1043.5,199.6z M1053.5,199.6c-1.1,0-2-0.9-2-2s0.9-2,2-2l0,0c1.1,0,2,0.9,2,2S1054.6,199.6,1053.5,199.6z"/>
	<path class="st0" d="M1160.5,311.3c-0.5,0-1-0.2-1.4-0.6s-0.6-0.9-0.6-1.4s0.2-1,0.6-1.4c0.7-0.8,2.1-0.8,2.8,0
		c0.4,0.4,0.6,0.9,0.6,1.4s-0.2,1-0.6,1.4C1161.5,311.1,1161,311.3,1160.5,311.3L1160.5,311.3z"/>
	<path class="st0" d="M479.6,311.4c-0.3,0-0.5-0.1-0.8-0.2s-0.5-0.2-0.6-0.4c-0.1-0.1-0.2-0.2-0.2-0.3c-0.1-0.1-0.1-0.2-0.2-0.3
		s-0.1-0.2-0.1-0.4c0-0.1,0-0.3,0-0.4s0-0.3,0-0.4s0.1-0.2,0.1-0.4s0.1-0.2,0.2-0.4c0.1-0.1,0.2-0.2,0.2-0.3c0.8-0.7,2.1-0.8,2.8,0
		c0.1,0.1,0.2,0.2,0.2,0.3c0.1,0.1,0.1,0.2,0.2,0.4s0.1,0.2,0.1,0.4c0,0.1,0,0.3,0,0.4s0,0.3,0,0.4s-0.1,0.2-0.1,0.4
		s-0.1,0.2-0.2,0.3c-0.1,0.1-0.2,0.2-0.2,0.3C480.6,311.1,480.1,311.4,479.6,311.4z"/>
	<path class="st0" d="M480,301.3c-0.1,0-0.2,0-0.3,0c-1-0.2-1.8-1.1-1.7-2.2c0.1-1,1-1.8,2-1.8c1.1,0,2,0.9,2,2c0,0.1,0,0.2,0,0.3
		C481.8,300.6,481,301.3,480,301.3L480,301.3z M703,301.2c-1,0-1.9-0.8-2-1.8s0.6-2,1.7-2.2c1.1-0.2,2.1,0.5,2.3,1.6
		c0,0.1,0,0.2,0,0.3C705,300.3,704.1,301.2,703,301.2L703,301.2z M481.4,291.4c-0.1,0-0.2,0-0.3,0c-1.1-0.2-1.8-1.2-1.6-2.3
		c0,0,0-0.1,0-0.2c0.3-1.1,1.4-1.7,2.4-1.5c1,0.3,1.7,1.3,1.5,2.3C483.1,290.7,482.3,291.4,481.4,291.4L481.4,291.4z M701.6,291.3
		c-0.9,0-1.7-0.6-1.9-1.5c0,0,0-0.1,0-0.2c-0.2-1.1,0.5-2.1,1.6-2.3c1.1-0.2,2.1,0.5,2.3,1.6c0.2,1-0.4,2.1-1.5,2.3
		C702,291.2,701.8,291.2,701.6,291.3L701.6,291.3z M483.6,281.6c-0.2,0-0.4,0-0.6-0.1c-1-0.3-1.6-1.4-1.3-2.4c0.2-1,1.2-1.6,2.2-1.5
		c1.1,0.1,1.9,1.1,1.7,2.2c0,0.1,0,0.3-0.1,0.4C485.2,281,484.4,281.6,483.6,281.6L483.6,281.6z M699.4,281.5
		c-0.9,0-1.7-0.6-1.9-1.5c-0.2-1,0.3-2,1.3-2.4s2.2,0.2,2.5,1.3c0,0.1,0.1,0.3,0.1,0.4c0.1,1.1-0.6,2.1-1.7,2.2
		C699.6,281.4,699.5,281.5,699.4,281.5L699.4,281.5z M486.7,272c-0.2,0-0.4,0-0.7-0.1c-1-0.4-1.6-1.5-1.2-2.5v-0.1
		c0.4-1,1.5-1.6,2.6-1.2c1,0.4,1.6,1.5,1.2,2.6C488.3,271.5,487.5,272,486.7,272L486.7,272z M696.3,271.9c-0.8,0-1.6-0.5-1.9-1.3
		l3.8-1.4c0.4,1-0.1,2.2-1.2,2.6C696.8,271.9,696.5,271.9,696.3,271.9L696.3,271.9z M490.7,262.8c-0.3,0-0.6-0.1-0.9-0.2
		c-1-0.5-1.4-1.7-0.9-2.7l0,0c0.5-1,1.7-1.4,2.7-0.9s1.4,1.7,0.9,2.7C492.1,262.4,491.4,262.8,490.7,262.8L490.7,262.8z
		 M692.3,262.7c-0.7,0-1.4-0.4-1.8-1.1c-0.5-1-0.1-2.2,0.9-2.7s2.2-0.1,2.7,0.9l0,0c0.5,1,0.1,2.2-0.9,2.7
		C692.9,262.6,692.6,262.7,692.3,262.7L692.3,262.7z M495.4,254c-0.4,0-0.8-0.1-1.1-0.3c-0.9-0.6-1.1-1.8-0.6-2.7s1.7-1.2,2.6-0.8
		c1,0.5,1.4,1.7,0.9,2.7c0,0.1-0.1,0.1-0.1,0.2C496.7,253.6,496.1,254,495.4,254L495.4,254z M687.5,253.9c-0.7,0-1.3-0.4-1.7-1
		c-0.5-0.9-0.3-2.1,0.6-2.7c0.9-0.6,2.2-0.4,2.8,0.6c0,0.1,0.1,0.1,0.1,0.2c0.5,1,0.1,2.2-0.9,2.7
		C688.1,253.8,687.8,253.9,687.5,253.9L687.5,253.9z M501,245.6c-0.4,0-0.8-0.1-1.1-0.3c-0.9-0.6-1.2-1.9-0.5-2.8
		c0.1-0.1,0.2-0.2,0.3-0.3c0.8-0.8,2-0.8,2.8,0c0.7,0.7,0.8,1.9,0.2,2.6C502.2,245.3,501.6,245.6,501,245.6L501,245.6z M682,245.5
		c-0.5,0-1-0.2-1.4-0.6c-0.1-0.1-0.2-0.2-0.3-0.3c-0.6-0.9-0.4-2.2,0.5-2.8s2.1-0.4,2.7,0.4c0.6,0.8,0.6,1.9-0.2,2.6
		C683,245.3,682.5,245.5,682,245.5L682,245.5z M507.2,237.7c-0.5,0-0.9-0.1-1.3-0.5c-0.9-0.7-1-2-0.3-2.8c0-0.1,0.1-0.1,0.1-0.1
		c0.8-0.8,2-0.8,2.8,0s0.8,2,0.1,2.7C508.3,237.5,507.8,237.7,507.2,237.7L507.2,237.7z M675.7,237.7c-0.5,0-1-0.2-1.4-0.6l-0.1-0.1
		c-0.7-0.9-0.6-2.1,0.3-2.8c0.8-0.7,2.1-0.6,2.8,0.2s0.7,2-0.1,2.7C676.7,237.5,676.2,237.7,675.7,237.7L675.7,237.7z M514.2,230.5
		c-0.6,0-1.2-0.3-1.6-0.8c-0.7-0.8-0.6-2,0.2-2.7c0.7-0.7,1.9-0.7,2.7-0.1c0.8,0.7,1,2,0.3,2.8c-0.1,0.1-0.2,0.2-0.3,0.3
		C515.1,230.3,514.6,230.5,514.2,230.5L514.2,230.5z M668.8,230.4c-0.5,0-1-0.2-1.4-0.6c-0.8-0.7-0.8-1.9-0.2-2.7
		c0.7-0.9,2-1,2.8-0.3c0.1,0.1,0.2,0.2,0.3,0.3c0.7,0.9,0.6,2.1-0.3,2.8C669.7,230.3,669.2,230.4,668.8,230.4L668.8,230.4z
		 M521.7,223.9c-0.6,0-1.2-0.3-1.6-0.8c-0.7-0.9-0.5-2.1,0.3-2.8c0,0,0.1-0.1,0.2-0.1c0.9-0.6,2.2-0.4,2.8,0.6
		c0.6,0.9,0.4,2.1-0.5,2.7C522.6,223.8,522.2,223.9,521.7,223.9L521.7,223.9z M661.2,223.8c-0.4,0-0.8-0.1-1.1-0.3
		c0,0-0.1-0.1-0.2-0.1c-0.9-0.7-1-1.9-0.3-2.8c0.7-0.9,1.9-1,2.8-0.4c0.8,0.6,1.1,1.8,0.5,2.7C662.5,223.5,661.8,223.8,661.2,223.8
		L661.2,223.8z M529.9,218c-0.7,0-1.3-0.3-1.7-0.9c-0.6-0.9-0.4-2.1,0.5-2.7c0.9-0.6,2.1-0.5,2.7,0.4c0.7,0.9,0.5,2.1-0.3,2.8
		c0,0-0.1,0.1-0.2,0.1C530.6,217.9,530.2,218,529.9,218L529.9,218z M653.1,217.9c-0.4,0-0.8-0.1-1.2-0.4c-0.9-0.6-1.1-1.8-0.5-2.7
		s1.8-1.2,2.8-0.6c0,0,0.1,0.1,0.2,0.1c0.9,0.7,1,1.9,0.3,2.8C654.3,217.7,653.7,217.9,653.1,217.9L653.1,217.9z M538.5,212.8
		c-0.7,0-1.3-0.3-1.7-0.9c-0.6-0.9-0.4-2.2,0.5-2.8c0.2-0.1,0.3-0.2,0.5-0.2c1-0.4,2.2,0.2,2.5,1.3c0.3,0.9-0.1,1.9-1,2.4
		C539.1,212.7,538.8,212.8,538.5,212.8L538.5,212.8z M644.5,212.8c-0.2,0-0.4,0-0.6-0.1c-0.2-0.1-0.3-0.1-0.5-0.2
		c-0.9-0.6-1.2-1.9-0.5-2.8c0.6-0.9,1.7-1.1,2.6-0.6c0.8,0.4,1.3,1.5,1,2.4C646.1,212.2,645.3,212.8,644.5,212.8L644.5,212.8z
		 M547.5,208.4c-0.8,0-1.6-0.5-1.9-1.4c-0.3-1,0.2-2.1,1.1-2.5c0.9-0.4,2-0.1,2.5,0.8c0.5,1,0.2,2.2-0.7,2.7
		c-0.1,0.1-0.2,0.1-0.4,0.2C547.9,208.4,547.7,208.4,547.5,208.4z M635.4,208.4c-0.3,0-0.5-0.1-0.8-0.2c-1-0.4-1.4-1.5-1.1-2.5
		c0.3-1.1,1.5-1.6,2.5-1.3c0.1,0,0.2,0.1,0.4,0.2c1,0.6,1.3,1.8,0.7,2.7C636.8,208.1,636.1,208.4,635.4,208.4L635.4,208.4z
		 M626,204.9c-0.2,0-0.4,0-0.6-0.1c-1-0.3-1.6-1.4-1.3-2.5c0.3-1,1.4-1.6,2.5-1.3h0.1c1,0.4,1.6,1.5,1.3,2.5
		C627.7,204.4,626.9,204.9,626,204.9L626,204.9z M557.5,204.8l-1.3-3.8c1-0.4,2.2,0.2,2.5,1.3S558.6,204.5,557.5,204.8z
		 M566.5,202.2c-0.9,0-1.7-0.6-1.9-1.4c-0.3-1.1,0.3-2.2,1.4-2.5c0.2-0.1,0.4-0.1,0.6-0.1c1.1,0,2,0.9,2,2c0,1-0.7,1.8-1.7,2
		C566.8,202.2,566.7,202.2,566.5,202.2z M616.3,202.2c-0.2,0-0.4,0-0.6-0.1c-1.1-0.3-1.7-1.4-1.4-2.5c0.3-1,1.3-1.6,2.3-1.4
		c0.9,0.2,1.7,1,1.7,2C618.3,201.3,617.4,202.2,616.3,202.2L616.3,202.2z M576.4,200.4c-1.1,0-2-0.9-2-2c0-1,0.8-1.9,1.8-2
		c0.9-0.1,1.8,0.4,2.1,1.4c0.3,1.1-0.2,2.2-1.3,2.5C576.9,200.4,576.6,200.4,576.4,200.4L576.4,200.4z M606.5,200.4
		c-0.1,0-0.2,0-0.2,0c-1-0.1-1.8-1-1.8-2c0-1.1,0.9-2,2-2c0.2,0,0.4,0,0.6,0.1c1,0.4,1.6,1.5,1.3,2.5
		C608.1,199.9,607.3,200.4,606.5,200.4L606.5,200.4z M586.4,199.6c-1.1,0-2-0.9-2-2s0.9-2,2-2l0,0c1.1,0,2,0.9,2,2
		S587.5,199.6,586.4,199.6z M596.5,199.6c-1.1,0-2-0.9-2-2s0.9-2,2-2l0,0c1.1,0,2,0.9,2,2S597.6,199.6,596.5,199.6z"/>
	<path class="st0" d="M703.4,311.4c-0.3,0-0.5-0.1-0.8-0.2s-0.5-0.2-0.7-0.4c-0.1-0.1-0.2-0.2-0.2-0.3c-0.1-0.1-0.1-0.2-0.2-0.3
		s-0.1-0.2-0.1-0.4c0-0.1,0-0.3,0-0.4s0-0.3,0-0.4s0.1-0.2,0.1-0.4s0.1-0.2,0.2-0.4c0.1-0.1,0.2-0.2,0.2-0.3
		c0.1-0.1,0.2-0.2,0.3-0.2c0.1-0.1,0.2-0.1,0.3-0.2s0.2-0.1,0.4-0.1c0.3,0,0.5,0,0.8,0c0.1,0,0.2,0.1,0.4,0.1s0.2,0.1,0.3,0.2
		s0.2,0.2,0.3,0.2c0.1,0.1,0.2,0.2,0.2,0.3c0.1,0.1,0.1,0.2,0.2,0.4s0.1,0.2,0.1,0.4c0,0.1,0,0.3,0,0.4s0,0.3,0,0.4
		s-0.1,0.2-0.1,0.4s-0.1,0.2-0.2,0.3c-0.1,0.1-0.2,0.2-0.2,0.3c-0.1,0.1-0.2,0.2-0.3,0.2s-0.2,0.1-0.3,0.2s-0.2,0.1-0.4,0.1
		C703.7,311.3,703.5,311.4,703.4,311.4z"/>
	<path class="st0" d="M932,311.4c-0.3,0-0.5-0.1-0.8-0.2c-0.2-0.1-0.5-0.2-0.7-0.4c-0.1-0.1-0.2-0.2-0.2-0.3
		c-0.1-0.1-0.1-0.2-0.2-0.3s-0.1-0.2-0.1-0.4c0-0.1,0-0.3,0-0.4s0-0.3,0-0.4s0.1-0.2,0.1-0.4s0.1-0.2,0.2-0.4
		c0.1-0.1,0.2-0.2,0.2-0.3c0.1-0.1,0.2-0.2,0.3-0.2c0.1-0.1,0.2-0.1,0.3-0.2c0.1,0,0.2-0.1,0.4-0.1c0.3,0,0.5,0,0.8,0
		c0.1,0,0.2,0.1,0.4,0.1c0.1,0,0.2,0.1,0.3,0.2s0.2,0.2,0.3,0.2c0.1,0.1,0.2,0.2,0.2,0.3c0.1,0.1,0.1,0.2,0.2,0.4s0.1,0.2,0.1,0.4
		c0,0.1,0,0.3,0,0.4s0,0.3,0,0.4s-0.1,0.2-0.1,0.4s-0.1,0.2-0.2,0.3c-0.1,0.1-0.2,0.2-0.2,0.3C933,311.1,932.5,311.4,932,311.4z"/>
	<path class="st0" d="M815.1,423.2L815.1,423.2c-1.1,0-2-0.9-2-2s0.9-2,2-2s2,0.9,2,2S816.2,423.2,815.1,423.2z M825.1,423.2
		L825.1,423.2c-1.1,0-2-0.9-2-2s0.9-2,2-2s2,0.9,2,2S826.2,423.2,825.1,423.2z M805.1,422.3c-0.2,0-0.4,0-0.6-0.1
		c-1-0.4-1.6-1.5-1.3-2.5c0.3-0.9,1.2-1.5,2.1-1.4c1,0.1,1.8,1,1.8,2C807.1,421.4,806.2,422.3,805.1,422.3L805.1,422.3z
		 M835.1,422.3c-0.9,0-1.7-0.6-1.9-1.5c-0.3-1.1,0.4-2.2,1.5-2.4c0.2,0,0.3-0.1,0.5-0.1c1.1,0,2,0.9,2,2c0,1-0.8,1.9-1.8,2
		C835.2,422.3,835.2,422.3,835.1,422.3L835.1,422.3z M795.2,420.5c-0.1,0-0.2,0-0.4,0c-0.9-0.2-1.7-1-1.7-2c0-1.1,0.9-2,2-2
		c0.2,0,0.4,0,0.6,0.1c1.1,0.3,1.7,1.4,1.4,2.5C796.8,419.9,796,420.5,795.2,420.5z M845,420.5c-1.1,0-2-0.9-2-2c0-1,0.7-1.8,1.6-2
		c1-0.2,2,0.4,2.3,1.3c0.3,1-0.2,2.2-1.3,2.5C845.4,420.4,845.2,420.5,845,420.5L845,420.5z M785.5,417.8c-0.2,0-0.4,0-0.5-0.1h-0.1
		c-1-0.4-1.6-1.5-1.3-2.5s1.5-1.6,2.5-1.3c1,0.3,1.6,1.5,1.3,2.5C787.1,417.3,786.3,417.8,785.5,417.8L785.5,417.8z M854.6,417.8
		c-0.9,0-1.7-0.6-1.9-1.5c-0.3-1,0.3-2.1,1.4-2.4c1-0.3,2.1,0.2,2.5,1.3c0.3,1-0.2,2.2-1.3,2.5c0,0-0.1,0-0.2,0
		C855,417.8,854.8,417.8,854.6,417.8L854.6,417.8z M776.1,414.3c-0.2,0-0.4,0-0.6-0.1c-0.1,0-0.2-0.1-0.4-0.2
		c-1-0.5-1.3-1.8-0.7-2.7c0.5-0.9,1.6-1.2,2.5-0.8c1,0.4,1.4,1.5,1.1,2.5C777.7,413.8,776.9,414.3,776.1,414.3L776.1,414.3z
		 M864,414.3c-0.7,0-1.3-0.3-1.7-0.9c-0.6-0.9-0.4-2.2,0.5-2.8c0.2-0.1,0.3-0.2,0.5-0.2c1-0.4,2.2,0.2,2.5,1.3c0.3,1-0.2,2-1.1,2.5
		C864.6,414.2,864.3,414.3,864,414.3L864,414.3z M767.1,409.9c-0.3,0-0.7-0.1-0.9-0.2c-0.8-0.5-1.3-1.5-1-2.4c0.3-1,1.5-1.6,2.5-1.3
		c0.2,0.1,0.3,0.1,0.5,0.2c0.9,0.6,1.2,1.9,0.5,2.8C768.3,409.6,767.7,409.9,767.1,409.9z M873.1,409.9c-0.8,0-1.6-0.5-1.9-1.4
		c-0.3-0.9,0.1-2,1-2.4c0.9-0.5,2-0.2,2.6,0.6c0.6,0.9,0.4,2.2-0.5,2.8c-0.2,0.1-0.3,0.2-0.5,0.2
		C873.5,409.9,873.3,409.9,873.1,409.9L873.1,409.9z M758.4,404.8c-0.4,0-0.8-0.1-1.1-0.3c0,0-0.1-0.1-0.2-0.1c-0.9-0.7-1-2-0.3-2.8
		s1.9-1,2.7-0.4c0.9,0.6,1.1,1.8,0.5,2.7C759.7,404.5,759.1,404.8,758.4,404.8L758.4,404.8z M881.7,404.7c-0.7,0-1.3-0.3-1.7-0.9
		c-0.6-0.9-0.4-2.2,0.5-2.8c0.9-0.6,2.2-0.4,2.8,0.5s0.4,2.2-0.5,2.8l0,0C882.4,404.6,882.1,404.7,881.7,404.7L881.7,404.7z
		 M750.3,398.9c-0.4,0-0.8-0.1-1.2-0.4c-0.8-0.6-1.1-1.8-0.5-2.7c0.6-0.9,1.8-1.2,2.8-0.5c0,0,0.1,0.1,0.2,0.1c0.9,0.7,1,2,0.3,2.8
		C751.5,398.6,750.9,398.9,750.3,398.9L750.3,398.9z M889.8,398.8c-0.5,0-1-0.2-1.4-0.6c-0.8-0.8-0.8-2,0-2.8
		c0.1-0.1,0.2-0.2,0.3-0.3c0.9-0.6,2.2-0.4,2.8,0.5s0.4,2.1-0.4,2.7C890.7,398.7,890.2,398.8,889.8,398.8L889.8,398.8z M742.8,392.3
		c-0.4,0-0.9-0.1-1.2-0.4c-0.1-0.1-0.2-0.2-0.3-0.3c-0.7-0.9-0.6-2.1,0.3-2.8c0.8-0.7,1.9-0.6,2.7,0.1s0.8,1.9,0.2,2.7
		C743.9,392,743.4,392.3,742.8,392.3L742.8,392.3z M897.3,392.2c-0.5,0-1-0.2-1.4-0.6c-0.8-0.8-0.8-2,0-2.8s2-0.8,2.8,0s0.8,2,0,2.8
		l0,0C898.4,392,897.9,392.2,897.3,392.2L897.3,392.2z M735.8,385c-0.6,0-1.1-0.2-1.5-0.7c-0.7-0.8-0.7-2,0.1-2.7
		c0.8-0.8,2-0.8,2.8,0l0.1,0.1c0.7,0.9,0.6,2.1-0.3,2.8C736.7,384.9,736.3,385,735.8,385L735.8,385z M904.3,385
		c-0.7,0-1.3-0.3-1.7-0.9c-0.5-0.8-0.4-1.8,0.2-2.5c0.7-0.7,1.8-0.9,2.6-0.3c0.9,0.6,1.2,1.9,0.5,2.8c-0.2,0.2-0.3,0.4-0.6,0.6
		C905,384.9,904.7,385,904.3,385L904.3,385z M729.5,377.2c-0.6,0-1.2-0.3-1.6-0.8c-0.6-0.8-0.6-1.9,0.2-2.6c0.8-0.8,2-0.8,2.8,0
		c0.1,0.1,0.2,0.2,0.3,0.3c0.6,0.9,0.4,2.2-0.5,2.8C730.3,377.1,729.9,377.2,729.5,377.2L729.5,377.2z M910.5,377.1
		c-0.5,0-1-0.2-1.4-0.6c-0.7-0.7-0.8-1.9-0.2-2.6c0.6-0.8,1.8-1,2.7-0.4s1.2,1.9,0.5,2.8c-0.1,0.1-0.2,0.2-0.3,0.3
		C911.6,376.9,911.1,377.1,910.5,377.1L910.5,377.1z M724,368.8c-0.7,0-1.3-0.3-1.7-0.9c0-0.1-0.1-0.1-0.1-0.2
		c-0.5-1-0.1-2.2,0.9-2.7c0.9-0.5,2.1-0.1,2.6,0.8s0.3,2.1-0.6,2.7C724.8,368.7,724.4,368.8,724,368.8L724,368.8z M916.1,368.8
		c-0.2,0-0.4,0-0.6-0.1c-1-0.4-1.6-1.5-1.3-2.5c0.1-0.2,0.1-0.3,0.2-0.5c0.6-0.9,1.8-1.2,2.8-0.5c0.9,0.6,1.1,1.7,0.7,2.6
		C917.5,368.4,916.8,368.8,916.1,368.8L916.1,368.8z M719.2,360c-0.7,0-1.4-0.4-1.8-1.1l0,0c-0.5-1-0.1-2.2,0.9-2.7s2.2-0.1,2.7,0.9
		s0.1,2.2-0.9,2.7C719.8,359.9,719.5,360,719.2,360L719.2,360z M920.9,359.9c-0.4,0-0.8-0.1-1.1-0.3c-0.8-0.5-1.1-1.6-0.7-2.5
		c0.4-0.9,1.5-1.4,2.5-1.1c1,0.4,1.6,1.5,1.3,2.5c-0.1,0.2-0.1,0.3-0.2,0.5C922.1,359.6,921.5,359.9,920.9,359.9L920.9,359.9z
		 M924.8,350.7c-0.3,0-0.6-0.1-0.9-0.2c-0.9-0.5-1.3-1.6-1-2.5c0.4-1,1.5-1.5,2.5-1.1s1.6,1.5,1.3,2.5c0,0.1-0.1,0.2-0.1,0.3
		C926.3,350.3,925.6,350.7,924.8,350.7L924.8,350.7z M713.4,349.5c-0.4-1,0.1-2.2,1.2-2.6c1-0.4,2.2,0.1,2.6,1.2L713.4,349.5
		L713.4,349.5z M712.2,341.2c-0.8,0-1.6-0.5-1.9-1.4c0-0.1-0.1-0.3-0.1-0.4c-0.1-1.1,0.6-2.1,1.7-2.2c1-0.1,2,0.5,2.2,1.5
		s-0.3,2-1.3,2.4C712.6,341.2,712.4,341.2,712.2,341.2L712.2,341.2z M928,341.1c-0.2,0-0.3,0-0.5-0.1c-1.1-0.3-1.7-1.4-1.5-2.4
		c0,0,0-0.1,0-0.2c0.3-1,1.5-1.6,2.5-1.3c1,0.3,1.6,1.4,1.3,2.5C929.6,340.6,928.8,341.1,928,341.1L928,341.1z M709.9,331.5
		c-0.9,0-1.8-0.7-2-1.6c-0.2-1,0.4-2.1,1.5-2.3c1.1-0.3,2.2,0.4,2.4,1.5c0,0,0,0.1,0,0.2c0.2,1.1-0.5,2.1-1.6,2.3
		C710.1,331.5,710,331.5,709.9,331.5L709.9,331.5z M930.2,331.3c-1.1,0-2-0.9-2-2c0-0.2,0-0.4,0.1-0.6c0.3-1,1.5-1.6,2.5-1.3
		c1,0.3,1.5,1.3,1.3,2.3C932,330.6,931.2,331.4,930.2,331.3L930.2,331.3z M708.6,321.5c-1,0-1.8-0.7-2-1.7c0-0.1,0-0.2,0-0.3
		c0-1.1,0.9-2,2-2c1,0,1.9,0.8,2,1.8s-0.6,2-1.7,2.2C708.8,321.5,708.7,321.5,708.6,321.5L708.6,321.5z M931.5,321.4
		c-0.2,0-0.3,0-0.5-0.1c-1-0.2-1.6-1.2-1.5-2.2s1-1.8,2-1.8c1.1,0,2,0.9,2,2c0,0.2,0,0.3-0.1,0.5
		C933.2,320.8,932.4,321.4,931.5,321.4z"/>
	<path class="st0" d="M708.1,311.4c-0.3,0-0.5-0.1-0.8-0.2c-0.2-0.1-0.5-0.2-0.6-0.4c-0.1-0.1-0.2-0.2-0.3-0.3
		c-0.1-0.1-0.1-0.2-0.2-0.3s-0.1-0.2-0.1-0.4c0-0.1,0-0.3,0-0.4s0-0.3,0-0.4s0.1-0.2,0.1-0.4s0.1-0.2,0.2-0.4
		c0.1-0.1,0.2-0.2,0.2-0.3c0.5-0.5,1.2-0.7,1.8-0.5c0.1,0,0.2,0.1,0.4,0.1s0.2,0.1,0.3,0.2s0.2,0.2,0.3,0.2c0.1,0.1,0.2,0.2,0.2,0.3
		c0.1,0.1,0.1,0.2,0.2,0.4s0.1,0.2,0.1,0.4c0,0.1,0,0.3,0,0.4s0,0.3,0,0.4s-0.1,0.2-0.1,0.4s-0.1,0.2-0.2,0.3
		c-0.1,0.1-0.2,0.2-0.2,0.3c-0.1,0.1-0.2,0.2-0.3,0.2s-0.2,0.1-0.3,0.2c-0.1,0-0.2,0.1-0.4,0.1C708.3,311.3,708.2,311.4,708.1,311.4
		L708.1,311.4z"/>
	<path class="st0" d="M134.4,431.8C68.6,431.8,15,378.2,15,312.4h15c0,57.6,46.8,104.4,104.4,104.4c23.8,0,46.2-7.8,64.9-22.6
		c18.1-14.4,31.1-34.6,36.6-56.9l14.6,3.6c-6.3,25.5-21.1,48.6-41.8,65C187.3,422.8,161.7,431.8,134.4,431.8z"/>
	<polygon class="st0" points="223.3,341.8 246.4,312.4 260.4,347 	"/>
	<g>
		<circle class="st1" cx="133.6" cy="305.8" r="95.7"/>
		
			<linearGradient id="SVGID_1_" gradientUnits="userSpaceOnUse" x1="202.6625" y1="366.7625" x2="64.5375" y2="228.6375" gradientTransform="matrix(1 0 0 1 0 8)">
			<stop  offset="0" style="stop-color:#FFFFFF;stop-opacity:0"/>
			<stop  offset="1" style="stop-color:#B5B5B5;stop-opacity:0.9"/>
		</linearGradient>
		<path class="st2" d="M133.6,403.4c-53.9,0-97.7-43.8-97.7-97.7S79.7,208,133.6,208s97.7,43.8,97.7,97.7S187.5,403.4,133.6,403.4z
			 M133.6,212.1c-51.7,0-93.7,42-93.7,93.7s42,93.7,93.7,93.7s93.7-42,93.7-93.7S185.3,212.1,133.6,212.1z"/>
	</g>
	<path class="st3" d="M175.7,300.7v-24.5c0-3.2-2.6-5.8-5.8-5.8H83.6c-3.2,0-5.8,2.6-5.8,5.8v58.7c0,3.2,2.6,5.8,5.8,5.8h4.6v-39.9
		L175.7,300.7L175.7,300.7z"/>
	<path class="st4" d="M88.2,342.6h-4.6c-4.3,0-7.8-3.5-7.8-7.8v-58.7c0-4.3,3.5-7.8,7.8-7.8h86.3c4.3,0,7.8,3.5,7.8,7.8v24.5
		c0,1.1-0.9,2-2,2H90.2v37.9C90.2,341.7,89.3,342.6,88.2,342.6z M83.6,272.4c-2.1,0-3.8,1.7-3.8,3.8v58.7c0,2.1,1.7,3.8,3.8,3.8h2.6
		v-37.9c0-1.1,0.9-2,2-2h85.4v-22.5c0-2.1-1.7-3.8-3.8-3.8H83.6V272.4z"/>
	<path class="st3" d="M153.3,324c-1-0.4-1.9-0.6-2.6-1c-0.1,0-0.2-0.1-0.3-0.1c-0.6-0.4-1.1-0.8-1.4-1.6c-0.6-1.4-0.1-2.5,0.6-3.9
		c0.2-0.3,0.4-0.7,0.5-1.1l-0.6-0.5l-0.1-0.1h-0.1l-0.1-0.1c-0.1-0.1-0.3-0.3-0.6-0.5l-0.1-0.1l-0.1-0.1l-0.1-0.1l-0.1-0.1l-0.1-0.1
		c-0.1,0-0.1-0.1-0.2-0.2c-0.1,0-0.1-0.1-0.1-0.1c-0.1-0.1-0.1-0.1-0.2-0.2c0,0,0,0-0.1-0.1s0,0-0.1-0.1h-0.1l-0.1-0.1l0,0
		c-0.1-0.1-0.1-0.1-0.2-0.2l-0.1-0.1c-0.1-0.1-0.1-0.1-0.2-0.2l0,0c-0.1,0-0.2,0.1-0.3,0.1c-1.4,0.6-2.3,1.2-3.3,1.3
		c-0.1,0-0.2,0-0.3,0c-0.4,0-0.7-0.1-1.1-0.2c-1.1-0.5-1.6-1.2-2-2.2c0-0.1-0.1-0.2-0.1-0.3c0-0.1-0.1-0.2-0.1-0.3
		c-0.1-0.2-0.1-0.4-0.2-0.5c0-0.1,0-0.1-0.1-0.2c0-0.1-0.1-0.2-0.1-0.4c0-0.1-0.1-0.3-0.1-0.4h-4.4c-0.1,0.1-0.1,0.3-0.1,0.4
		s-0.1,0.3-0.1,0.4s0,0.1-0.1,0.2c-0.1,0.2-0.1,0.4-0.2,0.5c0,0.1-0.1,0.2-0.1,0.3s-0.1,0.2-0.1,0.3c-0.4,1-0.9,1.8-2,2.2
		c-0.4,0.2-0.8,0.2-1.1,0.2c-0.1,0-0.2,0-0.3,0c-1-0.1-2-0.6-3.3-1.3c-0.1,0-0.2-0.1-0.3-0.1l0,0c0,0-0.1,0-0.2,0.2l-0.1,0.1
		c-0.1,0-0.1,0.1-0.2,0.2l0,0l-0.1,0.1h-0.1c0,0,0,0-0.1,0.1s0,0-0.1,0.1s-0.1,0.1-0.2,0.2l-0.1,0.1c-0.1,0-0.1,0.1-0.2,0.2
		l-0.1,0.1l-0.1,0.1l-0.1,0.1l-0.1,0.1l-0.1,0.1c-0.2,0.2-0.3,0.4-0.6,0.5l-0.1,0.1c0,0,0,0-0.1,0l-0.1,0.1
		c-0.2,0.2-0.3,0.4-0.6,0.5c0.2,0.4,0.4,0.8,0.5,1.1c0.7,1.5,1.2,2.5,0.6,3.9c-0.3,0.8-0.8,1.2-1.4,1.6c-0.1,0-0.2,0.1-0.3,0.1
		c-0.7,0.4-1.5,0.6-2.6,1c-0.1,0-0.1,0-0.2,0.1v4.4c0.2,0.1,0.4,0.1,0.5,0.2c1.9,0.7,3.2,1,3.9,2.6c0.7,1.7-0.2,2.9-1.2,5l3.1,3.1
		c2.1-1,3.3-1.9,5.1-1.1c1.6,0.6,1.9,1.9,2.6,3.9c0.1,0.2,0.1,0.3,0.2,0.5h4.4c0.1-0.2,0.1-0.4,0.2-0.5c0.6-2,1-3.2,2.6-3.9
		c1.8-0.7,2.9,0.1,5.1,1.1l3.1-3.1c-1-2.1-1.9-3.3-1.2-5c0.6-1.6,1.9-1.9,3.9-2.6c0.2-0.1,0.4-0.1,0.5-0.2v-4.4
		C153.4,324,153.3,324,153.3,324L153.3,324z M138.4,333.2c-0.1,0-0.2,0-0.3,0s-0.1,0-0.2,0c-0.1,0-0.2,0-0.4,0h-0.1
		c-0.1,0-0.2,0-0.2,0H137h-0.1c-0.1,0-0.2,0-0.4,0c-0.1,0-0.1,0-0.2,0c-0.1,0-0.2,0-0.3,0c-2.9-0.5-5.2-2.8-5.7-5.7
		c-0.1-0.3-0.1-0.6-0.1-0.9c0-0.1,0-0.2,0-0.3c0-1.9,0.8-3.7,2.1-5s3-2.1,5-2.1s3.7,0.8,5,2.1s2.1,3,2.1,5c0,0.1,0,0.2,0,0.3
		c0,0.3,0,0.6-0.1,0.9C143.6,330.4,141.3,332.7,138.4,333.2L138.4,333.2z"/>
	<path class="st4" d="M139.4,344.6H135c-0.9,0-1.6-0.5-1.9-1.4l-0.3-0.9c-0.6-1.8-0.7-2-1.3-2.3c-0.6-0.2-0.9-0.2-2.6,0.7
		c-0.3,0.1-0.6,0.3-0.9,0.4c-0.8,0.4-1.7,0.2-2.3-0.4l-3.1-3.1c-0.6-0.6-0.8-1.5-0.4-2.3c0.2-0.3,0.3-0.6,0.5-0.9
		c0.8-1.6,0.9-1.9,0.7-2.5c-0.2-0.5-0.5-0.7-2.2-1.3l-0.5-0.2c-0.2-0.1-0.4-0.1-0.6-0.2c-0.8-0.3-1.3-1-1.3-1.9v-4.4
		c0-0.9,0.5-1.6,1.3-1.9h0.2c0.3-0.1,0.6-0.2,0.8-0.3c0.6-0.2,1.2-0.4,1.5-0.6c0.1,0,0.1,0,0.2-0.1c0.2-0.1,0.4-0.3,0.5-0.6
		c0.2-0.5,0.2-0.8-0.6-2.3c-0.2-0.4-0.4-0.7-0.6-1.1c-0.4-0.8-0.2-1.7,0.4-2.3l0.6-0.6c0,0,0.1-0.1,0.2-0.2l0,0l0.1-0.1l0.6-0.5
		l1.5,1.3l-1.4-1.4l0.3-0.4l0.1-0.1l0.4-0.4l0,0l0.1-0.1l0.1-0.1l0.1-0.1l0.2-0.2l0.1-0.1l0.2-0.2c0.6-0.6,1.5-0.8,2.3-0.4l0.9,0.4
		c0.9,0.4,1.5,0.8,2,0.8h0.1c0.1,0,0.3,0,0.4-0.1c0.3-0.1,0.5-0.3,0.9-1.1c0-0.1,0.1-0.2,0.1-0.2l0.3-0.9l2,0.5l-1.9-0.6l0.3-0.8
		c0.3-0.8,1-1.3,1.9-1.3h4.4c0.9,0,1.6,0.5,1.9,1.3l0.6,1.8c0,0.1,0.1,0.2,0.1,0.2c0.3,0.8,0.5,1,0.9,1.1c0.1,0,0.3,0.1,0.4,0.1
		c0.1,0,0.1,0,0.1,0c0.5,0,1.1-0.4,2-0.8l0.9-0.4c0.8-0.4,1.7-0.2,2.3,0.4l0,0l0.2,0.2l0.1,0.1l0.3,0.2l0.1,0.1l0.1,0.1l0,0l0.6,0.6
		l-1.3,1.5l1.4-1.4l0.8,0.8l0.1,0.1l0.7,0.7c0.6,0.6,0.8,1.5,0.4,2.3c-0.1,0.3-0.3,0.6-0.4,0.9l-0.1,0.2c-0.8,1.5-0.8,1.8-0.6,2.3
		c0.1,0.4,0.3,0.5,0.5,0.6c0.1,0,0.1,0.1,0.1,0.1c0.4,0.2,0.9,0.4,1.5,0.6c0.2,0.1,0.5,0.2,0.8,0.3c0.1,0,0.2,0.1,0.3,0.1
		c0.8,0.3,1.3,1,1.3,1.9v4.4c0,0.8-0.5,1.6-1.3,1.9c-0.2,0.1-0.4,0.1-0.6,0.2l-0.5,0.2c-1.7,0.6-2,0.8-2.2,1.3
		c-0.2,0.6-0.1,0.9,0.7,2.5c0.1,0.3,0.3,0.6,0.5,0.9c0.4,0.8,0.2,1.7-0.4,2.3l-3.1,3.1c-0.6,0.6-1.5,0.8-2.3,0.4
		c-0.3-0.1-0.6-0.3-0.9-0.4c-1.7-0.8-2-0.9-2.6-0.7c-0.6,0.2-0.7,0.5-1.3,2.3l-0.1,0.4c-0.1,0.2-0.1,0.4-0.2,0.5
		C140.9,344.1,140.2,344.6,139.4,344.6L139.4,344.6z M136.4,340.6h1.6c0.6-1.7,1.3-3.4,3.4-4.2c2.1-0.9,3.8-0.2,5.4,0.6l1.1-1.1
		c-0.8-1.6-1.5-3.3-0.6-5.4s2.6-2.8,4.2-3.4v-1.5c-0.6-0.2-1.1-0.4-1.7-0.7c-0.1-0.1-0.2-0.1-0.4-0.2c-1-0.6-1.7-1.4-2.2-2.5
		c-0.9-2.2-0.2-3.9,0.6-5.4l-0.6-0.6l-0.1-0.1L147,316l-0.2-0.2c0,0,0,0-0.1-0.1c-1,0.5-2,0.9-3.1,1c-0.2,0-0.4,0-0.6,0
		c-0.6,0-1.1-0.1-1.7-0.4c-1.9-0.8-2.6-2.2-3.1-3.3c-0.1-0.1-0.1-0.2-0.1-0.4l-0.2-0.5h-1.6l-0.2,0.5c0,0.1-0.1,0.2-0.1,0.4
		c-0.4,1.1-1.2,2.5-3,3.3c-0.6,0.3-1.2,0.4-1.8,0.4c-0.2,0-0.4,0-0.6,0c-1.1-0.1-2-0.5-3.1-1l-0.1,0.1l-0.1,0.1l-0.2,0.2l-0.1,0.1
		l-0.1,0.1l-0.1,0.1l-0.1,0.1l-0.3,0.3c0.8,1.5,1.5,3.2,0.6,5.4c-0.4,1.1-1.2,1.9-2.2,2.5c-0.1,0.1-0.2,0.1-0.4,0.2
		c-0.5,0.3-1.1,0.5-1.7,0.7v1.5c1.7,0.6,3.4,1.3,4.2,3.4c0.9,2.1,0.2,3.8-0.6,5.4l1.1,1.1c1.6-0.8,3.3-1.5,5.5-0.5
		C135.1,337.2,135.8,338.9,136.4,340.6L136.4,340.6z M149.4,315.9L149.4,315.9l0.2-0.2L149.4,315.9L149.4,315.9z M146.4,315.2
		L146.4,315.2L146.4,315.2z M147.5,314L147.5,314l0.2-0.2L147.5,314L147.5,314z M137.1,335.3c-0.1,0-0.2,0-0.3,0h-0.1
		c-0.1,0-0.3,0-0.4,0h-0.1H136c-0.2,0-0.3,0-0.4-0.1c-3.8-0.7-6.7-3.6-7.3-7.4c-0.1-0.4-0.1-0.8-0.1-1.2c0-0.1,0-0.2,0-0.4
		c0-2.4,0.9-4.7,2.6-6.4c1.7-1.7,4-2.6,6.4-2.6s4.7,0.9,6.4,2.6s2.6,4,2.6,6.4c0,0.1,0,0.3,0,0.4c0,0.3-0.1,0.7-0.1,1.1
		c-0.6,3.8-3.6,6.7-7.3,7.4l0,0c-0.1,0-0.3,0-0.4,0.1h-0.1h-0.1c-0.1,0-0.3,0-0.4,0c-0.1,0-0.2,0-0.2,0
		C137.4,335.3,137.3,335.3,137.1,335.3L137.1,335.3z M137.7,331.2l0.4,2L137.7,331.2h0.3c2.1-0.4,3.7-2,4.1-4.1
		c0-0.2,0.1-0.4,0.1-0.6c0-0.1,0-0.2,0-0.2c0-1.3-0.5-2.6-1.5-3.5c-0.9-1-2.2-1.5-3.6-1.5s-2.6,0.5-3.6,1.5s-1.5,2.2-1.5,3.5
		c0,0.1,0,0.1,0,0.2c0,0.3,0,0.5,0.1,0.7c0.4,2.1,2,3.7,4.1,4.1h0.4c0,0,0.1,0,0.2,0h0.1h0.3h0.1
		C137.5,331.3,137.6,331.2,137.7,331.2L137.7,331.2z M138.4,333.2L138.4,333.2L138.4,333.2z"/>
	<path class="st3" d="M186,287.4v13.3H88.2v-13.3c0-3.2,2.6-5.8,5.8-5.8h86.3C183.5,281.7,186,284.2,186,287.4L186,287.4z"/>
	<path class="st4" d="M186,302.7H88.2c-1.1,0-2-0.9-2-2v-13.3c0-4.3,3.5-7.8,7.8-7.8h86.3c4.3,0,7.8,3.5,7.8,7.8v13.3
		C188,301.8,187.1,302.7,186,302.7L186,302.7z M90.2,298.7H184v-11.3c0-2.1-1.7-3.8-3.8-3.8H94c-2.1,0-3.8,1.7-3.8,3.8V298.7
		L90.2,298.7z"/>
	<path class="st4" d="M176,294c1.4,0,2.5-1.1,2.5-2.5s-1.1-2.5-2.5-2.5s-2.5,1.1-2.5,2.5S174.6,294,176,294z"/>
	<path class="st4" d="M165.3,294c1.4,0,2.5-1.1,2.5-2.5s-1.1-2.5-2.5-2.5s-2.5,1.1-2.5,2.5S163.9,294,165.3,294z"/>
	<path class="st4" d="M153.4,294c1.4,0,2.5-1.1,2.5-2.5s-1.1-2.5-2.5-2.5s-2.5,1.1-2.5,2.5S152,294,153.4,294z"/>
	<path class="st4" d="M180.3,353.9H94c-4.3,0-7.8-3.5-7.8-7.8v-45.4c0-1.1,0.9-2,2-2H186c1.1,0,2,0.9,2,2v45.4
		C188,350.4,184.6,353.9,180.3,353.9L180.3,353.9z M90.2,302.7v43.4c0,2.1,1.7,3.8,3.8,3.8h86.3c2.1,0,3.8-1.7,3.8-3.8v-43.4H90.2
		L90.2,302.7z"/>
	<path class="st0" d="M1172.7,304.4h-15c0-65.9,53.6-119.4,119.4-119.4c27.2,0,52.9,9,74.2,25.9c20.7,16.4,35.5,39.5,41.8,65
		l-14.6,3.6c-5.5-22.3-18.5-42.5-36.6-56.9c-18.6-14.8-41.1-22.6-64.9-22.6C1219.5,199.9,1172.7,246.8,1172.7,304.4z"/>
	<polygon class="st0" points="1403,269.7 1389,304.4 1366,274.9 	"/>
	<g>
		<circle class="st1" cx="1277.3" cy="308.2" r="95.7"/>
		
			<linearGradient id="SVGID_00000127753581699746354090000018044063961467558044_" gradientUnits="userSpaceOnUse" x1="1346.3624" y1="369.2625" x2="1208.2375" y2="231.1375" gradientTransform="matrix(1 0 0 1 0 8)">
			<stop  offset="0" style="stop-color:#FFFFFF;stop-opacity:0"/>
			<stop  offset="1" style="stop-color:#B5B5B5;stop-opacity:0.9"/>
		</linearGradient>
		<path style="fill:url(#SVGID_00000127753581699746354090000018044063961467558044_);" d="M1277.3,405.9
			c-53.9,0-97.7-43.8-97.7-97.7s43.8-97.7,97.7-97.7s97.7,43.8,97.7,97.7S1331.2,405.9,1277.3,405.9z M1277.3,214.5
			c-51.7,0-93.7,42-93.7,93.7s42,93.7,93.7,93.7s93.7-42,93.7-93.7S1328.9,214.5,1277.3,214.5z"/>
	</g>
	<polygon class="st3" points="1268.7,366.9 1268.7,315.5 1284,315.5 1288.2,319.4 1320.2,319.4 1320.2,326.6 1277.1,326.6 	"/>
	<path class="st4" d="M1268.7,368.1L1268.7,368.1c-0.7-0.1-1.2-0.6-1.2-1.2v-51.3c0-0.7,0.6-1.2,1.2-1.2h15.3c0.3,0,0.6,0.1,0.8,0.3
		l3.8,3.6h31.5c0.7,0,1.2,0.6,1.2,1.2v7.2c0,0.7-0.6,1.2-1.2,1.2H1278l-8.1,39.2C1269.8,367.7,1269.3,368.1,1268.7,368.1
		L1268.7,368.1z M1270,316.8v37.9l5.9-28.3c0.1-0.6,0.6-1,1.2-1h41.9v-4.7h-30.8c-0.3,0-0.6-0.1-0.8-0.3l-3.8-3.6H1270L1270,316.8z"
		/>
	<path class="st4" d="M1268.7,367.6L1268.7,367.6c-0.5,0-0.8-0.4-0.8-0.8v-51.3c0-0.2,0.1-0.4,0.2-0.5s0.3-0.2,0.5-0.2h15.3
		c0.2,0,0.4,0.1,0.5,0.2l3.9,3.7h31.7c0.4,0,0.8,0.3,0.8,0.8v7.2c0,0.4-0.3,0.8-0.8,0.8h-42.5l-8.2,39.6
		C1269.4,367.4,1269.1,367.6,1268.7,367.6L1268.7,367.6z M1269.5,316.3v43.1l6.8-32.9c0.1-0.4,0.4-0.6,0.8-0.6h42.4v-5.7h-31.2
		c-0.2,0-0.4-0.1-0.5-0.2l-3.9-3.7L1269.5,316.3L1269.5,316.3z"/>
	<path class="st4" d="M1268.7,368.9h-0.2c-1-0.1-1.8-1-1.8-2v-51.3c0-0.5,0.2-1,0.6-1.4s0.9-0.6,1.4-0.6h15.3c0.5,0,1,0.2,1.4,0.5
		l3.6,3.4h31.2c1.1,0,2,0.9,2,2v7.2c0,1.1-0.9,2-2,2h-41.5l-8,38.6C1270.5,368.2,1269.7,368.9,1268.7,368.9L1268.7,368.9z
		 M1269.2,360.6v1.5l0.3-1.5c-0.1,0-0.1,0-0.2,0C1269.3,360.6,1269.3,360.6,1269.2,360.6L1269.2,360.6z M1270.8,317.5v29.7l4.4-21
		c0.2-0.9,1-1.6,2-1.6h41.1v-3.2h-30c-0.5,0-1-0.2-1.4-0.5l-3.6-3.4H1270.8z"/>
	<path class="st4" d="M1320.2,367.6h-51.5c-0.4,0-0.8-0.3-0.8-0.8s0.3-0.8,0.8-0.8h50.8l8-38.7h-7.4c-0.4,0-0.8-0.3-0.8-0.8
		s0.3-0.8,0.8-0.8h8.3c0.2,0,0.4,0.1,0.6,0.3c0.2,0.2,0.2,0.4,0.2,0.6L1321,367C1320.9,367.4,1320.6,367.6,1320.2,367.6
		L1320.2,367.6z"/>
	<path class="st4" d="M1320.2,368.9h-51.5c-1.1,0-2-0.9-2-2s0.9-2,2-2h49.8l7.5-36.2h-5.9c-1.1,0-2-0.9-2-2s0.9-2,2-2h8.3
		c0.6,0,1.2,0.3,1.6,0.7c0.4,0.5,0.5,1.1,0.4,1.7l-8.3,40.2C1322,368.2,1321.2,368.9,1320.2,368.9L1320.2,368.9z"/>
	<polygon class="st3" points="1230.2,308.6 1230.2,257.2 1245.5,257.2 1249.6,261.1 1281.6,261.1 1281.6,268.3 1238.5,268.3 	"/>
	<path class="st4" d="M1230.2,309.8L1230.2,309.8c-0.7-0.1-1.2-0.6-1.2-1.2v-51.3c0-0.7,0.6-1.3,1.2-1.3h15.3c0.3,0,0.6,0.1,0.8,0.3
		l3.8,3.6h31.5c0.7,0,1.2,0.6,1.2,1.2v7.2c0,0.7-0.6,1.2-1.2,1.2h-42.1l-8.1,39.2C1231.3,309.4,1230.7,309.8,1230.2,309.8
		L1230.2,309.8z M1231.4,258.5v37.9l5.9-28.3c0.1-0.6,0.6-1,1.2-1h41.9v-4.7h-30.8c-0.3,0-0.6-0.1-0.8-0.3l-3.8-3.6H1231.4
		L1231.4,258.5z"/>
	<path class="st4" d="M1230.2,309.3C1230.2,309.3,1230.1,309.3,1230.2,309.3c-0.5,0-0.8-0.4-0.8-0.8v-51.3c0-0.2,0.1-0.4,0.2-0.5
		s0.3-0.2,0.5-0.2h15.3c0.2,0,0.4,0.1,0.5,0.2l3.9,3.7h31.7c0.4,0,0.8,0.3,0.8,0.8v7.2c0,0.4-0.3,0.8-0.8,0.8H1239l-8.2,39.6
		C1230.8,309.1,1230.5,309.4,1230.2,309.3L1230.2,309.3z M1230.9,258v43.1l6.8-32.9c0.1-0.4,0.4-0.6,0.8-0.6h42.4v-5.7h-31.2
		c-0.2,0-0.4-0.1-0.5-0.2l-3.9-3.7L1230.9,258L1230.9,258z"/>
	<path class="st4" d="M1230.2,310.6h-0.2c-1-0.1-1.8-1-1.8-2v-51.3c0-0.5,0.2-1.1,0.6-1.4c0.4-0.4,0.9-0.6,1.4-0.6h15.3
		c0.5,0,1,0.2,1.4,0.5l3.6,3.4h31.2c1.1,0,2,0.9,2,2v7.2c0,1.1-0.9,2-2,2h-41.5l-8,38.6C1232,309.9,1231.1,310.6,1230.2,310.6
		L1230.2,310.6z M1230.7,302.3v1.5l0.3-1.5c-0.1,0-0.1,0-0.2,0C1230.8,302.4,1230.7,302.4,1230.7,302.3L1230.7,302.3z M1232.2,259.2
		v29.7l4.4-21c0.2-0.9,1-1.6,2-1.6h41.1v-3.2h-30c-0.5,0-1-0.2-1.4-0.5l-3.6-3.4H1232.2L1232.2,259.2z"/>
	<path class="st4" d="M1281.6,309.3h-51.5c-0.4,0-0.8-0.3-0.8-0.8s0.3-0.8,0.8-0.8h50.8l8-38.7h-7.4c-0.4,0-0.8-0.3-0.8-0.8
		s0.3-0.8,0.8-0.8h8.3c0.2,0,0.4,0.1,0.6,0.3c0.2,0.2,0.2,0.4,0.2,0.6l-8.3,40.2C1282.3,309.1,1282,309.3,1281.6,309.3L1281.6,309.3
		z"/>
	<path class="st4" d="M1281.6,310.6h-51.5c-1.1,0-2-0.9-2-2s0.9-2,2-2h49.8l7.5-36.2h-5.9c-1.1,0-2-0.9-2-2s0.9-2,2-2h8.3
		c0.6,0,1.2,0.3,1.6,0.7s0.5,1.1,0.4,1.7l-8.3,40.2C1283.4,309.9,1282.6,310.6,1281.6,310.6L1281.6,310.6z"/>
	<path class="st4" d="M1310.9,304.2c-1.1,0-2-0.9-2-2v-24.1h-20c-1.1,0-2-0.9-2-2s0.9-2,2-2h22c1.1,0,2,0.9,2,2v26.1
		C1312.9,303.3,1312,304.2,1310.9,304.2z"/>
	<polygon class="st4" points="1305.9,300.7 1310.9,309.3 1315.9,300.7 	"/>
	<path class="st4" d="M1268.7,351.4h-22c-1.1,0-2-0.9-2-2v-26.1c0-1.1,0.9-2,2-2s2,0.9,2,2v24.1h20c1.1,0,2,0.9,2,2
		S1269.8,351.4,1268.7,351.4z"/>
	<polygon class="st4" points="1251.8,324.8 1246.8,316.1 1241.8,324.8 	"/>
	<path class="st0" d="M258.5,304.4h-15c0-65.9,53.6-119.4,119.4-119.4c27.2,0,52.9,9,74.2,25.9c20.7,16.4,35.5,39.5,41.8,65
		l-14.6,3.6c-5.5-22.3-18.5-42.5-36.5-56.9c-18.6-14.8-41.1-22.6-64.9-22.6C305.4,199.9,258.5,246.8,258.5,304.4z"/>
	<polygon class="st0" points="488.9,269.7 474.9,304.4 451.9,274.9 	"/>
	<g>
		<circle class="st1" cx="362.1" cy="308.2" r="95.7"/>
		
			<linearGradient id="SVGID_00000085934600040077556930000005426303516572992698_" gradientUnits="userSpaceOnUse" x1="431.1625" y1="369.2625" x2="293.0375" y2="231.1375" gradientTransform="matrix(1 0 0 1 0 8)">
			<stop  offset="0" style="stop-color:#FFFFFF;stop-opacity:0"/>
			<stop  offset="1" style="stop-color:#B5B5B5;stop-opacity:0.9"/>
		</linearGradient>
		<path style="fill:url(#SVGID_00000085934600040077556930000005426303516572992698_);" d="M362.1,405.9
			c-53.9,0-97.7-43.8-97.7-97.7s43.8-97.7,97.7-97.7s97.7,43.8,97.7,97.7S416,405.9,362.1,405.9z M362.1,214.5
			c-51.7,0-93.7,42-93.7,93.7s42,93.7,93.7,93.7s93.7-42,93.7-93.7S413.8,214.5,362.1,214.5z"/>
	</g>
	<path class="st4" d="M416.5,331.3H307.9c-1.1,0-2-0.9-2-2v-64.1c0-2.9,2.3-5.2,5.2-5.2h102.3c2.9,0,5.2,2.3,5.2,5.2v64.1
		C418.5,330.4,417.6,331.3,416.5,331.3L416.5,331.3z M309.9,327.3h104.6v-62.1c0-0.6-0.5-1.2-1.2-1.2H311c-0.6,0-1.2,0.5-1.2,1.2
		L309.9,327.3L309.9,327.3z"/>
	<path class="st3" d="M416.5,329.3v9.7c0,1.8-1.4,3.2-3.2,3.2H311c-1.8,0-3.2-1.4-3.2-3.2v-9.7H416.5L416.5,329.3z"/>
	<path class="st4" d="M413.4,344.2H311c-2.9,0-5.2-2.3-5.2-5.2v-9.7c0-1.1,0.9-2,2-2h108.6c1.1,0,2,0.9,2,2v9.7
		C418.5,341.8,416.2,344.2,413.4,344.2L413.4,344.2z M309.9,331.2v7.7c0,0.6,0.5,1.2,1.2,1.2h102.3c0.6,0,1.2-0.5,1.2-1.2v-7.7
		H309.9L309.9,331.2z"/>
	<path class="st4" d="M381.9,362.7h-39.5c-0.9,0-1.8-0.2-2.6-0.7c-1.2-0.7-2-1.9-2.3-3.3c-0.2-1.3,0-2.7,0.8-3.9l4.2-13.2
		c0.3-0.8,1-1.4,1.9-1.4h35.5c0.9,0,1.6,0.6,1.9,1.4l4.2,13.2c0.8,1.1,1,2.5,0.8,3.9c-0.3,1.4-1.1,2.6-2.3,3.3
		C383.8,362.5,382.8,362.7,381.9,362.7L381.9,362.7z M345.9,344.2l-3.9,12.1c-0.1,0.2-0.2,0.4-0.3,0.6c-0.2,0.3-0.3,0.6-0.2,1
		c0,0.2,0.1,0.5,0.4,0.6c0.2,0.1,0.4,0.2,0.6,0.2H382c0.2,0,0.4,0,0.6-0.2c0.3-0.2,0.4-0.4,0.4-0.6c0.1-0.3,0-0.7-0.2-1
		c-0.1-0.2-0.3-0.4-0.3-0.6l-3.9-12.1H345.9L345.9,344.2z"/>
	<path class="st4" d="M377.2,320.2c-0.1,0-0.2,0-0.3,0c-0.9-0.1-1.6-0.8-1.7-1.7l-5.6-35.2l-3.9,16.5c-0.2,0.9-1,1.5-2,1.5H356
		l-3.9,17.2c-0.2,0.9-1,1.6-2,1.6l0,0c-1,0-1.8-0.7-1.9-1.6l-6.6-35.9l-4.1,17.2c-0.2,0.9-1,1.5-2,1.5h-14.4c-1.1,0-2-0.9-2-2
		s0.9-2,2-2h12.8l5.9-24.9c0.2-0.9,1.1-1.6,2-1.5c0.9,0,1.7,0.7,1.9,1.6l6.6,35.6l2.1-9.3c0.2-0.9,1-1.6,2-1.6h7.8l5.9-24.8
		c0.2-0.9,1.1-1.6,2-1.5c1,0,1.8,0.7,1.9,1.7l6.1,38.5l5.5-12.5c0.3-0.7,1-1.2,1.8-1.2h17.8c1.1,0,2,0.9,2,2s-0.9,2-2,2h-16.5
		L379,319C378.7,319.7,378,320.2,377.2,320.2L377.2,320.2z"/>
	<path class="st0" d="M1505.6,431.8c-65.8,0-119.4-53.6-119.4-119.4h15c0,57.6,46.8,104.4,104.4,104.4c23.8,0,46.2-7.8,64.9-22.6
		c18.1-14.4,31.1-34.6,36.6-56.9l14.6,3.6c-6.3,25.5-21.1,48.6-41.8,65C1558.5,422.8,1532.8,431.8,1505.6,431.8z"/>
	<polygon class="st0" points="1594.5,341.8 1617.6,312.4 1631.6,347 	"/>
	<g>
		<circle class="st1" cx="1505.8" cy="306.2" r="95.7"/>
		
			<linearGradient id="SVGID_00000096046408390292391770000015081028585030111404_" gradientUnits="userSpaceOnUse" x1="1574.8438" y1="367.2438" x2="1436.7375" y2="229.1375" gradientTransform="matrix(1 0 0 1 0 8)">
			<stop  offset="0" style="stop-color:#FFFFFF;stop-opacity:0"/>
			<stop  offset="1" style="stop-color:#B5B5B5;stop-opacity:0.9"/>
		</linearGradient>
		<path style="fill:url(#SVGID_00000096046408390292391770000015081028585030111404_);" d="M1505.8,403.9
			c-53.9,0-97.7-43.8-97.7-97.7s43.8-97.7,97.7-97.7s97.7,43.8,97.7,97.7S1559.6,403.9,1505.8,403.9z M1505.8,212.5
			c-51.7,0-93.7,42-93.7,93.7s42,93.7,93.7,93.7s93.7-42,93.7-93.7S1557.4,212.5,1505.8,212.5z"/>
	</g>
	<rect x="1453.9" y="325" class="st3" width="107.7" height="23.1"/>
	<path class="st4" d="M1561.6,350.1h-107.7c-1.1,0-2-0.9-2-2V325c0-1.1,0.9-2,2-2h107.7c1.1,0,2,0.9,2,2v23.1
		C1563.6,349.2,1562.7,350.1,1561.6,350.1z M1455.9,346.1h103.7V327h-103.7V346.1z"/>
	<path class="st4" d="M1473.2,327h-12.8c-0.5,0-1.1-0.2-1.4-0.6c-0.4-0.4-0.6-0.9-0.6-1.5l2.6-61.6c0-1.1,0.9-1.9,2-1.9h7.7
		c1.1,0,1.9,0.9,2,1.9l2.6,61.6c0,0.5-0.2,1.1-0.6,1.5C1474.2,326.8,1473.7,327,1473.2,327L1473.2,327z M1462.4,323h8.7l-2.4-57.6
		h-3.8L1462.4,323z"/>
	<path class="st4" d="M1555.2,327h-12.8c-0.5,0-1.1-0.2-1.4-0.6c-0.4-0.4-0.6-0.9-0.6-1.5l2.6-61.6c0-1.1,0.9-1.9,2-1.9h7.7
		c1.1,0,1.9,0.9,2,1.9l2.6,61.6c0,0.5-0.2,1.1-0.6,1.5C1556.3,326.8,1555.8,327,1555.2,327L1555.2,327z M1544.5,323h8.7l-2.4-57.6
		h-3.8L1544.5,323L1544.5,323z"/>
	<path id="FortiAP" class="st4" d="M1466.8,332.2c2.4,0,4.2,2,4.2,4.3s-1.9,4.3-4.2,4.3c-2.5,0-4.4-2-4.4-4.3
		S1464.3,332.2,1466.8,332.2z"/>
	<path id="FortiAP-2" class="st4" d="M1479.7,332.2c2.4,0,4.2,2,4.2,4.3s-1.9,4.3-4.2,4.3c-2.5,0-4.4-2-4.4-4.3
		S1477.1,332.2,1479.7,332.2z"/>
	<path id="FortiAP-3" class="st4" d="M1507.9,304.5c2.7,0,4.7,2.2,4.7,4.8s-2.1,4.8-4.7,4.8c-2.8,0-4.9-2.2-4.9-4.8
		S1505.1,304.5,1507.9,304.5z"/>
	<path class="st4" d="M1484.5,293.3c-0.5,0-1-0.2-1.4-0.6c-0.8-0.8-0.8-2,0-2.8c6.6-6.6,15.4-10.3,24.8-10.3s18.1,3.6,24.7,10.2
		c0.8,0.8,0.8,2,0,2.8s-2.1,0.8-2.8,0c-5.8-5.8-13.6-9-21.8-9s-16.1,3.2-21.9,9.1C1485.5,293.1,1485,293.3,1484.5,293.3
		L1484.5,293.3z"/>
	<path class="st4" d="M1498.8,302.9c-0.5,0-1-0.2-1.4-0.6c-0.8-0.8-0.8-2,0-2.8c2.8-2.8,6.5-4.3,10.4-4.3s7.6,1.5,10.4,4.3
		c0.8,0.8,0.8,2,0,2.8s-2.1,0.8-2.8,0c-2-2-4.7-3.1-7.6-3.1s-5.5,1.1-7.6,3.1C1499.8,302.7,1499.3,302.9,1498.8,302.9L1498.8,302.9z
		"/>
	<path class="st4" d="M1523.6,298c-0.5,0-1-0.2-1.4-0.6c-3.8-3.8-8.9-5.9-14.3-5.9s-10.5,2.1-14.3,5.9c-0.8,0.8-2.1,0.8-2.8,0
		s-0.8-2,0-2.8c4.6-4.6,10.7-7.1,17.2-7.1s12.6,2.5,17.2,7.1c0.8,0.8,0.8,2,0,2.8C1524.6,297.8,1524.1,298,1523.6,298L1523.6,298z"
		/>
	<path class="st0" d="M1048.6,431.8c-65.8,0-119.4-53.6-119.4-119.4h15c0,57.6,46.8,104.4,104.4,104.4c23.8,0,46.2-7.8,64.9-22.6
		c18.1-14.4,31.1-34.6,36.6-56.9l14.6,3.6c-6.3,25.5-21.1,48.6-41.8,65C1101.4,422.8,1075.8,431.8,1048.6,431.8z"/>
	<polygon class="st0" points="1137.5,341.8 1160.5,312.4 1174.5,347 	"/>
	<g>
		
			<ellipse transform="matrix(0.7071 -0.7071 0.7071 0.7071 90.5971 831.1593)" class="st1" cx="1048.6" cy="306.2" rx="95.7" ry="95.7"/>
		
			<linearGradient id="SVGID_00000036960171722510089540000012810017770979373449_" gradientUnits="userSpaceOnUse" x1="1117.6625" y1="367.2625" x2="979.5375" y2="229.1375" gradientTransform="matrix(1 0 0 1 0 8)">
			<stop  offset="0" style="stop-color:#FFFFFF;stop-opacity:0"/>
			<stop  offset="1" style="stop-color:#B5B5B5;stop-opacity:0.9"/>
		</linearGradient>
		<path style="fill:url(#SVGID_00000036960171722510089540000012810017770979373449_);" d="M1048.6,403.9
			c-53.9,0-97.7-43.8-97.7-97.7s43.8-97.7,97.7-97.7s97.7,43.8,97.7,97.7S1102.5,403.9,1048.6,403.9z M1048.6,212.5
			c-51.7,0-93.7,42-93.7,93.7s42,93.7,93.7,93.7c51.7,0,93.7-42,93.7-93.7S1100.3,212.5,1048.6,212.5z"/>
	</g>
	<g id="Security_Profiles">
		<path class="st4" d="M1060.5,346.3h-58c-4.7,0-8.5-3.8-8.5-8.5v-76.1c0-4.7,3.8-8.6,8.5-8.6h57.6c4.7,0,8.6,3.8,8.6,8.6v76.5
			C1068.6,342.7,1065,346.3,1060.5,346.3L1060.5,346.3z M1002.5,257.1c-2.5,0-4.5,2-4.5,4.6v76.1c0,2.5,2,4.5,4.5,4.5h58
			c2.3,0,4.1-1.8,4.1-4.1v-76.5c0-2.5-2-4.6-4.6-4.6H1002.5L1002.5,257.1z"/>
		<path class="st4" d="M1092.8,360.9h-57.6c-4.7,0-8.6-3.8-8.6-8.5v-8c0-1.1,0.9-2,2-2s2,0.9,2,2v8c0,2.5,2,4.5,4.6,4.5h57.6
			c2.5,0,4.6-2,4.6-4.5v-76.1c0-2.5-2-4.5-4.6-4.5h-26.2c-1.1,0-2-0.9-2-2s0.9-2,2-2h26.2c4.7,0,8.6,3.8,8.6,8.5v76.1
			C1101.3,357,1097.5,360.9,1092.8,360.9z"/>
		<path class="st4" d="M1084.8,291.9h-18.2c-1.1,0-2-0.9-2-2s0.9-2,2-2h18.2c1.1,0,2,0.9,2,2S1085.9,291.9,1084.8,291.9z"/>
		<path class="st4" d="M1084.8,309h-18.2c-1.1,0-2-0.9-2-2s0.9-2,2-2h18.2c1.1,0,2,0.9,2,2S1085.9,309,1084.8,309z"/>
		<path class="st4" d="M1084.8,326h-18.2c-1.1,0-2-0.9-2-2s0.9-2,2-2h18.2c1.1,0,2,0.9,2,2S1085.9,326,1084.8,326z"/>
	</g>
	<path class="st3" d="M1054.6,299.7c0,4.2-1.1,8.2-3.1,11.6c-4,7-11.6,11.6-20.2,11.6v-46.6c8.7,0,16.3,4.8,20.3,11.9
		c1.9,3.3,2.9,7.1,3,11.2C1054.6,299.6,1054.6,299.7,1054.6,299.7L1054.6,299.7z"/>
	<path class="st4" d="M1031.3,325c-1.1,0-2-0.9-2-2v-46.6c0-1.1,0.9-2,2-2c9.1,0,17.6,5,22.1,12.9c2.1,3.7,3.2,7.9,3.2,12.1
		c0,0.1,0,0.1,0,0.2c0,4.5-1.2,8.8-3.4,12.6C1048.7,320.1,1040.3,325,1031.3,325L1031.3,325z M1033.3,278.5v42.4
		c6.8-0.6,13-4.6,16.4-10.5c1.9-3.2,2.8-6.9,2.8-10.6h2h-2v-0.1c0-3.6-1-7.1-2.7-10.3C1046.4,283.2,1040.2,279.2,1033.3,278.5
		L1033.3,278.5z"/>
	<path class="st3" d="M1008,299.7c0,4.2,1.1,8.2,3.1,11.6c4,7,11.5,11.6,20.2,11.6v-46.6c-8.7,0-16.3,4.8-20.3,11.9
		c-1.9,3.3-3,7.1-3,11.2C1008,299.6,1008,299.7,1008,299.7L1008,299.7z"/>
	<path class="st4" d="M1031.3,325c-9,0-17.4-4.8-21.9-12.6c-2.2-3.8-3.4-8.2-3.4-12.6c0-0.1,0-0.1,0-0.2c0-4.3,1.2-8.5,3.2-12.1
		c4.5-8,12.9-12.9,22.1-12.9c1.1,0,2,0.9,2,2V323C1033.3,324.1,1032.4,325,1031.3,325L1031.3,325z M1029.3,278.5
		c-6.9,0.6-13.1,4.7-16.6,10.8c-1.8,3.1-2.7,6.7-2.7,10.3v0.1l0,0c0,3.8,1,7.4,2.8,10.6c3.5,6,9.6,9.9,16.4,10.5L1029.3,278.5
		L1029.3,278.5z"/>
	<path class="st4" d="M1051.5,313.4c-0.2,0-0.4,0-0.6-0.1c-6.4-1.9-13-2.8-19.7-2.8c-1.1,0-2-0.9-2-2s0.9-2,2-2c7.1,0,14.1,1,20.8,3
		c1.1,0.3,1.7,1.4,1.4,2.5C1053.2,312.8,1052.4,313.4,1051.5,313.4L1051.5,313.4z"/>
	<path class="st4" d="M1031.3,325c-0.7,0-1.3-0.4-1.7-1c-0.6-1-0.2-2.2,0.7-2.7c7.6-4.5,12.3-12.7,12.3-21.5s-4.7-17.1-12.3-21.5
		c-0.9-0.6-1.3-1.8-0.7-2.7c0.6-1,1.8-1.3,2.7-0.7c8.8,5.2,14.3,14.8,14.3,25s-5.5,19.8-14.3,25C1032,324.9,1031.6,325,1031.3,325
		L1031.3,325z"/>
	<path class="st4" d="M1031.3,293.2c-1.1,0-2-0.9-2-2s0.9-2,2-2c6.7,0,13.4-1,19.8-2.8c1.1-0.3,2.2,0.3,2.5,1.4s-0.3,2.2-1.3,2.5
		C1045.4,292.2,1038.4,293.2,1031.3,293.2L1031.3,293.2z"/>
	<path class="st4" d="M1011,313.4c-0.9,0-1.7-0.6-1.9-1.4c-0.3-1.1,0.3-2.2,1.4-2.5c6.7-2,13.7-3,20.8-3c1.1,0,2,0.9,2,2s-0.9,2-2,2
		c-6.7,0-13.3,1-19.7,2.8C1011.4,313.4,1011.2,313.4,1011,313.4L1011,313.4z"/>
	<path class="st4" d="M1031.3,325c-0.3,0-0.7-0.1-1-0.3c-8.8-5.2-14.3-14.8-14.3-25s5.5-19.8,14.3-25c0.9-0.6,2.2-0.2,2.7,0.7
		c0.6,1,0.2,2.2-0.7,2.7c-7.6,4.5-12.3,12.7-12.3,21.5s4.7,17.1,12.3,21.5c0.9,0.6,1.3,1.8,0.7,2.7
		C1032.6,324.6,1032,325,1031.3,325L1031.3,325z"/>
	<path class="st4" d="M1031.3,293.2c-7.1,0-14.2-1-20.9-3c-1.1-0.3-1.7-1.4-1.3-2.5s1.4-1.7,2.5-1.4c6.4,1.9,13,2.8,19.8,2.8
		c1.1,0,2,0.9,2,2S1032.3,293.2,1031.3,293.2L1031.3,293.2z"/>
	<path class="st4" d="M1054.6,301.6H1008c-1.1,0-2-0.9-2-2s0.9-2,2-2h46.6c1.1,0,2,0.9,2,2S1055.7,301.6,1054.6,301.6z"/>
	<path class="st0" d="M591.5,431.8c-65.8,0-119.4-53.6-119.4-119.4h15c0,57.6,46.8,104.4,104.4,104.4c23.8,0,46.2-7.8,64.9-22.6
		c18.1-14.4,31.1-34.6,36.5-56.9l14.6,3.6c-6.3,25.5-21.1,48.6-41.8,65C644.4,422.8,618.7,431.8,591.5,431.8L591.5,431.8z"/>
	<polygon class="st0" points="680.4,341.8 703.4,312.4 717.4,347 	"/>
	<g>
		<circle class="st1" cx="590.8" cy="306.2" r="95.7"/>
		
			<linearGradient id="SVGID_00000159463362564405833770000001649132329893449628_" gradientUnits="userSpaceOnUse" x1="659.8625" y1="367.2625" x2="521.7375" y2="229.1375" gradientTransform="matrix(1 0 0 1 0 8)">
			<stop  offset="0" style="stop-color:#FFFFFF;stop-opacity:0"/>
			<stop  offset="1" style="stop-color:#B5B5B5;stop-opacity:0.9"/>
		</linearGradient>
		<path style="fill:url(#SVGID_00000159463362564405833770000001649132329893449628_);" d="M590.8,403.9
			c-53.9,0-97.7-43.8-97.7-97.7s43.8-97.7,97.7-97.7s97.7,43.8,97.7,97.7S644.7,403.9,590.8,403.9z M590.8,212.5
			c-51.7,0-93.7,42-93.7,93.7s42,93.7,93.7,93.7s93.7-42,93.7-93.7S642.5,212.5,590.8,212.5z"/>
	</g>
	<path class="st4" d="M590.8,368.1c-27.8,0-52.5-18.7-60-45.4c-0.3-1.1,0.3-2.2,1.4-2.5s2.2,0.3,2.5,1.4c7,25,30.1,42.5,56.2,42.5
		c28.9,0,53.8-21.5,57.8-50.1c0.2-1.1,1.2-1.9,2.3-1.7c1.1,0.1,1.9,1.2,1.7,2.3C648.3,345.1,621.7,368.1,590.8,368.1L590.8,368.1z"
		/>
	<polygon class="st4" points="538.7,322.5 531.1,314.3 527.8,324.9 	"/>
	<path class="st4" d="M531.1,299.3c-0.1,0-0.2,0-0.3,0c-1.1-0.1-1.9-1.2-1.7-2.3c4.3-30.6,30.8-53.6,61.7-53.6
		c27.8,0,52.5,18.7,60,45.5c0.3,1.1-0.3,2.2-1.4,2.5s-2.2-0.3-2.5-1.4c-7-25-30.1-42.5-56.2-42.5c-28.9,0-53.8,21.6-57.8,50.1
		C532.9,298.6,532.1,299.3,531.1,299.3L531.1,299.3z"/>
	<polygon class="st4" points="643,289.1 650.6,297.3 653.9,286.6 	"/>
	<path class="st3" d="M590.8,261.2v89.2c-24.6,0-44.6-20-44.6-44.6S566.2,261.2,590.8,261.2L590.8,261.2z"/>
	<path class="st4" d="M590.8,352.4c-25.7,0-46.6-20.9-46.6-46.6s20.9-46.6,46.6-46.6c1.1,0,2,0.9,2,2v89.2
		C592.8,351.5,591.9,352.4,590.8,352.4z M588.8,263.2c-22.6,1-40.6,19.7-40.6,42.5s18,41.5,40.6,42.5V263.2L588.8,263.2z"/>
	<path class="st4" d="M590.8,307.5c-0.5,0-1-0.2-1.4-0.6l-20.3-20.3c-0.8-0.8-0.8-2,0-2.8s2-0.8,2.8,0l20.3,20.3
		c0.8,0.8,0.8,2,0,2.8C591.9,307.3,591.4,307.5,590.8,307.5L590.8,307.5z"/>
	<path class="st4" d="M579.2,319.1c-0.5,0-1-0.2-1.4-0.6c-0.8-0.8-0.8-2,0-2.8l11.7-11.7c0.8-0.8,2-0.8,2.8,0s0.8,2,0,2.8
		l-11.7,11.7C580.2,318.9,579.7,319.1,579.2,319.1L579.2,319.1z"/>
	<path class="st4" d="M559.6,307.8h-13.3c-1.1,0-2-0.9-2-2s0.9-2,2-2h13.3c1.1,0,2,0.9,2,2S560.7,307.8,559.6,307.8z"/>
	<path class="st4" d="M559.3,339.3c-0.5,0-1-0.2-1.4-0.6c-0.8-0.8-0.8-2,0-2.8l9.5-9.5c0.8-0.8,2-0.8,2.8,0s0.8,2,0,2.8l-9.5,9.5
		C560.3,339.1,559.8,339.3,559.3,339.3L559.3,339.3z"/>
	<path class="st4" d="M596.9,352.4h-6c-1.1,0-2-0.9-2-2v-18.7c0-0.5,0.2-1,0.6-1.4c0.4-0.4,0.9-0.6,1.4-0.6
		c13.2,0,23.8-10.7,23.8-23.8S604,282,590.9,282c-0.5,0-1-0.2-1.4-0.6s-0.6-0.9-0.6-1.4v-18.7c0-1.1,0.9-2,2-2h6
		c0.8,0,1.6,0.5,1.9,1.3c0.3,0.9,0.6,1.7,0.8,2.5c1.6,4.9,2.4,7.1,5.5,8.3c3.2,1.3,5.3,0.4,10-1.9c0.7-0.4,1.5-0.7,2.3-1.1
		s1.7-0.2,2.3,0.4l8.5,8.5c0.6,0.6,0.8,1.5,0.4,2.3c-0.4,0.9-0.8,1.7-1.2,2.5c-2.3,4.5-3.2,6.6-1.9,9.6c1.2,3,3.4,3.8,8.1,5.5
		c0.9,0.3,1.8,0.6,2.8,1c0.8,0.3,1.3,1,1.3,1.9v12c0,0.8-0.5,1.6-1.3,1.9c-1,0.4-2,0.7-3,1c-4.6,1.6-6.7,2.4-7.9,5.4
		c-1.3,3-0.4,5.1,1.8,9.5c0.4,0.8,0.9,1.7,1.3,2.7c0.4,0.8,0.2,1.7-0.4,2.3l-8.5,8.5c-0.6,0.6-1.5,0.8-2.2,0.4
		c-0.9-0.4-1.8-0.9-2.6-1.3c-4.5-2.2-6.6-3.1-9.7-1.9c-3,1.3-3.8,3.5-5.4,8.3c-0.3,0.8-0.5,1.6-0.9,2.5
		C598.5,351.8,597.7,352.3,596.9,352.4L596.9,352.4z M592.8,348.4h2.6c0.1-0.4,0.2-0.8,0.4-1.1c1.6-4.8,2.9-8.6,7.7-10.7
		c4.9-2,8.5-0.2,13,2c0.4,0.2,0.9,0.4,1.3,0.6l6.5-6.5c-0.2-0.5-0.5-0.9-0.7-1.3c-2.2-4.5-4-8-1.9-12.8c1.9-4.8,5.6-6,10.3-7.6
		c0.5-0.2,1-0.3,1.5-0.5v-9.1c-0.5-0.2-0.9-0.3-1.4-0.5c-4.8-1.6-8.5-2.9-10.5-7.7c-2.1-4.9-0.3-8.5,2-13c0.2-0.4,0.4-0.7,0.6-1.1
		l-6.5-6.5c-0.3,0.2-0.7,0.3-1,0.5c-4.6,2.3-8.3,4.1-13.3,2c-4.9-2-6.1-5.8-7.7-10.7c-0.1-0.4-0.2-0.7-0.3-1.1h-2.6V278
		c14.4,1,25.8,13.1,25.8,27.8s-11.4,26.8-25.8,27.8L592.8,348.4L592.8,348.4z"/>
	<path class="st0" d="M715.6,304.4h-15c0-65.9,53.6-119.4,119.4-119.4c27.2,0,52.9,9,74.2,25.9c20.7,16.4,35.5,39.5,41.8,65
		l-14.6,3.6c-5.5-22.3-18.5-42.5-36.5-56.9C866.3,207.8,843.8,200,820,200C762.4,199.9,715.6,246.8,715.6,304.4z"/>
	<polygon class="st0" points="946,269.7 932,304.4 908.9,274.9 	"/>
	<g>
		<circle class="st1" cx="820" cy="308.2" r="95.7"/>
		
			<linearGradient id="SVGID_00000085223468185929351470000002601004511884831163_" gradientUnits="userSpaceOnUse" x1="889.0438" y1="369.2438" x2="750.9375" y2="231.1375" gradientTransform="matrix(1 0 0 1 0 8)">
			<stop  offset="0" style="stop-color:#FFFFFF;stop-opacity:0"/>
			<stop  offset="1" style="stop-color:#B5B5B5;stop-opacity:0.9"/>
		</linearGradient>
		<path style="fill:url(#SVGID_00000085223468185929351470000002601004511884831163_);" d="M820,405.9c-53.9,0-97.7-43.8-97.7-97.7
			s43.8-97.7,97.7-97.7s97.7,43.8,97.7,97.7S873.8,405.9,820,405.9z M820,214.5c-51.7,0-93.7,42-93.7,93.7s42,93.7,93.7,93.7
			s93.7-42,93.7-93.7S871.6,214.5,820,214.5z"/>
	</g>
	<rect x="762.4" y="249" class="st3" width="49.3" height="29.5"/>
	<path class="st4" d="M811.7,280.5h-49.3c-1.1,0-2-0.9-2-2V249c0-1.1,0.9-2,2-2h49.3c1.1,0,2,0.9,2,2v29.5
		C813.7,279.6,812.8,280.5,811.7,280.5z M764.4,276.5h45.3V251h-45.3V276.5z"/>
	<path class="st4" d="M821.5,292.4h-69c-0.8,0-1.5-0.5-1.8-1.1s-0.2-1.5,0.3-2.1l9.8-12c0.4-0.5,1-0.7,1.5-0.7h49.3
		c0.6,0,1.2,0.3,1.5,0.7l9.8,12c0.5,0.6,0.6,1.4,0.3,2.1S822.3,292.4,821.5,292.4L821.5,292.4z M756.7,288.4h60.6l-6.6-8h-47.5
		L756.7,288.4L756.7,288.4z"/>
	<rect x="818.2" y="328.7" class="st3" width="49.3" height="29.5"/>
	<path class="st4" d="M867.6,360.2h-49.3c-1.1,0-2-0.9-2-2v-29.5c0-1.1,0.9-2,2-2h49.3c1.1,0,2,0.9,2,2v29.5
		C869.6,359.3,868.7,360.2,867.6,360.2z M820.2,356.2h45.3v-25.5h-45.3V356.2z"/>
	<path class="st4" d="M877.4,372.1h-69c-0.8,0-1.5-0.5-1.8-1.1s-0.2-1.5,0.3-2.1l9.8-12c0.4-0.5,1-0.7,1.5-0.7h49.3
		c0.6,0,1.2,0.3,1.5,0.7l9.8,12c0.5,0.6,0.6,1.4,0.3,2.1C878.9,371.7,878.2,372.1,877.4,372.1L877.4,372.1z M812.6,368.1h60.6
		l-6.6-8h-47.5L812.6,368.1L812.6,368.1z"/>
	<path class="st4" d="M842.9,308.5c-1.1,0-2-0.9-2-2v-40.8h-29.2c-1.1,0-2-0.9-2-2s0.9-2,2-2h31.2c1.1,0,2,0.9,2,2v42.8
		C844.9,307.6,844,308.5,842.9,308.5z"/>
	<polygon class="st4" points="835.5,304.4 842.9,317.1 850.2,304.4 	"/>
	<path class="st4" d="M818.2,345.4H787c-1.1,0-2-0.9-2-2V310c0-1.1,0.9-2,2-2s2,0.9,2,2v31.4h29.2c1.1,0,2,0.9,2,2
		S819.3,345.4,818.2,345.4z"/>
	<polygon class="st4" points="794.4,312.1 787,299.4 779.7,312.1 	"/>
	<path class="st4" d="M47.1,131.5l8.2-23.3h5.2l8.2,23.3h-4.5l-1.9-5.7h-8.8l-1.9,5.7H47.1L47.1,131.5z M61.2,122.4L58,113h-0.2
		l-3.2,9.4C54.7,122.4,61.2,122.4,61.2,122.4z"/>
	<path class="st4" d="M71.6,114.1h4.1v2.9h0.2c0.6-1.3,1.9-3.1,5-3.1c4,0,7.2,3.2,7.2,9c0,5.8-3.1,9-7.2,9c-3,0-4.3-1.8-5-3.1h-0.2
		v9.3h-4.1V114.1L71.6,114.1z M79.8,128.4c2.7,0,4.2-2.4,4.2-5.7c0-3.3-1.4-5.6-4.2-5.6s-4.1,2.2-4.1,5.6S77.2,128.4,79.8,128.4z"/>
	<path class="st4" d="M91.6,114.1h4.1v2.9h0.2c0.6-1.3,1.9-3.1,5-3.1c4,0,7.2,3.2,7.2,9c0,5.8-3.1,9-7.2,9c-3,0-4.3-1.8-5-3.1h-0.2
		v9.3h-4.1V114.1L91.6,114.1z M99.8,128.4c2.7,0,4.2-2.4,4.2-5.7c0-3.3-1.4-5.6-4.2-5.6s-4.1,2.2-4.1,5.6S97.1,128.4,99.8,128.4z"/>
	<path class="st4" d="M115.7,131.5h-4.1v-23.3h4.1V131.5z"/>
	<path class="st4" d="M119.6,109.3c0-1.2,1.1-2.2,2.4-2.2s2.4,1,2.4,2.2s-1.1,2.2-2.4,2.2S119.6,110.6,119.6,109.3z M119.9,114.1
		h4.1v17.5h-4.1V114.1z"/>
	<path class="st4" d="M127.5,122.8c0-5.3,3.2-9,8.3-9c4.3,0,7.2,2.5,7.5,6.3h-3.9c-0.3-1.7-1.5-3-3.5-3c-2.5,0-4.2,2.1-4.2,5.6
		s1.7,5.7,4.2,5.7c1.8,0,3.2-1.1,3.5-3h3.9c-0.3,3.7-3.1,6.3-7.5,6.3C130.7,131.8,127.5,128.1,127.5,122.8L127.5,122.8z"/>
	<path class="st4" d="M145.9,126.6c0-3.9,3.2-4.9,6.6-5.3c3.1-0.3,4.3-0.4,4.3-1.6v-0.1c0-1.7-1.1-2.7-3-2.7c-2,0-3.2,1-3.6,2.2
		l-3.8-0.6c0.9-3.2,3.7-4.8,7.4-4.8c3.3,0,7.1,1.4,7.1,6v11.7h-4V129h-0.1c-0.8,1.5-2.4,2.8-5.1,2.8
		C148.4,131.9,145.9,130,145.9,126.6L145.9,126.6z M156.9,125.2v-2.1c-0.5,0.4-2.7,0.7-3.8,0.8c-1.8,0.3-3.2,0.9-3.2,2.5
		s1.2,2.3,2.9,2.3C155.3,128.8,156.9,127.2,156.9,125.2z"/>
	<path class="st4" d="M173.9,117.2h-3.4v9c0,1.7,0.8,2,1.9,2c0.5,0,1-0.1,1.2-0.2l0.7,3.2c-0.4,0.1-1.2,0.4-2.4,0.4
		c-3.1,0.1-5.5-1.5-5.5-4.8v-9.7h-2.5v-3.2h2.5v-4.2h4.1v4.2h3.4V117.2z"/>
	<path class="st4" d="M177,109.3c0-1.2,1.1-2.2,2.4-2.2s2.4,1,2.4,2.2s-1.1,2.2-2.4,2.2S177,110.6,177,109.3z M177.3,114.1h4.1v17.5
		h-4.1V114.1z"/>
	<path class="st4" d="M184.9,122.8c0-5.4,3.2-9,8.4-9s8.4,3.6,8.4,9c0,5.4-3.2,9-8.4,9S184.9,128.2,184.9,122.8z M197.5,122.8
		c0-3.2-1.4-5.8-4.2-5.8s-4.2,2.6-4.2,5.8s1.4,5.7,4.2,5.7S197.5,126,197.5,122.8z"/>
	<path class="st4" d="M209.2,131.5h-4.1V114h3.9v3h0.2c0.8-1.9,2.6-3.2,5.2-3.2c3.6,0,6,2.4,6,6.6v11.1h-4.1V121
		c0-2.3-1.3-3.7-3.4-3.7s-3.7,1.5-3.7,4L209.2,131.5L209.2,131.5z"/>
	<path class="st4" d="M94.1,146.6h4.2v19.8h10.2v3.5H94.1V146.6L94.1,146.6z"/>
	<path class="st4" d="M111.2,165c0-3.9,3.2-4.9,6.6-5.3c3.1-0.3,4.3-0.4,4.3-1.6V158c0-1.7-1.1-2.7-3-2.7c-2,0-3.2,1-3.6,2.2
		l-3.8-0.6c0.9-3.2,3.7-4.8,7.4-4.8c3.3,0,7.1,1.4,7.1,6v11.7h-4v-2.4h-0.1c-0.8,1.5-2.4,2.8-5.1,2.8
		C113.7,170.3,111.2,168.4,111.2,165L111.2,165z M122.1,163.6v-2.1c-0.5,0.4-2.7,0.7-3.8,0.9c-1.8,0.3-3.2,0.9-3.2,2.5
		s1.2,2.3,2.9,2.3C120.6,167.2,122.1,165.6,122.1,163.6L122.1,163.6z"/>
	<path class="st4" d="M129.6,176l1-3.2c1.8,0.5,3,0.4,3.8-1.6l0.4-0.9l-6.3-17.8h4.4l4,13.2h0.2l4-13.2h4.4l-7,19.6
		c-1,2.8-2.8,4.4-6.1,4.4C131.2,176.5,130.2,176.3,129.6,176L129.6,176z"/>
	<path class="st4" d="M146.8,161.3c0-5.4,3.3-9.1,8.3-9.1c4.3,0,8,2.7,8,8.8v1.3h-12.2c0,3,1.8,4.7,4.5,4.7c1.8,0,3.1-0.8,3.7-2.2
		l3.8,0.4c-0.7,3-3.5,5-7.6,5C150,170.2,146.8,166.8,146.8,161.3L146.8,161.3z M159.1,159.5c0-2.4-1.6-4.1-4-4.1s-4.1,1.9-4.2,4.1
		H159.1L159.1,159.5z"/>
	<path class="st4" d="M166.5,152.4h4v2.9h0.2c0.6-2,2.3-3.2,4.3-3.2c0.4,0,1.1,0,1.5,0.1v3.8c-0.4-0.1-1.2-0.2-1.9-0.2
		c-2.3,0-3.9,1.6-3.9,3.8v10.3h-4.1v-17.5H166.5z"/>
	<path class="st4" d="M266.5,448.5h8.7c5.4,0,8.2,3.3,8.2,7.7s-2.9,7.7-8.3,7.7h-4.5v7.9h-4.2L266.5,448.5L266.5,448.5z
		 M274.6,460.5c3.1,0,4.5-1.8,4.5-4.2s-1.4-4.2-4.6-4.2h-3.9v8.4L274.6,460.5L274.6,460.5z"/>
	<path class="st4" d="M286.9,454.3h4v2.9h0.2c0.6-2,2.3-3.2,4.3-3.2c0.5,0,1.1,0,1.5,0.1v3.8c-0.4-0.1-1.2-0.2-1.9-0.2
		c-2.3,0-3.9,1.6-3.9,3.8v10.3H287v-17.5H286.9z"/>
	<path class="st4" d="M298.1,463.2c0-5.4,3.3-9.1,8.3-9.1c4.3,0,8,2.7,8,8.8v1.3h-12.2c0,3,1.8,4.7,4.5,4.7c1.8,0,3.1-0.8,3.7-2.2
		l3.8,0.4c-0.7,3-3.5,5-7.6,5C301.3,472.1,298.1,468.6,298.1,463.2L298.1,463.2z M310.4,461.4c0-2.4-1.6-4.1-4-4.1s-4.1,1.9-4.2,4.1
		H310.4L310.4,461.4z"/>
	<path class="st4" d="M327.9,459.4c-0.3-1.1-1.3-2.2-3.2-2.2c-1.7,0-3,0.8-3,2c0,1,0.7,1.6,2.5,2l3,0.6c3.3,0.7,4.9,2.2,4.9,4.7
		c0,3.3-3.1,5.6-7.5,5.6s-7-1.9-7.5-5.1l4-0.4c0.4,1.6,1.6,2.4,3.5,2.4s3.2-0.9,3.2-2.1c0-1-0.8-1.6-2.4-2l-3-0.6
		c-3.4-0.7-4.9-2.4-4.9-4.9c0-3.2,2.9-5.3,7.1-5.3s6.5,1.9,7,4.8L327.9,459.4L327.9,459.4z"/>
	<path class="st4" d="M334.6,463.2c0-5.4,3.3-9.1,8.3-9.1c4.3,0,8,2.7,8,8.8v1.3h-12.2c0,3,1.8,4.7,4.5,4.7c1.8,0,3.1-0.8,3.7-2.2
		l3.8,0.4c-0.7,3-3.5,5-7.6,5C337.8,472.1,334.6,468.6,334.6,463.2L334.6,463.2z M346.9,461.4c0-2.4-1.6-4.1-4-4.1s-4.1,1.9-4.2,4.1
		H346.9L346.9,461.4z"/>
	<path class="st4" d="M358.5,471.8h-4.1v-17.5h3.9v3h0.2c0.8-1.9,2.6-3.2,5.2-3.2c3.6,0,6,2.4,6,6.6v11.1h-4.1v-10.5
		c0-2.3-1.3-3.7-3.4-3.7s-3.7,1.5-3.7,4V471.8L358.5,471.8z"/>
	<path class="st4" d="M382.6,457.5h-3.4v9c0,1.7,0.8,2,1.9,2c0.5,0,1-0.1,1.2-0.2l0.7,3.2c-0.4,0.1-1.2,0.4-2.4,0.4
		c-3.1,0.1-5.5-1.5-5.5-4.8v-9.7h-2.5v-3.2h2.5V450h4.1v4.2h3.4L382.6,457.5L382.6,457.5z"/>
	<path class="st4" d="M385.2,466.9c0-3.9,3.2-5,6.6-5.3c3.1-0.3,4.3-0.4,4.3-1.6v-0.1c0-1.7-1-2.7-3-2.7s-3.2,1-3.6,2.2l-3.8-0.5
		c0.9-3.2,3.7-4.8,7.4-4.8c3.3,0,7.1,1.4,7.1,6v11.7h-4v-2.4h-0.1c-0.8,1.5-2.4,2.8-5.1,2.8C387.7,472.1,385.2,470.3,385.2,466.9
		L385.2,466.9z M396.1,465.5v-2.1c-0.5,0.4-2.7,0.7-3.8,0.9c-1.8,0.3-3.2,0.9-3.2,2.5s1.2,2.3,2.9,2.3
		C394.6,469.1,396.1,467.5,396.1,465.5z"/>
	<path class="st4" d="M413.1,457.5h-3.4v9c0,1.7,0.8,2,1.9,2c0.5,0,1-0.1,1.2-0.2l0.7,3.2c-0.4,0.1-1.2,0.4-2.4,0.4
		c-3.1,0.1-5.5-1.5-5.5-4.8v-9.7h-2.5v-3.2h2.5V450h4.1v4.2h3.4L413.1,457.5L413.1,457.5z"/>
	<path class="st4" d="M416.2,449.6c0-1.2,1.1-2.2,2.4-2.2s2.4,1,2.4,2.2s-1.1,2.2-2.4,2.2S416.2,450.9,416.2,449.6z M416.6,454.3
		h4.1v17.5h-4.1V454.3z"/>
	<path class="st4" d="M424.1,463.1c0-5.4,3.2-9,8.4-9s8.4,3.6,8.4,9s-3.2,9-8.4,9S424.1,468.5,424.1,463.1z M436.7,463.1
		c0-3.2-1.4-5.8-4.2-5.8s-4.2,2.6-4.2,5.8s1.4,5.7,4.2,5.7S436.7,466.3,436.7,463.1z"/>
	<path class="st4" d="M448.5,471.8h-4.1v-17.5h3.9v3h0.2c0.8-1.9,2.6-3.2,5.2-3.2c3.6,0,6,2.4,6,6.6v11.1h-4.1v-10.5
		c0-2.3-1.3-3.7-3.4-3.7s-3.7,1.5-3.7,4V471.8L448.5,471.8z"/>
	<path class="st4" d="M322.6,486.9h4.2v19.8H337v3.5h-14.5v-23.3H322.6z"/>
	<path class="st4" d="M339.7,505.3c0-3.9,3.2-5,6.6-5.3c3.1-0.3,4.3-0.4,4.3-1.6v-0.1c0-1.7-1-2.7-3-2.7s-3.2,1-3.6,2.2l-3.8-0.5
		c0.9-3.2,3.7-4.8,7.4-4.8c3.3,0,7.1,1.4,7.1,6v11.7h-4v-2.4h-0.1c-0.8,1.5-2.4,2.8-5.1,2.8C342.2,510.5,339.7,508.7,339.7,505.3
		L339.7,505.3z M350.6,503.9v-2.1c-0.5,0.4-2.7,0.7-3.8,0.9c-1.8,0.3-3.2,0.9-3.2,2.5s1.2,2.3,2.9,2.3
		C349.1,507.5,350.6,505.9,350.6,503.9z"/>
	<path class="st4" d="M358.1,516.3l1-3.2c1.8,0.5,3,0.4,3.8-1.6l0.4-0.9l-6.3-17.8h4.4l4,13.2h0.2l4-13.2h4.4l-7,19.6
		c-1,2.8-2.8,4.4-6,4.4C359.7,516.7,358.7,516.5,358.1,516.3L358.1,516.3z"/>
	<path class="st4" d="M375.3,501.6c0-5.4,3.3-9.1,8.3-9.1c4.3,0,8,2.7,8,8.8v1.3h-12.2c0,3,1.8,4.7,4.5,4.7c1.8,0,3.1-0.8,3.7-2.2
		l3.8,0.4c-0.7,3-3.5,5-7.6,5C378.6,510.5,375.3,507,375.3,501.6L375.3,501.6z M387.6,499.8c0-2.4-1.6-4.1-4-4.1s-4.1,1.9-4.2,4.1
		H387.6L387.6,499.8z"/>
	<path class="st4" d="M395,492.7h4v2.9h0.2c0.6-2,2.3-3.2,4.3-3.2c0.5,0,1.1,0,1.5,0.1v3.8c-0.4-0.1-1.2-0.2-1.9-0.2
		c-2.3,0-3.9,1.6-3.9,3.8v10.3H395V492.7L395,492.7z"/>
	<path class="st4" d="M541,111.5c-2.6,0-4.2,1.3-4.2,3c0,1.9,2,2.8,4,3.2l2.2,0.6c3.5,0.8,6.8,2.7,6.8,6.7c0,4.1-3.2,6.9-8.8,6.9
		s-8.9-2.6-9-7.2h4.2c0.2,2.4,2.2,3.6,4.8,3.6s4.6-1.3,4.7-3.3c0-1.8-1.7-2.6-4.2-3.2l-2.7-0.7c-3.8-1-6.2-2.9-6.2-6.2
		c0-4.1,3.7-6.9,8.5-6.9s8.3,2.8,8.4,6.7h-4.1C545.1,112.7,543.5,111.5,541,111.5L541,111.5z"/>
	<path class="st4" d="M552.5,122.9c0-5.4,3.3-9.1,8.3-9.1c4.3,0,8,2.7,8,8.8v1.3h-12.2c0,3,1.8,4.7,4.5,4.7c1.8,0,3.1-0.8,3.7-2.2
		l3.8,0.4c-0.7,3-3.5,5-7.6,5C555.8,131.8,552.5,128.4,552.5,122.9L552.5,122.9z M564.8,121.1c0-2.4-1.6-4.1-4-4.1s-4.1,1.9-4.2,4.1
		H564.8L564.8,121.1z"/>
	<path class="st4" d="M582.3,119.1c-0.3-1.2-1.3-2.2-3.2-2.2c-1.7,0-3,0.8-3,2c0,1,0.7,1.6,2.5,2l3,0.6c3.3,0.7,4.9,2.2,4.9,4.7
		c0,3.3-3.1,5.6-7.5,5.6s-7-1.9-7.5-5.1l4-0.4c0.3,1.6,1.6,2.4,3.5,2.4s3.2-0.9,3.2-2.1c0-1-0.8-1.6-2.3-2l-3-0.6
		c-3.3-0.7-4.9-2.4-4.9-4.9c0-3.2,2.8-5.3,7.1-5.3s6.5,1.9,7,4.8L582.3,119.1L582.3,119.1z"/>
	<path class="st4" d="M599.9,119.1c-0.3-1.2-1.3-2.2-3.2-2.2c-1.7,0-3,0.8-3,2c0,1,0.7,1.6,2.5,2l3,0.6c3.3,0.7,4.9,2.2,4.9,4.7
		c0,3.3-3.1,5.6-7.5,5.6s-7-1.9-7.5-5.1l4-0.4c0.3,1.6,1.6,2.4,3.5,2.4s3.2-0.9,3.2-2.1c0-1-0.8-1.6-2.3-2l-3-0.6
		c-3.3-0.7-4.9-2.4-4.9-4.9c0-3.2,2.8-5.3,7.1-5.3s6.5,1.9,7,4.8L599.9,119.1L599.9,119.1z"/>
	<path class="st4" d="M607.1,109.3c0-1.2,1.1-2.2,2.4-2.2s2.4,1,2.4,2.2s-1.1,2.2-2.4,2.2S607.1,110.6,607.1,109.3z M607.4,114.1
		h4.1v17.5h-4.1V114.1z"/>
	<path class="st4" d="M615,122.8c0-5.4,3.2-9,8.4-9s8.4,3.6,8.4,9c0,5.4-3.2,9-8.4,9S615,128.2,615,122.8z M627.5,122.8
		c0-3.2-1.4-5.8-4.2-5.8s-4.2,2.6-4.2,5.8s1.4,5.7,4.2,5.7S627.5,126,627.5,122.8z"/>
	<path class="st4" d="M639.3,131.5h-4.1V114h3.9v3h0.2c0.8-1.9,2.6-3.2,5.2-3.2c3.6,0,6,2.4,6,6.6v11.1h-4.1V121
		c0-2.3-1.3-3.7-3.4-3.7s-3.7,1.5-3.7,4L639.3,131.5L639.3,131.5z"/>
	<path class="st4" d="M551.1,146.6h4.2v19.8h10.2v3.5H551L551.1,146.6L551.1,146.6z"/>
	<path class="st4" d="M568.2,165c0-3.9,3.2-4.9,6.6-5.3c3.1-0.3,4.3-0.4,4.3-1.6V158c0-1.7-1-2.7-3-2.7s-3.2,1-3.6,2.2l-3.8-0.6
		c0.9-3.2,3.7-4.8,7.4-4.8c3.3,0,7.1,1.4,7.1,6v11.7h-4v-2.4h-0.1c-0.8,1.5-2.4,2.8-5.1,2.8C570.7,170.3,568.2,168.4,568.2,165
		L568.2,165z M579.2,163.7v-2.1c-0.5,0.4-2.7,0.7-3.8,0.9c-1.8,0.3-3.2,0.9-3.2,2.5s1.2,2.3,2.9,2.3
		C577.6,167.2,579.2,165.6,579.2,163.7L579.2,163.7z"/>
	<path class="st4" d="M586.7,176l1-3.2c1.8,0.5,3,0.4,3.8-1.6l0.3-0.9l-6.3-17.8h4.4l4,13.2h0.2l4-13.2h4.4l-7,19.6
		c-1,2.8-2.8,4.4-6,4.4C588.2,176.5,587.2,176.3,586.7,176L586.7,176z"/>
	<path class="st4" d="M603.9,161.3c0-5.4,3.3-9.1,8.3-9.1c4.3,0,8,2.7,8,8.8v1.3H608c0,3,1.8,4.7,4.5,4.7c1.8,0,3.1-0.8,3.7-2.2
		l3.8,0.4c-0.7,3-3.5,5-7.6,5C607.1,170.2,603.9,166.8,603.9,161.3L603.9,161.3z M616.2,159.5c0-2.4-1.6-4.1-4-4.1s-4.1,1.9-4.2,4.1
		H616.2L616.2,159.5z"/>
	<path class="st4" d="M623.6,152.4h4v2.9h0.2c0.6-2,2.3-3.2,4.3-3.2c0.5,0,1.1,0,1.5,0.1v3.8c-0.3-0.1-1.2-0.2-1.9-0.2
		c-2.3,0-3.9,1.6-3.9,3.8v10.3h-4.1L623.6,152.4L623.6,152.4z"/>
	<path class="st4" d="M745.1,448.5h18.6v3.5h-7.2v19.8h-4.2V452h-7.2L745.1,448.5L745.1,448.5z"/>
	<path class="st4" d="M765.2,454.3h4v2.9h0.2c0.6-2,2.3-3.2,4.3-3.2c0.5,0,1.1,0,1.5,0.1v3.8c-0.3-0.1-1.2-0.2-1.9-0.2
		c-2.3,0-3.9,1.6-3.9,3.8v10.3h-4.1L765.2,454.3L765.2,454.3z"/>
	<path class="st4" d="M776.8,466.9c0-3.9,3.2-5,6.6-5.3c3.1-0.3,4.3-0.4,4.3-1.6v-0.1c0-1.7-1-2.7-3-2.7s-3.2,1-3.6,2.2l-3.8-0.5
		c0.9-3.2,3.7-4.8,7.4-4.8c3.3,0,7.1,1.4,7.1,6v11.7h-4v-2.4h-0.1c-0.8,1.5-2.4,2.8-5.1,2.8C779.3,472.1,776.8,470.3,776.8,466.9
		L776.8,466.9z M787.8,465.5v-2.1c-0.5,0.4-2.7,0.7-3.8,0.9c-1.8,0.3-3.2,0.9-3.2,2.5s1.2,2.3,2.9,2.3
		C786.2,469.1,787.8,467.5,787.8,465.5z"/>
	<path class="st4" d="M800.1,471.8H796v-17.5h3.9v3h0.2c0.8-1.9,2.6-3.2,5.2-3.2c3.6,0,6,2.4,6,6.6v11.1h-4.1v-10.5
		c0-2.3-1.3-3.7-3.4-3.7s-3.7,1.5-3.7,4L800.1,471.8L800.1,471.8z"/>
	<path class="st4" d="M825.6,459.4c-0.3-1.1-1.3-2.2-3.2-2.2c-1.7,0-3,0.8-3,2c0,1,0.7,1.6,2.5,2l3,0.6c3.3,0.7,4.9,2.2,4.9,4.7
		c0,3.3-3.1,5.6-7.5,5.6s-7-1.9-7.5-5.1l4-0.4c0.3,1.6,1.6,2.4,3.5,2.4s3.2-0.9,3.2-2.1c0-1-0.8-1.6-2.3-2l-3-0.6
		c-3.3-0.7-4.9-2.4-4.9-4.9c0-3.2,2.8-5.3,7.1-5.3s6.5,1.9,7,4.8L825.6,459.4L825.6,459.4z"/>
	<path class="st4" d="M833.1,454.3h4v2.9h0.2c0.6-1.3,1.9-3.1,5-3.1c4,0,7.2,3.2,7.2,9s-3.1,9-7.2,9c-3,0-4.3-1.8-5-3.1h-0.2v9.3
		H833L833.1,454.3L833.1,454.3z M841.2,468.7c2.7,0,4.2-2.4,4.2-5.7s-1.4-5.6-4.2-5.6s-4.1,2.2-4.1,5.6S838.6,468.7,841.2,468.7z"/>
	<path class="st4" d="M852.3,463.1c0-5.4,3.2-9,8.4-9s8.4,3.6,8.4,9s-3.2,9-8.4,9S852.3,468.5,852.3,463.1z M864.9,463.1
		c0-3.2-1.4-5.8-4.2-5.8s-4.2,2.6-4.2,5.8s1.4,5.7,4.2,5.7S864.9,466.3,864.9,463.1z"/>
	<path class="st4" d="M872.5,454.3h4v2.9h0.2c0.6-2,2.3-3.2,4.3-3.2c0.5,0,1.1,0,1.5,0.1v3.8c-0.3-0.1-1.2-0.2-1.9-0.2
		c-2.3,0-3.9,1.6-3.9,3.8v10.3h-4.1L872.5,454.3L872.5,454.3z"/>
	<path class="st4" d="M894.9,457.5h-3.4v9c0,1.7,0.8,2,1.9,2c0.5,0,1-0.1,1.2-0.2l0.7,3.2c-0.4,0.1-1.2,0.4-2.4,0.4
		c-3.1,0.1-5.5-1.5-5.5-4.8v-9.7h-2.5v-3.2h2.5V450h4.1v4.2h3.4V457.5z"/>
	<path class="st4" d="M779.6,486.9h4.2v19.8H794v3.5h-14.5L779.6,486.9L779.6,486.9z"/>
	<path class="st4" d="M796.8,505.3c0-3.9,3.2-5,6.6-5.3c3.1-0.3,4.3-0.4,4.3-1.6v-0.1c0-1.7-1-2.7-3-2.7s-3.2,1-3.6,2.2l-3.8-0.5
		c0.9-3.2,3.7-4.8,7.4-4.8c3.3,0,7.1,1.4,7.1,6v11.7h-4v-2.4h-0.1c-0.8,1.5-2.4,2.8-5.1,2.8C799.2,510.5,796.7,508.7,796.8,505.3
		L796.8,505.3z M807.7,503.9v-2.1c-0.5,0.4-2.7,0.7-3.8,0.9c-1.8,0.3-3.2,0.9-3.2,2.5s1.2,2.3,2.9,2.3
		C806.1,507.5,807.7,505.9,807.7,503.9z"/>
	<path class="st4" d="M815.2,516.3l1-3.2c1.8,0.5,3,0.4,3.8-1.6l0.3-0.9l-6.3-17.8h4.4l4,13.2h0.2l4-13.2h4.4l-7,19.6
		c-1,2.8-2.8,4.4-6,4.4C816.8,516.7,815.8,516.5,815.2,516.3L815.2,516.3z"/>
	<path class="st4" d="M832.4,501.6c0-5.4,3.3-9.1,8.3-9.1c4.3,0,8,2.7,8,8.8v1.3h-12.2c0,3,1.8,4.7,4.5,4.7c1.8,0,3.1-0.8,3.7-2.2
		l3.8,0.4c-0.7,3-3.5,5-7.6,5C835.6,510.5,832.4,507,832.4,501.6L832.4,501.6z M844.7,499.8c0-2.4-1.6-4.1-4-4.1s-4.1,1.9-4.2,4.1
		H844.7L844.7,499.8z"/>
	<path class="st4" d="M852.1,492.7h4v2.9h0.2c0.6-2,2.3-3.2,4.3-3.2c0.5,0,1.1,0,1.5,0.1v3.8c-0.3-0.1-1.2-0.2-1.9-0.2
		c-2.3,0-3.9,1.6-3.9,3.8v10.3h-4.1L852.1,492.7L852.1,492.7z"/>
	<path class="st4" d="M1004.2,131.5h-3.8l-11-15.9h-0.2v15.9H985v-23.3h3.8l11,15.9h0.2v-15.9h4.2V131.5L1004.2,131.5z"/>
	<path class="st4" d="M1007.9,122.9c0-5.4,3.3-9.1,8.3-9.1c4.3,0,8,2.7,8,8.8v1.3H1012c0,3,1.8,4.7,4.5,4.7c1.8,0,3.1-0.8,3.7-2.2
		l3.8,0.4c-0.7,3-3.5,5-7.6,5C1011.1,131.8,1007.9,128.4,1007.9,122.9L1007.9,122.9z M1020.2,121.1c0-2.4-1.6-4.1-4-4.1
		s-4.1,1.9-4.2,4.1H1020.2L1020.2,121.1z"/>
	<path class="st4" d="M1036.3,117.2h-3.4v9c0,1.7,0.8,2,1.9,2c0.5,0,1-0.1,1.2-0.2l0.7,3.2c-0.4,0.1-1.2,0.4-2.4,0.4
		c-3.1,0.1-5.5-1.5-5.5-4.8v-9.7h-2.5v-3.2h2.5v-4.2h4.1v4.2h3.4L1036.3,117.2L1036.3,117.2z"/>
	<path class="st4" d="M1038.4,114.1h4.2l3.1,12.3h0.2l3.1-12.3h4.2l3.1,12.2h0.2l3-12.2h4.2l-4.9,17.5h-4.3l-3.3-11.8h-0.2
		l-3.3,11.8h-4.3L1038.4,114.1L1038.4,114.1z"/>
	<path class="st4" d="M1065.3,122.8c0-5.4,3.2-9,8.4-9s8.4,3.6,8.4,9c0,5.4-3.2,9-8.4,9S1065.3,128.2,1065.3,122.8z M1077.9,122.8
		c0-3.2-1.4-5.8-4.2-5.8s-4.2,2.6-4.2,5.8s1.4,5.7,4.2,5.7S1077.9,126,1077.9,122.8z"/>
	<path class="st4" d="M1085.5,114.1h4v2.9h0.2c0.6-2,2.3-3.2,4.3-3.2c0.5,0,1.1,0,1.5,0.1v3.8c-0.3-0.1-1.2-0.2-1.9-0.2
		c-2.3,0-3.9,1.6-3.9,3.8v10.3h-4.1C1085.5,131.5,1085.5,114.1,1085.5,114.1z"/>
	<path class="st4" d="M1098.2,108.2h4.1V121h0.3l6.3-7h4.8l-6.8,7.5l7.2,9.9h-4.9l-5.3-7.5l-1.5,1.6v5.9h-4.1L1098.2,108.2
		L1098.2,108.2z"/>
	<path class="st4" d="M1008.2,146.6h4.2v19.8h10.2v3.5h-14.5L1008.2,146.6L1008.2,146.6z"/>
	<path class="st4" d="M1025.3,165c0-3.9,3.2-4.9,6.6-5.3c3.1-0.3,4.3-0.4,4.3-1.6V158c0-1.7-1.1-2.7-3-2.7c-2,0-3.2,1-3.6,2.2
		l-3.8-0.6c0.9-3.2,3.7-4.8,7.4-4.8c3.3,0,7.1,1.4,7.1,6v11.7h-4v-2.4h-0.1c-0.8,1.5-2.4,2.8-5.1,2.8
		C1027.8,170.3,1025.3,168.4,1025.3,165L1025.3,165z M1036.2,163.7v-2.1c-0.5,0.4-2.7,0.7-3.8,0.9c-1.8,0.3-3.2,0.9-3.2,2.5
		s1.2,2.3,2.9,2.3C1034.7,167.2,1036.2,165.6,1036.2,163.7L1036.2,163.7z"/>
	<path class="st4" d="M1043.7,176l1-3.2c1.8,0.5,3,0.4,3.8-1.6l0.3-0.9l-6.3-17.8h4.4l4,13.2h0.2l4-13.2h4.4l-7,19.6
		c-1,2.8-2.8,4.4-6.1,4.4C1045.3,176.5,1044.3,176.3,1043.7,176L1043.7,176z"/>
	<path class="st4" d="M1060.9,161.3c0-5.4,3.3-9.1,8.3-9.1c4.3,0,8,2.7,8,8.8v1.3H1065c0,3,1.8,4.7,4.5,4.7c1.8,0,3.1-0.8,3.7-2.2
		l3.8,0.4c-0.7,3-3.5,5-7.6,5C1064.1,170.2,1060.9,166.8,1060.9,161.3L1060.9,161.3z M1073.2,159.5c0-2.4-1.6-4.1-4-4.1
		s-4.1,1.9-4.2,4.1H1073.2z"/>
	<path class="st4" d="M1080.7,152.4h4v2.9h0.2c0.6-2,2.3-3.2,4.3-3.2c0.4,0,1.1,0,1.5,0.1v3.8c-0.3-0.1-1.2-0.2-1.9-0.2
		c-2.3,0-3.9,1.6-3.9,3.8v10.3h-4.1L1080.7,152.4L1080.7,152.4z"/>
	<path class="st4" d="M1207.3,471.8v-23.3h8.1c6.9,0,11.1,4.4,11.1,11.6s-4.2,11.7-11.3,11.7L1207.3,471.8L1207.3,471.8z
		 M1215,468.1c4.8,0,7.3-2.7,7.3-8s-2.5-8-7.2-8h-3.6v16H1215z"/>
	<path class="st4" d="M1229.4,466.9c0-3.9,3.2-5,6.6-5.3c3.1-0.3,4.3-0.4,4.3-1.6v-0.1c0-1.7-1.1-2.7-3-2.7c-2,0-3.2,1-3.6,2.2
		l-3.8-0.5c0.9-3.2,3.7-4.8,7.4-4.8c3.3,0,7.1,1.4,7.1,6v11.7h-4v-2.4h-0.1c-0.8,1.5-2.4,2.8-5.1,2.8
		C1232,472.1,1229.4,470.3,1229.4,466.9L1229.4,466.9z M1240.4,465.5v-2.1c-0.5,0.4-2.7,0.7-3.8,0.9c-1.8,0.3-3.2,0.9-3.2,2.5
		s1.2,2.3,2.9,2.3C1238.8,469.1,1240.4,467.5,1240.4,465.5z"/>
	<path class="st4" d="M1257.4,457.5h-3.4v9c0,1.7,0.8,2,1.9,2c0.5,0,1-0.1,1.2-0.2l0.7,3.2c-0.4,0.1-1.2,0.4-2.4,0.4
		c-3.1,0.1-5.5-1.5-5.5-4.8v-9.7h-2.5v-3.2h2.5V450h4.1v4.2h3.4L1257.4,457.5L1257.4,457.5z"/>
	<path class="st4" d="M1260,466.9c0-3.9,3.2-5,6.6-5.3c3.1-0.3,4.3-0.4,4.3-1.6v-0.1c0-1.7-1.1-2.7-3-2.7c-2,0-3.2,1-3.6,2.2
		l-3.8-0.5c0.9-3.2,3.7-4.8,7.4-4.8c3.3,0,7.1,1.4,7.1,6v11.7h-4v-2.4h-0.1c-0.8,1.5-2.4,2.8-5.1,2.8
		C1262.5,472.1,1260,470.3,1260,466.9L1260,466.9z M1270.9,465.5v-2.1c-0.5,0.4-2.7,0.7-3.8,0.9c-1.8,0.3-3.2,0.9-3.2,2.5
		s1.2,2.3,2.9,2.3C1269.4,469.1,1270.9,467.5,1270.9,465.5z"/>
	<path class="st4" d="M1287.3,448.5h4.2v19.8h10.2v3.5h-14.5v-23.3H1287.3z"/>
	<path class="st4" d="M1304.9,449.6c0-1.2,1.1-2.2,2.4-2.2s2.4,1,2.4,2.2s-1.1,2.2-2.4,2.2S1304.9,450.9,1304.9,449.6z
		 M1305.3,454.3h4.1v17.5h-4.1V454.3z"/>
	<path class="st4" d="M1317.7,471.8h-4.1v-17.5h3.9v3h0.2c0.8-1.9,2.6-3.2,5.2-3.2c3.6,0,6,2.4,6,6.6v11.1h-4.1v-10.5
		c0-2.3-1.3-3.7-3.4-3.7s-3.7,1.5-3.7,4V471.8L1317.7,471.8z"/>
	<path class="st4" d="M1333.1,448.5h4.1v12.8h0.3l6.3-7h4.8l-6.8,7.5l7.2,9.9h-4.9l-5.3-7.5l-1.5,1.6v5.9h-4.1L1333.1,448.5
		L1333.1,448.5z"/>
	<path class="st4" d="M1236.7,486.9h4.2v19.8h10.2v3.5h-14.5v-23.3H1236.7z"/>
	<path class="st4" d="M1253.8,505.3c0-3.9,3.2-5,6.6-5.3c3.1-0.3,4.3-0.4,4.3-1.6v-0.1c0-1.7-1.1-2.7-3-2.7c-2,0-3.2,1-3.6,2.2
		l-3.8-0.5c0.9-3.2,3.7-4.8,7.4-4.8c3.3,0,7.1,1.4,7.1,6v11.7h-4v-2.4h-0.1c-0.8,1.5-2.4,2.8-5.1,2.8
		C1256.3,510.5,1253.8,508.7,1253.8,505.3L1253.8,505.3z M1264.8,503.9v-2.1c-0.5,0.4-2.7,0.7-3.8,0.9c-1.8,0.3-3.2,0.9-3.2,2.5
		s1.2,2.3,2.9,2.3C1263.2,507.5,1264.8,505.9,1264.8,503.9z"/>
	<path class="st4" d="M1272.3,516.3l1-3.2c1.8,0.5,3,0.4,3.8-1.6l0.3-0.9l-6.3-17.8h4.4l4,13.2h0.2l4-13.2h4.4l-7,19.6
		c-1,2.8-2.8,4.4-6.1,4.4C1273.8,516.7,1272.8,516.5,1272.3,516.3L1272.3,516.3z"/>
	<path class="st4" d="M1289.5,501.6c0-5.4,3.3-9.1,8.3-9.1c4.3,0,8,2.7,8,8.8v1.3h-12.2c0,3,1.8,4.7,4.5,4.7c1.8,0,3.1-0.8,3.7-2.2
		l3.8,0.4c-0.7,3-3.5,5-7.6,5C1292.7,510.5,1289.5,507,1289.5,501.6L1289.5,501.6z M1301.8,499.8c0-2.4-1.6-4.1-4-4.1
		s-4.1,1.9-4.2,4.1H1301.8z"/>
	<path class="st4" d="M1309.2,492.7h4v2.9h0.2c0.6-2,2.3-3.2,4.3-3.2c0.5,0,1.1,0,1.5,0.1v3.8c-0.3-0.1-1.2-0.2-1.9-0.2
		c-2.3,0-3.9,1.6-3.9,3.8v10.3h-4.1L1309.2,492.7L1309.2,492.7z"/>
	<path class="st4" d="M1443.3,108.2h8.7c5.3,0,8.2,3.3,8.2,7.7s-2.9,7.7-8.3,7.7h-4.5v7.9h-4.2v-23.3H1443.3z M1451.5,120.2
		c3.1,0,4.5-1.8,4.5-4.2s-1.4-4.2-4.6-4.2h-3.9v8.4C1447.5,120.2,1451.5,120.2,1451.5,120.2z"/>
	<path class="st4" d="M1467.9,131.5h-4.1v-23.3h4v8.8h0.2c0.8-2,2.5-3.2,5.2-3.2c3.6,0,6,2.3,6,6.6v11.1h-4.1V121
		c0-2.3-1.3-3.7-3.4-3.7s-3.8,1.5-3.8,4L1467.9,131.5L1467.9,131.5z"/>
	<path class="st4" d="M1482.6,137.6l1-3.2c1.8,0.5,3,0.4,3.8-1.6l0.3-0.9l-6.3-17.8h4.4l4,13.2h0.2l4-13.2h4.4l-7,19.6
		c-1,2.8-2.8,4.4-6.1,4.4C1484.2,138.1,1483.2,137.9,1482.6,137.6L1482.6,137.6z"/>
	<path class="st4" d="M1511.2,119.1c-0.3-1.2-1.3-2.2-3.2-2.2c-1.7,0-3,0.8-3,2c0,1,0.7,1.6,2.5,2l3,0.6c3.3,0.7,4.9,2.2,4.9,4.7
		c0,3.3-3.1,5.6-7.5,5.6s-7-1.9-7.5-5.1l4-0.4c0.3,1.6,1.6,2.4,3.5,2.4s3.2-0.9,3.2-2.1c0-1-0.8-1.6-2.3-2l-3-0.6
		c-3.3-0.7-4.9-2.4-4.9-4.9c0-3.2,2.8-5.3,7.1-5.3s6.5,1.9,7,4.8L1511.2,119.1L1511.2,119.1z"/>
	<path class="st4" d="M1518.4,109.3c0-1.2,1.1-2.2,2.4-2.2s2.4,1,2.4,2.2s-1.1,2.2-2.4,2.2S1518.4,110.6,1518.4,109.3z
		 M1518.7,114.1h4.1v17.5h-4.1V114.1z"/>
	<path class="st4" d="M1526.3,122.8c0-5.3,3.2-9,8.3-9c4.3,0,7.2,2.5,7.5,6.3h-3.9c-0.3-1.7-1.5-3-3.5-3c-2.5,0-4.2,2.1-4.2,5.6
		s1.7,5.7,4.2,5.7c1.8,0,3.2-1.1,3.5-3h3.9c-0.3,3.7-3.1,6.3-7.5,6.3C1529.5,131.8,1526.3,128.1,1526.3,122.8L1526.3,122.8z"/>
	<path class="st4" d="M1544.7,126.6c0-3.9,3.2-4.9,6.6-5.3c3.1-0.3,4.3-0.4,4.3-1.6v-0.1c0-1.7-1.1-2.7-3-2.7c-2,0-3.2,1-3.6,2.2
		l-3.8-0.6c0.9-3.2,3.7-4.8,7.4-4.8c3.3,0,7.1,1.4,7.1,6v11.7h-4V129h-0.1c-0.8,1.5-2.4,2.8-5.1,2.8
		C1547.2,131.9,1544.7,130,1544.7,126.6L1544.7,126.6z M1555.7,125.2v-2.1c-0.5,0.4-2.7,0.7-3.8,0.8c-1.8,0.3-3.2,0.9-3.2,2.5
		s1.2,2.3,2.9,2.3C1554.1,128.8,1555.7,127.2,1555.7,125.2z"/>
	<path class="st4" d="M1568.1,131.5h-4.1v-23.3h4.1V131.5z"/>
	<path class="st4" d="M1465.2,146.6h4.2v19.8h10.2v3.5h-14.5v-23.3H1465.2z"/>
	<path class="st4" d="M1482.3,165c0-3.9,3.2-4.9,6.6-5.3c3.1-0.3,4.3-0.4,4.3-1.6V158c0-1.7-1.1-2.7-3-2.7c-2,0-3.2,1-3.6,2.2
		l-3.8-0.6c0.9-3.2,3.7-4.8,7.4-4.8c3.3,0,7.1,1.4,7.1,6v11.7h-4v-2.4h-0.1c-0.8,1.5-2.4,2.8-5.1,2.8
		C1484.9,170.3,1482.3,168.4,1482.3,165L1482.3,165z M1493.3,163.7v-2.1c-0.5,0.4-2.7,0.7-3.8,0.9c-1.8,0.3-3.2,0.9-3.2,2.5
		s1.2,2.3,2.9,2.3C1491.7,167.2,1493.3,165.6,1493.3,163.7L1493.3,163.7z"/>
	<path class="st4" d="M1500.8,176l1-3.2c1.8,0.5,3,0.4,3.8-1.6l0.3-0.9l-6.3-17.8h4.4l4,13.2h0.2l4-13.2h4.4l-7,19.6
		c-1,2.8-2.8,4.4-6.1,4.4C1502.4,176.5,1501.4,176.3,1500.8,176L1500.8,176z"/>
	<path class="st4" d="M1518,161.3c0-5.4,3.3-9.1,8.3-9.1c4.3,0,8,2.7,8,8.8v1.3h-12.2c0,3,1.8,4.7,4.5,4.7c1.8,0,3.1-0.8,3.7-2.2
		l3.8,0.4c-0.7,3-3.5,5-7.6,5C1521.2,170.2,1518,166.8,1518,161.3L1518,161.3z M1530.3,159.5c0-2.4-1.6-4.1-4-4.1s-4.1,1.9-4.2,4.1
		H1530.3z"/>
	<path class="st4" d="M1537.7,152.4h4v2.9h0.2c0.6-2,2.3-3.2,4.3-3.2c0.5,0,1.1,0,1.5,0.1v3.8c-0.3-0.1-1.2-0.2-1.9-0.2
		c-2.3,0-3.9,1.6-3.9,3.8v10.3h-4.1L1537.7,152.4L1537.7,152.4z"/>
</g>
</svg>
