<?xml version="1.0" standalone="no"?>
<!DOCTYPE svg PUBLIC "-//W3C//DTD SVG 20010904//EN"
 "http://www.w3.org/TR/2001/REC-SVG-20010904/DTD/svg10.dtd">
<svg version="1.0" xmlns="http://www.w3.org/2000/svg"
 width="16.000000pt" height="16.000000pt" viewBox="0 0 16.000000 16.000000"
 preserveAspectRatio="xMidYMid meet">

<g transform="translate(0.000000,16.000000) scale(0.100000,-0.100000)"
fill="#000000" stroke="none">
<path d="M33 80 c0 -41 2 -60 4 -42 3 19 10 32 19 32 8 0 14 5 14 10 0 6 -6
10 -14 10 -9 0 -16 13 -19 33 -2 17 -4 -2 -4 -43z"/>
<path d="M120 120 c0 -20 -5 -30 -15 -30 -8 0 -15 -4 -15 -10 0 -5 6 -10 14
-10 9 0 16 -13 19 -32 2 -18 5 0 5 40 1 39 0 72 -3 72 -3 0 -5 -13 -5 -30z"/>
</g>
</svg>
